<svg xmlns="http://www.w3.org/2000/svg" viewBox="0 0 394.616 394.616"><path d="M54.19 124.665c-13.098 0-23.754 10.656-23.754 23.754s10.656 23.75 23.754 23.75c13.1 0 23.755-10.66 23.755-23.76 0-13.1-10.656-23.756-23.755-23.756zm0 38.51c-8.136 0-14.754-6.62-14.754-14.756s6.62-14.76 14.754-14.76c8.136 0 14.755 6.62 14.755 14.75 0 8.135-6.62 14.755-14.755 14.755zm286.234-38.51c-13.098 0-23.754 10.656-23.754 23.754s10.656 23.75 23.754 23.75c13.1 0 23.756-10.66 23.756-23.76 0-13.1-10.657-23.755-23.756-23.755zm0 38.51c-8.136 0-14.754-6.62-14.754-14.756s6.62-14.76 14.754-14.76c8.136 0 14.756 6.62 14.756 14.75 0 8.135-6.62 14.755-14.756 14.755z"/><path d="M394.616 148.42c0-29.882-24.31-54.19-54.192-54.19a53.97 53.97 0 0 0-15.018 2.133c-3.004-38.688-35.41-69.258-74.854-69.258H144.065c-39.445 0-71.86 30.568-74.865 69.255a54.028 54.028 0 0 0-15.01-2.13C24.31 94.227 0 118.537 0 148.42c0 25.93 18.43 48.096 43.478 53.115v92.43c0 .04-.012.076-.012.116 0 11.95 7.143 22.26 17.38 26.9-2.742 3.194-4.412 7.334-4.412 11.86 0 7.526 6.256 13.4 9.694 16.06v14.12a4.5 4.5 0 0 0 4.5 4.5h25.234a4.5 4.5 0 0 0 4.5-4.5V348.9c3.438-2.66 9.693-8.535 9.693-16.06a18.11 18.11 0 0 0-2.542-9.244H287.1a18.11 18.11 0 0 0-2.54 9.244c0 7.52 6.255 13.4 9.693 16.06v14.115a4.5 4.5 0 0 0 4.5 4.5h25.234a4.5 4.5 0 0 0 4.5-4.5v-14.12c3.438-2.66 9.693-8.534 9.693-16.058 0-4.53-1.67-8.67-4.41-11.864 10.235-4.636 17.378-14.942 17.378-26.89 0-.04-.01-.074-.01-.112v-92.43c25.048-5.02 43.478-27.185 43.478-53.115zM144.066 36.103H250.55c35.632 0 64.753 28.334 66.057 63.652-17.97 8.832-30.372 27.323-30.372 48.662 0 .057 0 .113.002.174-.002.05-.002.1-.002.15v57.225c-4.644-2.182-11.61-4.327-22.027-6.24-17.908-3.285-41.662-5.095-66.885-5.095-25.224 0-48.977 1.81-66.886 5.095-10.437 1.914-17.413 4.065-22.056 6.25V148.42c0-21.34-12.4-39.83-30.37-48.662 1.31-35.316 30.43-63.65 66.06-63.65zm142.17 180.427v26.97c0 4.114-3.347 7.46-7.46 7.46H115.84c-4.113 0-7.46-3.346-7.46-7.46v-26.93c.99-1.397 7.335-5.283 26.7-8.527 17.007-2.85 39.112-4.42 62.243-4.42 23.13 0 45.235 1.57 62.243 4.42 19.196 3.216 25.596 7.06 26.67 8.488zm-185.18 116.304c0 4.13-5.64 8.682-7.605 9.945a4.502 4.502 0 0 0-2.08 3.79v11.933H75.13V346.57a4.5 4.5 0 0 0-2.09-3.8c-2.48-1.573-7.605-6.076-7.605-9.943 0-5.098 4.147-9.244 9.245-9.244h17.134c5.096 0 9.242 4.146 9.242 9.243zm220.52 9.945a4.502 4.502 0 0 0-2.088 3.79v11.933h-16.234V346.57a4.5 4.5 0 0 0-2.09-3.8c-2.48-1.573-7.604-6.076-7.604-9.943 0-5.098 4.147-9.244 9.245-9.244h17.133c5.096 0 9.243 4.147 9.243 9.243 0 4.13-5.64 8.68-7.6 9.944zm26.217-149.79v-.01a45.3 45.3 0 0 1-7.37.62c-7.332 0-14.61-1.794-21.045-5.19a4.5 4.5 0 0 0-4.2 7.96c7.726 4.077 16.455 6.23 25.246 6.23.572 0 1.143-.01 1.713-.03v91.5c0 .026.007.05.007.075-.04 11.275-9.22 20.436-20.505 20.436H72.97c-11.282 0-20.462-9.157-20.505-20.43 0-.026.007-.05.007-.077v-91.51c.57.017 1.142.04 1.714.04 8.792 0 17.52-2.152 25.244-6.227a4.5 4.5 0 0 0 1.88-6.08 4.498 4.498 0 0 0-6.08-1.88c-6.434 3.396-13.71 5.19-21.045 5.19a45.2 45.2 0 0 1-5.313-.33c0 .014-.225-.02-.344-.035C25.998 190.433 9 171.163 9 148.42c0-24.92 20.272-45.19 45.19-45.19s45.19 20.27 45.19 45.204l-.007.24c0 .113 0 .224.008.334V243.5c0 9.077 7.39 16.46 16.46 16.46h162.94c9.08 0 16.46-7.383 16.46-16.46v-26.938c.01-.098.03-.19.03-.29 0-.23-.01-.468-.03-.71V149.01c.01-.112.01-.224.01-.336l-.01-.255c0-24.92 20.277-45.19 45.19-45.19 24.92 0 45.19 20.27 45.19 45.19 0 22.16-16.14 41.01-37.82 44.57z"/><path d="M139.468 101.91a4.487 4.487 0 0 0 3.182 1.32 4.48 4.48 0 0 0 3.182-1.32l5.264-5.263 5.263 5.264a4.48 4.48 0 0 0 3.18 1.32 4.48 4.48 0 0 0 3.18-1.32 4.5 4.5 0 0 0 0-6.36l-5.27-5.26 5.264-5.264a4.5 4.5 0 1 0-6.365-6.363l-5.264 5.264-5.264-5.264a4.5 4.5 0 0 0-6.365 6.36l5.264 5.265-5.263 5.265a4.5 4.5 0 0 0 0 6.364zm0 64.227a4.487 4.487 0 0 0 3.182 1.318c1.152 0 2.304-.44 3.182-1.318l5.264-5.264 5.263 5.264a4.478 4.478 0 0 0 3.18 1.318 4.5 4.5 0 0 0 3.18-7.682l-5.27-5.265 5.264-5.265a4.5 4.5 0 1 0-6.365-6.363l-5.264 5.264-5.264-5.264a4.5 4.5 0 1 0-6.365 6.363l5.264 5.265-5.263 5.265a4.5 4.5 0 0 0 0 6.364zm93.75-64.227a4.49 4.49 0 0 0 3.18 1.32 4.48 4.48 0 0 0 3.18-1.32l5.266-5.263 5.264 5.264c.878.88 2.03 1.32 3.18 1.32s2.304-.44 3.183-1.32a4.5 4.5 0 0 0 0-6.36l-5.26-5.26 5.268-5.262a4.5 4.5 0 0 0-6.363-6.364l-5.265 5.264-5.264-5.266a4.5 4.5 0 0 0-6.362 6.365l5.264 5.265-5.262 5.265a4.5 4.5 0 0 0 0 6.364zm0 64.227a4.49 4.49 0 0 0 3.18 1.318c1.15 0 2.303-.44 3.18-1.318l5.266-5.264 5.264 5.264c.878.878 2.03 1.318 3.18 1.318s2.304-.44 3.183-1.318a4.5 4.5 0 0 0 0-6.364l-5.26-5.264 5.268-5.27a4.5 4.5 0 0 0-6.363-6.368l-5.265 5.264-5.264-5.264a4.5 4.5 0 0 0-6.362 6.366l5.264 5.263-5.262 5.264a4.5 4.5 0 0 0 0 6.364z"/></svg>