<svg xmlns="http://www.w3.org/2000/svg" viewBox="0 0 372.888 372.888"><path d="M367.04 48.69c0-9.222-7.502-16.724-16.724-16.724h-11.053a93.413 93.413 0 0 0-1.972-3.766C327.19 10.015 313.45 0 298.63 0H74.268c-14.83 0-28.56 10.015-38.67 28.2a94.09 94.09 0 0 0-1.97 3.766H22.57c-9.222 0-16.724 7.502-16.724 16.724 0 9.222 7.502 16.724 16.724 16.724h.42c-1.54 8.784-2.35 18.018-2.35 27.467a4.5 4.5 0 0 0 4.5 4.5h142.64v174.4l-9.855 28.84c-10.777 3.026-19.023 12.14-20.786 23.38H97.87c-15.968 0-28.958 12.99-28.958 28.958v15.44a4.5 4.5 0 0 0 4.5 4.5H299.48a4.5 4.5 0 0 0 4.5-4.5v-15.44c0-15.966-12.99-28.956-28.958-28.956h-39.27c-1.764-11.24-10.01-20.355-20.787-23.38l-9.855-28.833V97.38h94.817v88.348c-4.714 1.488-8.1 6.538-8.1 12.724 0 7.392 4.828 13.183 10.99 13.183h3.22c6.162 0 10.99-5.79 10.99-13.183 0-6.186-3.386-11.236-8.1-12.724V97.38h38.818a4.5 4.5 0 0 0 4.5-4.5c0-9.448-.81-18.682-2.35-27.466h.42c9.224 0 16.727-7.502 16.727-16.724zM24.875 56.415h-2.303c-4.26 0-7.724-3.465-7.724-7.724 0-4.25 3.465-7.72 7.724-7.72h7.106c-1.887 4.89-3.492 10.06-4.803 15.45zm270.103 307.473H77.91v-6.44h217.067v6.44zm-19.957-30.895c9.46 0 17.4 6.612 19.45 15.456H78.42c2.046-8.85 9.987-15.46 19.445-15.46H275.02zm-67.86-24.456c9.46 0 17.4 6.612 19.45 15.457h-80.32c2.047-8.844 9.988-15.457 19.446-15.457h41.427zm-9.76-31.507l7.695 22.5H167.81l7.693-22.507H197.4zm-20.612-9V97.38h19.33v170.65h-19.33zm129.258-65.4h-3.22c-.575 0-1.987-1.468-1.987-4.185s1.41-4.183 1.99-4.183h3.215c.578 0 1.99 1.465 1.99 4.182 0 2.716-1.413 4.182-1.99 4.182zM29.71 88.38c.6-21.155 5.43-40.83 13.756-55.808C51.914 17.372 62.852 9 74.266 9H298.62c11.415 0 22.354 8.372 30.803 23.572 8.325 14.978 13.157 34.653 13.757 55.81H29.707zm318.305-31.965c-1.31-5.393-2.917-10.563-4.803-15.448h7.105c4.26 0 7.724 3.465 7.724 7.724 0 4.26-3.47 7.73-7.73 7.73h-2.3z"/></svg>