<svg xmlns="http://www.w3.org/2000/svg" viewBox="0 0 416.22 416.22"><path d="M271.874 176.49h4.538a4.5 4.5 0 0 0 4.5-4.5v-18.94l13.593-138.272c.858-7.068-4.88-13.63-12.83-14.645-7.294-.926-13.958 3.142-15.73 9.28a25.492 25.492 0 0 0-14.138-4.278H164.18a25.54 25.54 0 0 0-13.94 4.158c-1.823-6.07-8.436-10.082-15.695-9.16-7.947 1.016-13.687 7.577-12.83 14.645l13.592 138.272v18.94a4.5 4.5 0 0 0 4.5 4.5h4.538s.753 77.378-1.464 123.115c-3.97 81.905-13.68 103.425-19.12 108.962a4.5 4.5 0 0 0 3.21 7.654h17.65c8.832 0 12.9-12.72 15.46-23.8 2.52-10.903 4.666-26.14 6.396-45.32h83.284c1.73 19.185 3.88 34.42 6.397 45.32 2.56 11.087 6.63 23.81 15.464 23.81h17.645a4.5 4.5 0 0 0 3.21-7.655c-5.37-5.465-14.98-26.875-19.014-108.85-2.26-45.94-1.577-123.226-1.577-123.226zm-122.59 161.6c.195-2.15.384-4.35.566-6.58h116.637a761.7 761.7 0 0 0 .568 6.58H149.283zm95.383-161.603v10.53h-73.16v-10.53h73.16zm18.207 19.53v6.58h-109.53v-6.58h109.53zM150.538 322.51c.506-7.137.953-14.638 1.334-22.514 1.875-38.723 1.693-75.746 1.556-88.395h9.1c-.02 14.99-.314 65.04-3.222 110.91h-8.768zm20.99-110.91h73.164c.02 15.027.314 64.955 3.203 110.91h-79.57c2.887-45.955 3.183-95.882 3.202-110.91zm85.387 110.91c-2.908-45.864-3.203-95.917-3.223-110.908h9.11c-.12 12.653-.25 49.745 1.657 88.513.38 7.834.83 15.295 1.33 22.397h-8.884zm5.96-135.49h-9.208v-10.53h9.207v10.53zM155.86 76.774h104.5l-.62 7.797a16.387 16.387 0 0 1-7.933 2.02H164.18a16.41 16.41 0 0 1-7.69-1.88l-.63-7.93zm105.213-9H155.147L152.42 33.36H263.8l-2.727 34.414zM164.18 95.59h87.627a25.7 25.7 0 0 0 7.142-1.017l-1.52 19.118a26.063 26.063 0 0 0-2.61-.13h-93.44c-.88 0-1.746.05-2.603.13l-1.51-19.05c2.222.62 4.536.95 6.904.95zm-2.79 26.97h93.438c9.42 0 17.083 7.664 17.083 17.084v1.813h-127.6v-1.813c0-9.42 7.67-17.084 17.09-17.084zM280.534 9.06c3 .383 5.307 2.513 5.033 4.65a2.83 2.83 0 0 0-.015.13L274.83 122.924a26.265 26.265 0 0 0-8.567-6.72l7.65-96.52.006-.067.58-7.403c.33-2.094 3.07-3.536 6.03-3.156zM164.18 14.133h87.626c5.23 0 10.09 2.442 13.007 6.446l-.3 3.78H151.707l-.32-4.06c2.938-3.83 7.714-6.17 12.794-6.17zm-33.53-.423c-.27-2.137 2.034-4.267 5.034-4.65 2.962-.38 5.698 1.062 6.03 3.155l8.242 103.99a26.208 26.208 0 0 0-8.567 6.72L130.66 13.84a2.83 2.83 0 0 0-.015-.13zm13.656 136.748h127.606v17.03H144.306v-17.03zm18.202 26.03v10.532h-9.163v-10.53h9.163zM144.514 407.22h-9.146c4.066-8.12 7.4-20.55 10.106-37.603 1.078-6.79 2.053-14.31 2.923-22.525h9.032c-4.98 54.448-11.9 59.654-12.92 60.128zm127.192 0c-1.02-.473-7.942-5.672-12.916-60.128h9.148c.873 8.267 1.852 15.83 2.93 22.652 2.69 17.003 5.99 29.393 10.007 37.476h-9.17z"/></svg>