<svg xmlns="http://www.w3.org/2000/svg" viewBox="0 0 458.343 458.343"><path d="M363.77 424.57c.28-.23.537-.49.76-.787a4.502 4.502 0 0 0 .717-3.962l-7.866-26.88V32.65l7.87-26.887A4.502 4.502 0 0 0 360.93 0H97.418a4.503 4.503 0 0 0-4.32 5.763l7.864 26.888v360.29l-7.866 26.89a4.502 4.502 0 0 0 .718 3.963c.222.296.478.558.76.787a14.64 14.64 0 0 0-1.658 6.763c0 5.768 4.452 10.275 7.23 12.527v9.983a4.5 4.5 0 0 0 4.5 4.5h18.82a4.5 4.5 0 0 0 4.5-4.5v-9.98c2.78-2.254 7.23-6.76 7.23-12.53 0-2.04-.417-3.984-1.168-5.75H324.31a14.677 14.677 0 0 0-1.167 5.75c0 5.767 4.452 10.274 7.23 12.526v9.98a4.5 4.5 0 0 0 4.5 4.5h18.82a4.5 4.5 0 0 0 4.5-4.5v-9.98c2.78-2.253 7.23-6.76 7.23-12.53a14.64 14.64 0 0 0-1.656-6.764zm-260.35-7.986l1.392-4.756h248.72l1.39 4.756H103.42zM350.898 22.756l-1.392 4.756h-240.67l-1.392-4.756h243.454zM107.445 402.828l1.392-4.756h240.67l1.392 4.756H107.44zM348.38 36.512v352.56H109.962V36.512H348.38zM354.922 9l-1.392 4.756H104.812L103.42 9h251.502zM126.197 431.335c0 2.138-3.076 5.12-5.142 6.452a4.5 4.5 0 0 0-2.088 3.8v7.756h-9.82v-7.757c0-1.528-.79-2.962-2.075-3.79-2.08-1.343-5.156-4.324-5.156-6.46a5.758 5.758 0 0 1 5.752-5.752h12.78c3.17 0 5.75 2.58 5.75 5.75zm225.09 6.452a4.5 4.5 0 0 0-2.09 3.8v7.756h-9.82v-7.757a4.53 4.53 0 0 0-2.074-3.79c-2.08-1.343-5.156-4.324-5.156-6.46a5.758 5.758 0 0 1 5.752-5.752h12.77c3.17 0 5.75 2.58 5.75 5.75 0 2.14-3.078 5.12-5.14 6.453z"/><path d="M125.17 143.857h208a4.5 4.5 0 0 0 4.5-4.5v-62c0-9.512-11.393-17.197-33.863-22.844-19.99-5.024-46.497-7.79-74.636-7.79s-54.64 2.766-74.63 7.79c-22.47 5.647-33.86 13.333-33.86 22.844v62a4.5 4.5 0 0 0 4.5 4.5zm4.5-62h8.054v53h-8.053v-53zm17.054 9.414h6.533v43.59h-6.533V91.27zm15.533 43.59V86.53h11.528v48.33h-11.528zm20.53-11.17l2.766 11.177h-2.767v-11.18zm12.037 11.177l-10.788-43.59h8.37l10.787 43.588h-8.37zm17.662 0l-10.788-43.59h8.37l10.787 43.588h-8.37zm45.503 0l10.22-51.217h6.35l-10.22 51.21h-6.356zm17.56-10.193v10.193h-2.037l2.035-10.195zm17.05 10.193h-8.053V97.07h8.053v37.79zm9-43.588h6.533v43.586H301.6V91.27zm27.06 43.586h-11.52V86.53h11.528v48.33zm-99.5-79.135c65.328 0 99.5 14.084 99.5 21.635v.17h-16.02a4.5 4.5 0 0 0-4.5 4.5v.242h-11.03a4.5 4.5 0 0 0-4.5 4.5v1.3h-9.746l1.606-8.05a4.497 4.497 0 0 0-4.414-5.38h-15.533a4.5 4.5 0 0 0-4.413 3.62l-11.3 56.6h-18.684l-12.168-49.17a4.5 4.5 0 0 0-4.368-3.42h-30.804v-.243a4.5 4.5 0 0 0-4.5-4.5h-20.528a4.5 4.5 0 0 0-4.5 4.5v.24h-6.533v-4.91a4.5 4.5 0 0 0-4.5-4.5h-9.35c9.86-7.586 42.506-17.133 96.296-17.133zm-104 165.79h208a4.5 4.5 0 0 0 4.5-4.5v-62.01a4.5 4.5 0 0 0-4.5-4.5h-208a4.5 4.5 0 0 0-4.5 4.5v62a4.5 4.5 0 0 0 4.5 4.5zm68.46-23.24h-32.33v-5.236h32.335v5.235zm-40.433 9h40.435v5.238H153.19v-5.236zm49.434-35.196h5.238v40.433h-5.237v-40.43zm14.24 0h5.236v40.433h-5.237v-40.43zm14.236 0h5.237v40.433H231.1v-40.43zm14.237 40.433v-40.43h5.236v40.435h-5.24zm14.237-6.292l1.487 6.294h-1.483v-6.294zm10.735 6.294l-9.55-40.435h4.99l9.547 40.433h-4.99zm44.12 0h-5.24v-40.43h5.238v40.434zm14.235 0h-5.236v-40.43h5.237v40.434zm-199-53h199v3.565h-23.97a4.5 4.5 0 0 0-4.5 4.5v44.933h-15.64l-10.854-45.97a4.5 4.5 0 0 0-4.38-3.467H198.13a4.5 4.5 0 0 0-4.5 4.5v16.46h-36.834a4.5 4.5 0 0 0-4.5 4.5v9.737h-3.6a4.5 4.5 0 0 0-4.5 4.5v9.735H129.67v-53zm-4.5 139.657h208a4.5 4.5 0 0 0 4.5-4.5v-62a4.5 4.5 0 0 0-4.5-4.5h-208a4.5 4.5 0 0 0-4.5 4.5v62a4.5 4.5 0 0 0 4.5 4.5zm4.5-21.665l3.7 12.67h-3.7v-12.67zm1.502-26.952h8.046l11.573 39.624h-8.045l-11.574-39.62zm28.996 39.624l-11.574-39.62h8.046l11.575 39.62h-8.046zm75.016 0l10.547-35.842h8.78l-10.55 35.846h-8.78zm20.84 0h-2.68l2.68-9.103v9.106zm18.162 0h-9.16v-35.85h9.16v35.846zm9-35.842h9.16v35.846h-9.16v-35.85zm18.16 0h9.162v35.846h-9.16v-35.85zm27.323 35.846h-9.16v-35.85h9.16v35.844zm0-53v8.157h-86.3a4.5 4.5 0 0 0-4.318 3.23l-12.244 41.6h-48.213l-13.258-45.38a4.5 4.5 0 0 0-4.32-3.24h-30.34v-4.377h199zM125.16 376.84h208a4.5 4.5 0 0 0 4.5-4.5v-62a4.5 4.5 0 0 0-4.5-4.5h-208a4.5 4.5 0 0 0-4.5 4.5v62a4.5 4.5 0 0 0 4.5 4.5zm4.5-48.5h6.09v39.5h-6.09v-39.5zm15.09 3.655h9.16v35.847h-9.16v-35.85zm18.16 0h9.16v35.847h-9.16v-35.85zm18.163 0h9.16v35.847h-9.16v-35.85zm18.16 0h9.16v35.847h-9.16v-35.85zm18.16 35.847v-35.85h9.16v35.846h-9.16zM300.19 353.6h-32.33v-5.235h32.333v5.238zm-40.435 9h40.434v5.24h-40.43v-5.24zm49.435-35.2h5.238v40.436h-5.236V327.4zm19.475 40.435h-5.234v-40.437h5.24v40.435zm0-53v3.563H304.7a4.5 4.5 0 0 0-4.5 4.5v16.46h-36.834a4.5 4.5 0 0 0-4.5 4.5v9.737h-3.6a4.5 4.5 0 0 0-4.5 4.5v9.737h-15.198v-40.346a4.5 4.5 0 0 0-4.5-4.5h-86.39a4.497 4.497 0 0 0-4.416-3.654h-10.59v-4.5h199z"/></svg>