<svg xmlns="http://www.w3.org/2000/svg" viewBox="0 0 391.91 391.91"><path d="M365.254 51.563a4.5 4.5 0 0 0-4.5-4.5H299.18a4.5 4.5 0 0 0-4.5 4.5c0 8.17 3.362 15.094 8.38 18.534a11.46 11.46 0 0 0-1.09 4.862c0 6.35 5.17 11.52 11.528 11.52h.64c1.82 4.482 4.86 14.17-.276 19.306a4.5 4.5 0 0 0 3.18 7.682h8.582c.003 7.12-1.084 21.922-9.446 31.09-4.848 5.314-11.347 7.898-19.867 7.898-.2 0-22.85 2.755-31.85-21.084-12.75-33.778-32.01-32.95-38.35-32.68-.41.02-8.22.136-13.37 4.686a16.413 16.413 0 0 0-2.87-3.445c-3.05-2.76-6.593-3.9-9.41-4.355V66.41h8.427a4.5 4.5 0 0 0 3.18-7.683c-5.14-5.14-2.095-14.83-.274-19.308h.64c6.356 0 11.528-5.174 11.528-11.53 0-1.74-.397-3.38-1.09-4.86 5.02-3.44 8.38-10.365 8.38-18.537a4.5 4.5 0 0 0-4.5-4.5h-61.58a4.5 4.5 0 0 0-4.5 4.5c0 8.173 3.36 15.096 8.377 18.536a11.46 11.46 0 0 0-1.09 4.86c0 6.355 5.172 11.53 11.53 11.53h.647c1.83 4.47 4.887 14.13-.286 19.305a4.5 4.5 0 0 0 3.182 7.68h8.42v29.18c-2.818.456-6.36 1.6-9.41 4.355a16.458 16.458 0 0 0-2.87 3.444c-5.15-4.55-12.96-4.67-13.37-4.688-6.34-.266-25.22-.95-38.35 32.68-8.32 21.317-31.64 21.084-31.858 21.084-8.51 0-15-2.577-19.847-7.877-8.345-9.126-9.45-23.974-9.46-31.113h8.574a4.5 4.5 0 0 0 3.18-7.68c-5.14-5.14-2.096-14.83-.275-19.307h.64c6.358 0 11.53-5.17 11.53-11.53 0-1.735-.4-3.38-1.09-4.86 5.017-3.44 8.378-10.362 8.378-18.533a4.5 4.5 0 0 0-4.5-4.5h-61.57a4.5 4.5 0 0 0-4.5 4.5c0 8.172 3.36 15.095 8.38 18.535a11.452 11.452 0 0 0-1.09 4.86c0 6.36 5.17 11.53 11.528 11.53h.65c1.83 4.47 4.89 14.135-.285 19.31a4.5 4.5 0 0 0 3.182 7.68h8.26c-.005 8.42 1.377 25.726 11.804 37.16 6.496 7.12 15.31 10.762 26.205 10.83 12.266 0 32.416-5.25 40.59-26.904 10.45-27.683 23.83-27.105 29.542-26.864.554.024 5.51.136 8.13 2.734 1.715 1.703 2.59 4.286 2.59 7.674 0 3.344-.856 5.97-2.468 7.587-1.65 1.66-3.68 1.91-4.74 1.91-1.96 0-4.14-.93-4.14-2.27a4.5 4.5 0 0 0-9 0c0 6.428 5.65 11.27 13.14 11.27a15.8 15.8 0 0 0 7.202-1.714v5.568c-3.07 1.167-5.937 2.75-8.105 4.904-2.702 2.69-4.132 6.06-4.132 9.746 0 6.32 3.114 15.56 8.13 24.117.01.017 15.562 26.39-.313 67.135-.015.04-8.193 20.39-.368 32.5 1.6 2.48 3.68 4.52 6.2 6.14-6.21 3.344-11.163 8.91-11.19 17.77-.175 5.513-1.45 11.715-2.705 13.343-7.036.535-12.6 6.416-12.6 13.585 0 5.67 3.48 10.54 8.416 12.593-4.944 12.12-34.63 20.296-45.872 22.397-7.147.415-12.84 6.346-12.84 13.597 0 7.52 6.116 13.636 13.636 13.636h163.13c7.52 0 13.64-6.12 13.64-13.64 0-7.25-5.695-13.18-12.846-13.594-11.246-2.097-40.93-10.256-45.87-22.396 4.936-2.055 8.417-6.925 8.417-12.596 0-7.17-5.566-13.05-12.6-13.583-1.25-1.62-2.524-7.825-2.706-13.343-.03-8.856-4.984-14.424-11.196-17.77 2.523-1.62 4.604-3.655 6.205-6.133 7.647-11.833-.403-32.65-.515-32.873-15.635-40.52.018-67.1.11-67.327 4.948-8.66 7.88-17.48 7.855-23.68-.017-3.69-1.46-7.053-4.176-9.73-2.164-2.13-5.014-3.696-8.066-4.85v-5.5a15.815 15.815 0 0 0 7.205 1.716c7.49 0 13.14-4.845 13.14-11.268a4.5 4.5 0 0 0-9 0c0 1.336-2.182 2.268-4.14 2.268-1.06 0-3.088-.248-4.74-1.908-1.61-1.62-2.463-4.243-2.463-7.588 0-9.524 10.16-10.387 10.72-10.41 5.71-.244 19.09-.82 29.54 26.865 8.175 21.653 20.29 26.902 40.59 26.902 10.895-.068 19.71-3.713 26.204-10.833 10.433-11.44 11.81-28.746 11.804-37.156h8.26a4.5 4.5 0 0 0 3.182-7.68c-5.14-5.144-2.096-14.833-.277-19.31h.64c6.353 0 11.525-5.17 11.525-11.53a11.43 11.43 0 0 0-1.09-4.86c5.02-3.44 8.38-10.362 8.38-18.533zM36.2 56.063h51.486c-1.106 4.414-3.724 7.367-6.124 7.367h-39.24c-2.4 0-5.016-2.953-6.123-7.367zm9.275 21.425c-1.395 0-2.53-1.135-2.53-2.53s1.136-2.528 2.53-2.528h32.938c1.395 0 2.53 1.135 2.53 2.53s-1.136 2.528-2.53 2.528H45.475zm11.295 26.99c1.878-6.27.528-13.11-1.06-17.99h12.464c-1.587 4.88-2.936 11.722-1.058 17.99H56.77zM170.212 9H221.7c-1.107 4.414-3.725 7.367-6.125 7.367h-39.24c-2.4 0-5.017-2.953-6.123-7.367zm9.274 21.426a2.532 2.532 0 0 1-2.53-2.53 2.533 2.533 0 0 1 2.53-2.528h32.938a2.532 2.532 0 0 1 2.53 2.53 2.532 2.532 0 0 1-2.53 2.528h-32.938zm11.295 26.99c1.88-6.27.53-13.11-1.05-17.99h12.46c-1.583 4.88-2.933 11.72-1.06 17.99h-10.35zm-5.64 57.822c0-3.926 1.01-6.778 2.9-8.573 2.65-2.518 7.768-2.33 7.907-2.328.204 0 5.237-.17 7.943 2.328 1.914 1.77 2.893 4.647 2.893 8.573v22.836c-5.264-.86-9.725-.887-10.813-.88l-.006-.002a70.12 70.12 0 0 0-10.82.92v-22.874zm92.38 267.672H114.4a4.642 4.642 0 0 1-4.637-4.637 4.642 4.642 0 0 1 4.637-4.637h163.12a4.642 4.642 0 0 1 4.636 4.637 4.643 4.643 0 0 1-4.637 4.637zm-30.26-18.273H144.65c11.003-4.82 21.395-11.768 23.936-21.313h54.733c2.54 9.545 12.93 16.493 23.94 21.313zm-20.04-39.586c2.56 0 4.64 2.08 4.64 4.64s-2.08 4.64-4.632 4.64H164.7c-2.558 0-4.638-2.08-4.638-4.633s2.08-4.637 4.637-4.637h62.525zm-10.66-22.21v.14c.1 3.215.5 8.49 1.948 13.08h-45.09c1.45-4.59 1.85-9.864 1.946-13.08v-.136c0-12.97 19.64-13.263 20.6-13.27.345 0 20.6.225 20.6 13.27zm-3.635-50.343c1.916 5.515 4.045 15.355.087 21.48-2.78 4.307-8.52 6.52-17.05 6.59-8.52-.07-14.253-2.28-17.04-6.572-3.946-6.09-1.822-15.96.087-21.497h33.914zm-29.947-71.043h25.97c-4.027 10.46-9.226 32.31.656 62.043h-27.28c9.88-29.736 4.684-51.58.655-62.045zm34.55-29.792c1.028 1.013 1.488 2.048 1.494 3.357.018 4.183-2.187 10.844-5.707 17.435h-34.76c-3.89-7.26-5.654-13.817-5.654-17.344 0-1.307.455-2.342 1.475-3.357 4.08-4.06 15-5.556 21.574-5.556s16.92.875 21.576 5.465zm117.62-47.174H324.8c1.878-6.27.53-13.11-1.058-17.99h12.46c-1.588 4.88-2.937 11.72-1.06 17.99zm11.297-26.99H313.5c-1.396 0-2.53-1.137-2.53-2.53s1.135-2.53 2.53-2.53h32.937c1.395 0 2.53 1.135 2.53 2.53s-1.136 2.53-2.53 2.53zm3.15-14.06h-39.24c-2.4 0-5.02-2.953-6.125-7.367h51.486c-1.106 4.414-3.723 7.367-6.123 7.367z"/></svg>