<svg xmlns="http://www.w3.org/2000/svg" viewBox="0 0 412.751 412.751"><path d="M305.886 107.85c-13.08-11.758-26.418-15.84-32.97-17.212v-52.99l9.628-9.21c5.683-.85 10.06-5.747 10.06-11.663v-4.967c0-6.51-5.298-11.808-11.81-11.808H132.002c-6.512 0-11.81 5.297-11.81 11.81v4.966c0 5.896 4.35 10.782 10.004 11.655l9.636 9.22v52.99c-6.55 1.37-19.89 5.46-32.97 17.21-16.22 14.58-35.143 44.32-33.17 103.18 1.94 57.94 20.066 105.62 34.93 135.41 11.84 23.726 23.326 39.94 28.86 47.197-2.107 2.026-3.428 4.863-3.428 8.01 0 6.13 4.986 11.115 11.115 11.115h122.41c6.12 0 11.11-4.985 11.11-11.114 0-3.146-1.32-5.984-3.43-8.01 5.532-7.256 17.02-23.47 28.86-47.195 14.86-29.79 32.99-77.464 34.93-135.404 1.972-58.86-16.95-88.597-33.17-103.177zM132.002 19.583c-1.55 0-2.81-1.26-2.81-2.81V11.81c0-1.55 1.26-2.81 2.81-2.81h148.793c1.55 0 2.81 1.26 2.81 2.81v4.967c0 1.55-1.26 2.81-2.81 2.81H132.002zm16.83 47.93V55.12h115.086v12.393H148.832zm115.086 9V89.96H148.832V76.514h115.086zM148.832 46.12V35.726c0-1.23-.502-2.403-1.39-3.252l-4.066-3.89h125.997l-4.065 3.89a4.5 4.5 0 0 0-1.39 3.252V46.12H148.832zm-36.368 68.797c14.942-13.648 30.525-15.773 32.1-15.956H268.18c1.628.19 17.186 2.33 32.104 15.96 9.18 8.39 16.313 19.47 21.31 32.93-6.75 2.03-11.12 6.23-15.055 10.04-5.05 4.88-9.03 8.733-17.53 8.733-8.51 0-12.5-3.854-17.54-8.733-5.458-5.28-11.64-11.267-23.79-11.267s-18.337 5.986-23.79 11.268c-5.04 4.88-9.02 8.735-17.53 8.735-8.51 0-12.49-3.854-17.53-8.732-5.454-5.28-11.638-11.267-23.79-11.267-12.15 0-18.33 5.985-23.787 11.267-5.04 4.88-9.02 8.733-17.528 8.733s-12.49-3.86-17.528-8.738c-3.935-3.81-8.304-8.007-15.053-10.03 4.995-13.467 12.13-24.546 21.31-32.933zm-24.1 41.484c4.802 1.39 7.997 4.48 11.582 7.95 5.455 5.28 11.638 11.27 23.788 11.27s18.333-5.983 23.788-11.265c5.04-4.88 9.02-8.733 17.528-8.733 8.51 0 12.49 3.855 17.53 8.733 5.455 5.28 11.638 11.265 23.788 11.265s18.333-5.985 23.788-11.267c5.04-4.88 9.02-8.733 17.53-8.733 8.51 0 12.49 3.854 17.53 8.733 5.456 5.28 11.64 11.264 23.792 11.264 12.15 0 18.334-5.985 23.79-11.267 3.585-3.47 6.796-6.535 11.593-7.925 2.77 9.71 4.56 20.48 5.35 32.207-9.41 1.3-14.8 6.34-19.61 10.88-4.986 4.707-9.29 8.773-18.2 8.773-8.917 0-13.27-4.072-18.315-8.787-5.62-5.258-11.992-11.215-24.464-11.215-12.47 0-18.84 5.96-24.46 11.215-5.04 4.714-9.395 8.786-18.313 8.786s-13.273-4.072-18.315-8.787c-5.62-5.257-11.99-11.214-24.46-11.214s-18.84 5.957-24.46 11.213c-5.04 4.716-9.394 8.788-18.31 8.788-8.905 0-13.21-4.064-18.194-8.77-4.81-4.544-10.202-9.583-19.61-10.882.787-11.737 2.576-22.51 5.35-32.23zM267.58 403.75H145.17a2.118 2.118 0 0 1-2.115-2.114c0-1.166.95-2.114 2.115-2.114h122.41c1.166 0 2.115.948 2.115 2.114s-.95 2.115-2.115 2.115zm-1.31-13.228H146.482c-3.043-3.858-11.165-14.64-20.647-31.178h161.157c-9.485 16.49-17.664 27.31-20.722 31.178zm25.71-40.178H120.862a332.234 332.234 0 0 1-3.765-7.286h178.65a325.88 325.88 0 0 1-3.77 7.286zm8.11-16.286H112.75c-11.624-25.005-22.84-57.137-27.703-94.516 5.55 1.27 9.24 4.546 13.335 8.248 5.786 5.232 12.345 11.162 24.513 11.162 12.24 0 18.48-5.977 23.98-11.25 5.102-4.89 9.13-8.75 17.757-8.75 8.626 0 12.655 3.86 17.756 8.75 5.503 5.272 11.74 11.25 23.982 11.25 12.243 0 18.48-5.977 23.983-11.252 5.1-4.888 9.128-8.748 17.753-8.748 8.627 0 12.656 3.86 17.758 8.75 5.504 5.272 11.74 11.25 23.986 11.25 12.167 0 18.73-5.93 24.523-11.16 4.1-3.703 7.77-7.004 13.323-8.274-5.024 38.56-16.716 71.056-27.605 94.54zm29.975-123.333a299.298 299.298 0 0 1-1.3 19.473c-9.61 1.157-15.32 6.306-20.426 10.915-5.26 4.743-9.79 8.84-18.49 8.84-8.63 0-12.66-3.86-17.76-8.75-5.51-5.273-11.75-11.25-23.99-11.25-12.24 0-18.48 5.978-23.98 11.25-5.1 4.89-9.13 8.75-17.76 8.75s-12.656-3.86-17.757-8.75c-5.503-5.272-11.74-11.25-23.98-11.25-12.244 0-18.48 5.978-23.984 11.252-5.1 4.888-9.128 8.748-17.753 8.748-8.7 0-13.23-4.096-18.476-8.838-5.102-4.614-10.82-9.753-20.44-10.906a300.374 300.374 0 0 1-1.29-19.49c-.15-4.46-.17-8.81-.074-13.05 6.092 1.104 9.742 4.52 13.832 8.38 5.57 5.262 11.89 11.23 24.37 11.23 12.47 0 18.84-5.96 24.46-11.216 5.04-4.715 9.396-8.787 18.313-8.787s13.27 4.07 18.314 8.786c5.62 5.257 11.99 11.214 24.464 11.214 12.47 0 18.84-5.954 24.46-11.21 5.04-4.714 9.396-8.786 18.313-8.786 8.92 0 13.274 4.073 18.317 8.788 5.62 5.257 11.99 11.214 24.46 11.214 12.483 0 18.803-5.965 24.38-11.228 4.093-3.865 7.733-7.293 13.84-8.396a232.5 232.5 0 0 1-.07 13.066z"/></svg>