<svg xmlns="http://www.w3.org/2000/svg" viewBox="0 0 424.086 424.086"><path d="M28.875 147.228c-7.257 0-13.16-5.903-13.16-13.16 0-7.256 5.903-13.158 13.16-13.158 7.256 0 13.158 5.902 13.158 13.158 0 7.256-5.902 13.16-13.158 13.16zm0-17.32a4.163 4.163 0 0 0-4.16 4.16 4.164 4.164 0 0 0 4.16 4.16 4.163 4.163 0 0 0 4.158-4.16 4.162 4.162 0 0 0-4.158-4.16z"/><path d="M424.086 200.927c0-13.51-10.99-24.5-24.5-24.5h-94.518c-.852-9.54-4.478-17.358-10.82-23.276-16.39-15.29-46.165-13.23-58.877-12.34-1.82.128-12.15.33-15.96.428-23.19.573-45.093 1.11-80.97-19.71C85.157 90.6 42.597 102.21 34.24 104.99c-2.976-.025-5.01.145-5.67.21C12.786 105.37 0 118.25 0 134.07c0 15.55 12.354 28.26 27.762 28.847 40.557 19.937 47.51 86.194 48.373 96.913.03-.038.315 2.735.664 3.375a11.722 11.722 0 0 0-1.22 5.178 11.76 11.76 0 0 0 2.895 7.727 363.12 363.12 0 0 1 2.014 17.387 11.757 11.757 0 0 0-4.91 9.6c0 4.604 2.68 8.675 6.633 10.612l.49 5.72a4.5 4.5 0 0 0 4.48 4.11h9.55a4.5 4.5 0 0 0 4.485-4.115l.49-5.723c3.95-1.94 6.63-6.01 6.63-10.61 0-3.906-1.875-7.43-4.908-9.6a360.828 360.828 0 0 1 2.012-17.39 11.754 11.754 0 0 0 2.894-7.726c0-.973-.134-1.913-.357-2.818h283.69a11.646 11.646 0 0 0-.353 2.817 11.76 11.76 0 0 0 2.897 7.727 363.12 363.12 0 0 1 2.014 17.387 11.757 11.757 0 0 0-4.91 9.6c0 4.604 2.68 8.675 6.634 10.612l.488 5.72a4.5 4.5 0 0 0 4.483 4.115h9.554a4.5 4.5 0 0 0 4.48-4.11s.184-2.12.49-5.726c3.953-1.937 6.633-6.01 6.633-10.61 0-3.904-1.877-7.43-4.91-9.6a360.828 360.828 0 0 1 2.012-17.39 11.76 11.76 0 0 0 1.96-12.323 4.46 4.46 0 0 0 .935-2.72v-60.13zm-24.5-15.5c8.547 0 15.5 6.953 15.5 15.5v43.684c-17.585-9.86-56.85-12.81-80.28-12.81-18.146 0-30.23 2.53-41.92 4.97-11.758 2.46-23.917 5.01-42.77 5.01s-31.014-2.54-42.772-5c-11.688-2.442-23.772-4.97-41.918-4.97-23.402 0-62.617 2.94-80.19 12.803v-43.68c0-8.547 6.952-15.5 15.5-15.5h298.85zm-265.673-56.125c38.074 22.095 62.288 21.503 85.71 20.924 3.757-.092 14.215-.296 16.37-.444 11.547-.8 38.584-2.674 52.114 9.95 4.55 4.246 7.158 9.74 7.92 16.695H100.734c-.23 0-.46.01-.688.018-.902-24.543-8.348-43.246-22.2-55.61-5.78-5.162-12.068-8.668-18.163-11.042 17.815-.87 44.256 2.113 74.23 19.51zM9 134.067c0-10.96 8.916-19.875 19.875-19.875s19.875 8.916 19.875 19.875c0 10.96-8.916 19.875-19.875 19.875S9 145.026 9 134.067zm67.234 66.86v13.242c-6.357-19.64-17.128-40.88-35.34-53.86 9.937-4.57 16.855-14.61 16.855-26.25a28.72 28.72 0 0 0-5.84-17.377c6.595 1.954 13.716 5.282 20.005 10.92 12.2 10.933 18.636 28.02 19.182 50.79-8.737 3.746-14.873 12.43-14.873 22.525zM96.9 305.88a4.497 4.497 0 0 0-3.9 4.08c-.15 1.764-.28 3.305-.39 4.58h-1.286l-.392-4.58a4.5 4.5 0 0 0-3.9-4.08 2.817 2.817 0 0 1-2.444-2.787c0-1.244.797-2.326 1.982-2.692a4.5 4.5 0 0 0 3.158-4.67 381.233 381.233 0 0 0-1.62-15.522h7.72a382.44 382.44 0 0 0-1.62 15.524 4.5 4.5 0 0 0 3.157 4.678 2.802 2.802 0 0 1 1.982 2.694 2.817 2.817 0 0 1-2.446 2.787zm-.37-34.682h-9.124a2.822 2.822 0 0 1-2.818-2.818 2.822 2.822 0 0 1 2.818-2.818h9.123a2.822 2.822 0 0 1 2.81 2.818 2.82 2.82 0 0 1-2.82 2.818zm-11.296-14.636v-.316c0-.992 3.62-5.55 21.337-9.724 15.67-3.69 36.57-5.722 58.86-5.722 17.22 0 28.32 2.322 40.08 4.78 12.207 2.553 24.83 5.192 44.614 5.192s32.407-2.64 44.613-5.192c11.76-2.458 22.863-4.78 40.08-4.78 22.29 0 43.207 2.032 58.9 5.723 17.75 4.174 21.38 8.73 21.38 9.723v.316H85.233zM412.64 305.88a4.497 4.497 0 0 0-3.9 4.08c-.15 1.764-.28 3.305-.39 4.58h-1.287l-.392-4.58a4.5 4.5 0 0 0-3.9-4.08 2.817 2.817 0 0 1-2.44-2.787c0-1.244.8-2.326 1.98-2.692a4.5 4.5 0 0 0 3.16-4.67 382.828 382.828 0 0 0-1.62-15.522h7.73a380.5 380.5 0 0 0-1.623 15.524 4.5 4.5 0 0 0 3.157 4.678 2.802 2.802 0 0 1 1.983 2.694 2.818 2.818 0 0 1-2.447 2.787zm-.372-34.682h-9.123a2.822 2.822 0 0 1-2.818-2.818 2.822 2.822 0 0 1 2.818-2.818h9.123a2.822 2.822 0 0 1 2.818 2.818 2.822 2.822 0 0 1-2.818 2.818z"/></svg>