<svg xmlns="http://www.w3.org/2000/svg" viewBox="0 0 416.274 416.274"><path d="M394.527 310.844c0-14.632-12.23-40.103-22.213-50.544-.253-2.884.157-13.084 14.45-30.518a4.5 4.5 0 0 0-3.48-7.353H294.25a4.5 4.5 0 0 0-3.48 7.35c14.363 17.52 14.706 27.73 14.446 30.56-9.993 10.48-22.21 35.9-22.21 50.5 0 16.433 7.817 28.45 22.628 34.91 1.72 7.082 9.158 12.87 19.442 15.62a12.103 12.103 0 0 0-1.046 4.92c0 6.054 4.443 11.08 10.237 12.016v6.054c0 7.658-4.615 14.445-11.682 18.606 5.083-8.545 3.977-19.777-3.368-27.123-7.296-7.297-19.17-7.298-26.467 0-6.188 6.187-6.188 16.257 0 22.446a13.51 13.51 0 0 0 9.615 3.98 13.51 13.51 0 0 0 9.615-3.983 4.5 4.5 0 0 0-6.364-6.367 4.6 4.6 0 0 1-6.5 0 6.878 6.878 0 0 1 0-9.717c3.786-3.79 9.95-3.79 13.738 0 5.173 5.172 5.173 13.59 0 18.763-4.565 4.566-11.324 6.233-17.434 4.487-10.026-3.483-17.076-11.63-17.076-21.1v-18.85c0-20.67-12.656-35.262-36.682-42.453 14.564-6.5 22.238-18.454 22.238-34.754 0-14.632-12.23-40.102-22.213-50.544-.253-2.884.157-13.085 14.45-30.518a4.5 4.5 0 0 0-3.48-7.353h-31.472a13.88 13.88 0 0 0 .932-4.975v-10.13c0-3.66-1.424-6.983-3.733-9.477 2.31-2.49 3.733-5.81 3.733-9.47V155.7c0-3.66-1.424-6.984-3.733-9.478 2.31-2.494 3.733-5.82 3.733-9.477v-10.13c0-3.66-1.424-6.982-3.733-9.476 2.31-2.5 3.733-5.82 3.733-9.48V97.53c0-3.66-1.424-6.984-3.733-9.478 2.31-2.495 3.733-5.82 3.733-9.478v-10.13c0-3.66-1.424-6.983-3.733-9.477 2.31-2.494 3.733-5.818 3.733-9.477V39.36c0-2.307-.57-4.48-1.566-6.4 16.42-3.858 28.33-15.153 28.33-28.454a4.5 4.5 0 0 0-4.5-4.5H171.9a4.5 4.5 0 0 0-4.5 4.5c0 13.3 11.916 24.596 28.328 28.455a13.874 13.874 0 0 0-1.565 6.4v10.13c0 3.66 1.424 6.988 3.733 9.48-2.31 2.496-3.733 5.82-3.733 9.48v10.13c0 3.66 1.424 6.983 3.733 9.477-2.31 2.494-3.733 5.818-3.733 9.477v10.13c0 3.66 1.424 6.983 3.733 9.477-2.31 2.495-3.733 5.82-3.733 9.478v10.13c0 3.66 1.424 6.984 3.733 9.478-2.31 2.494-3.733 5.818-3.733 9.477v10.13c0 3.66 1.424 6.98 3.733 9.475-2.31 2.494-3.733 5.82-3.733 9.477v10.13c0 1.755.34 3.428.932 4.977H163.62a4.5 4.5 0 0 0-3.48 7.35c14.363 17.52 14.706 27.74 14.446 30.565-9.993 10.483-22.21 35.905-22.21 50.5 0 16.297 7.675 28.252 22.24 34.756-24.026 7.19-36.683 21.783-36.683 42.454v18.86c0 9.467-7.048 17.61-17.073 21.097-6.112 1.75-12.872.085-17.438-4.482-5.173-5.172-5.173-13.59 0-18.763 3.787-3.79 9.952-3.79 13.74 0a6.878 6.878 0 0 1 0 9.716 4.6 4.6 0 0 1-6.502 0 4.5 4.5 0 0 0-6.364 6.367c5.302 5.3 13.93 5.3 19.23 0 6.188-6.19 6.188-16.26 0-22.448-7.297-7.296-19.17-7.296-26.467 0-7.35 7.346-8.46 18.58-3.37 27.124-7.07-4.163-11.68-10.95-11.68-18.607v-6.054c5.79-.94 10.23-5.963 10.23-12.018 0-1.75-.38-3.414-1.05-4.92 10.284-2.75 17.72-8.536 19.44-15.62 14.81-6.465 22.63-18.478 22.63-34.915 0-14.594-12.217-40.016-22.21-50.5-.26-2.823.082-13.04 14.445-30.56a4.5 4.5 0 0 0-3.48-7.353H32.99a4.5 4.5 0 0 0-3.48 7.353c14.292 17.434 14.702 27.635 14.45 30.52-9.984 10.44-22.213 35.91-22.213 50.543 0 16.44 7.816 28.452 22.626 34.916 1.72 7.08 9.158 12.867 19.44 15.616a12.103 12.103 0 0 0-1.045 4.92c0 6.056 4.444 11.08 10.24 12.017v6.052c0 17.592 16.58 31.906 36.96 31.906a41.96 41.96 0 0 0 13.168-2.1c1.228-.34 4.187-1.576 4.438-1.757 11.52-5.41 19.358-15.957 19.358-28.05v-18.86c0-17.13 11.003-28.737 32.706-34.525 3.5 3.46 8.64 6.2 14.807 7.848a12.115 12.115 0 0 0-1.046 4.92c0 6.72 5.46 12.188 12.18 12.188h5.1c6.72 0 12.19-5.466 12.19-12.19 0-1.75-.38-3.41-1.048-4.916 6.165-1.65 11.306-4.39 14.805-7.85 21.703 5.79 32.706 17.396 32.706 34.528v18.86c0 12.094 7.837 22.64 19.36 28.05.25.18 3.21 1.417 4.44 1.757a41.965 41.965 0 0 0 13.162 2.1c20.38 0 36.96-14.315 36.96-31.908v-6.054c5.794-.94 10.24-5.962 10.24-12.017 0-1.75-.38-3.414-1.048-4.92 10.282-2.75 17.72-8.536 19.44-15.62 14.81-6.465 22.627-18.477 22.627-34.916zm-292.496-52.83h-7.2c.96-15.77 6.79-23.865 9.22-26.585h8.93c-8.537 12.29-10.675 21.19-10.94 26.58zm-8.92-26.584c-3.213 5.55-6.61 14.2-7.28 26.58H69.36c-.677-12.382-4.068-21.035-7.286-26.584H93.11zm-51.06 0h9.07c2.38 2.72 8.26 10.95 9.23 26.58h-7.36c-.26-5.39-2.4-14.293-10.935-26.584zm-11.3 79.41c0-11.755 10.91-34.716 19.25-43.83h54.987c8.358 9.125 19.29 32.09 19.29 43.83 0 13.397-6.086 22.318-18.597 27.25H49.34c-12.51-4.93-18.593-13.853-18.593-27.25zm69.03 36.25c-3.8 3.824-12.1 7.015-22.27 7.015-10.16 0-18.462-3.192-22.27-7.017h44.54zm-28.01 19.204a3.19 3.19 0 0 1 3.19-3.188h5.1a3.19 3.19 0 0 1 3.19 3.187 3.19 3.19 0 0 1-3.19 3.188h-5.1a3.19 3.19 0 0 1-3.187-3.18zM232.66 235.47h-7.36c.958-15.77 6.788-23.865 9.217-26.585h9.085c-8.538 12.29-10.676 21.194-10.94 26.585zm-32.834 0c-.677-12.383-4.068-21.036-7.286-26.585h31.033c-3.218 5.55-6.61 14.202-7.286 26.585h-16.46zm3.334-40.563v-10.13a4.983 4.983 0 0 1 4.978-4.977 4.983 4.983 0 0 1 4.977 4.977v10.13a4.982 4.982 0 0 1-4.977 4.977 4.983 4.983 0 0 1-4.978-4.977zm0-29.084v-10.13a4.983 4.983 0 0 1 4.978-4.977 4.983 4.983 0 0 1 4.977 4.977v10.13a4.982 4.982 0 0 1-4.977 4.977 4.983 4.983 0 0 1-4.978-4.977zm0-29.085v-10.13a4.983 4.983 0 0 1 4.978-4.977 4.983 4.983 0 0 1 4.977 4.98v10.13a4.982 4.982 0 0 1-4.977 4.98 4.983 4.983 0 0 1-4.978-4.973zm0-29.084v-10.13a4.983 4.983 0 0 1 4.978-4.977 4.983 4.983 0 0 1 4.977 4.977v10.13a4.982 4.982 0 0 1-4.977 4.977 4.983 4.983 0 0 1-4.978-4.97zm0-29.085V68.44a4.983 4.983 0 0 1 4.978-4.978 4.983 4.983 0 0 1 4.977 4.977v10.13a4.982 4.982 0 0 1-4.977 4.97 4.983 4.983 0 0 1-4.978-4.98zm0-29.09V39.35a4.983 4.983 0 0 1 4.978-4.976 4.983 4.983 0 0 1 4.977 4.977v10.13a4.982 4.982 0 0 1-4.977 4.98 4.983 4.983 0 0 1-4.978-4.974zM177.173 9H239.1c-3.225 9.24-16.097 16.377-30.963 16.377S180.4 18.24 177.173 9zm-4.498 199.884h8.905c2.38 2.722 8.257 10.955 9.23 26.585h-7.197c-.263-5.39-2.4-14.3-10.938-26.59zM161.377 288.3c0-11.74 10.93-34.706 19.288-43.83h54.984c8.34 9.112 19.24 32.073 19.24 43.83 0 13.396-6.085 22.317-18.594 27.248h-56.33c-12.51-4.93-18.596-13.852-18.596-27.25zm49.31 52.264c1.758 0 3.19 1.43 3.19 3.188 0 1.758-1.43 3.19-3.19 3.19h-5.1a3.193 3.193 0 0 1-3.188-3.19 3.192 3.192 0 0 1 3.18-3.188h5.1zm-2.55-9c-10.164 0-18.466-3.19-22.27-7.016h44.54c-3.803 3.825-12.105 7.016-22.27 7.016zm155.154-73.55h-7.36c.96-15.77 6.79-23.865 9.22-26.585h9.09c-8.538 12.29-10.676 21.19-10.94 26.58zm-9.08-26.585c-3.22 5.55-6.61 14.2-7.285 26.58h-16.46c-.677-12.388-4.07-21.04-7.286-26.59h31.032zm-50.9 0h8.907c2.38 2.72 8.257 10.95 9.23 26.58h-7.197c-.263-5.39-2.4-14.3-10.94-26.59zm38.015 131.68a3.19 3.19 0 0 1 3.19 3.18 3.192 3.192 0 0 1-3.19 3.19h-5.1a3.192 3.192 0 0 1-3.19-3.19 3.192 3.192 0 0 1 3.19-3.19h5.1zm-2.55-9c-10.164 0-18.466-3.2-22.27-7.02h44.54c-3.803 3.82-12.106 7.01-22.27 7.01zm28.167-16.02H310.61c-12.51-4.93-18.597-13.86-18.597-27.25 0-11.74 10.93-34.71 19.29-43.83h54.983c8.34 9.11 19.25 32.07 19.25 43.83 0 13.4-6.085 22.32-18.594 27.25z"/></svg>