<svg xmlns="http://www.w3.org/2000/svg" viewBox="0 0 437.899 437.899"><path d="M389.228 324.802h-1.666V30.552c6.42-1.936 11.11-7.898 11.11-14.94C398.672 7 391.67 0 383.062 0s-15.61 7.003-15.61 15.61c0 7.043 4.69 13.006 11.11 14.943v6.012h-78.897c-4.614-.214-17.725-1.985-24.48-7.657-13.66-11.47-32.107-13.982-55.53-14.07-.03 0-.057-.01-.087-.01-.208 0-.41.004-.617.004-.2 0-.4-.004-.61-.004-.03 0-.06.008-.09.01-23.42.088-41.87 2.6-55.53 14.07-7.86 6.6-23.25 7.588-24.49 7.657H59.34v-6.012c6.42-1.937 11.11-7.9 11.11-14.942 0-8.6-7-15.61-15.61-15.61S39.23 7.01 39.23 15.61c0 7.05 4.69 13.01 11.11 14.95v294.25h-1.665c-10.584 0-18.875 12.346-18.875 28.11v80.48a4.5 4.5 0 0 0 9 0v-18.76h360.304v18.758a4.5 4.5 0 0 0 9 0V352.91c0-15.76-8.29-28.108-18.874-28.108zm0 9c4.67 0 9.874 7.848 9.874 19.11v34.96h-11.54V333.8h1.666zm-329.892 54.07V104.02h78.396c-3.38 2.065-6.24 5.582-6.99 10.973L86.946 138.74c-2.093.976-15.563 8.003-16.045 27.42-.14 5.96 1.94 28.417 2.02 29.37a4.497 4.497 0 0 0 1.98 3.324 4.497 4.497 0 0 0 3.83.56l11.27-3.47v69.4a4.5 4.5 0 0 0 1.96 3.715c.54.36 13.53 9.01 43.01 9.01s42.465-8.65 43.003-9.01a4.5 4.5 0 0 0 1.96-3.72v-69.4l11.27 3.47a4.496 4.496 0 0 0 5.805-3.89c.09-.953 2.17-23.41 2.02-29.37-.48-19.417-13.95-26.444-16.042-27.42L139.85 115.35c1.025-4.094 4.583-4.686 6.222-4.724a4.5 4.5 0 0 0 4.5-4.5v-2.11h106.87c-3.38 2.064-6.24 5.58-6.99 10.972l-43.937 23.82a4.5 4.5 0 0 0 2.143 8.455h9.116v153.47a4.5 4.5 0 0 0 4.5 4.5h34.147c-1.645 12.928-2.636 27.845-2.636 45.04a4.5 4.5 0 0 0 4.5 4.5H366.4a4.5 4.5 0 0 0 4.5-4.5c0-80.095-21.46-110.89-30.65-120.404 20.58-22.36 17.34-54.43 17.185-55.856a4.5 4.5 0 0 0-4.474-4.01c-5.48 0-6.8-3.5-7.1-4.85v-17.88h12.49a4.5 4.5 0 0 0 2.15-8.457l-43.273-23.458c1.026-4.094 4.584-4.686 6.22-4.724a4.5 4.5 0 0 0 4.5-4.5v-2.11h50.62v283.85H59.337zM378.562 95.02h-50.65c-.345-7.703-6.7-13.87-14.488-13.87-7.786 0-14.143 6.167-14.486 13.87h-28.706c-.344-7.703-6.7-13.87-14.486-13.87-7.786 0-14.143 6.167-14.486 13.87h-90.732c-.344-7.703-6.7-13.87-14.486-13.87-7.786 0-14.143 6.167-14.486 13.87h-62.22V75.767h319.226v19.257zm-47.385 138.743c.303.21 29.75 21.777 30.704 112.01h-99.07c.958-90.233 30.4-111.8 30.67-111.984a4.498 4.498 0 0 0 .543-7.07c-16.88-15.43-18.16-39.23-17.994-48.17 8.07-1.8 11.223-8.55 11.76-12.37.025-.21.04-1.4.04-1.4 5.204 5.69 13.052 9.95 24.52 9.95s19.316-4.267 24.52-9.95c0 0 .016 1.19.045 1.4.536 3.82 3.694 10.572 11.77 12.37.187 8.933-1.06 32.682-18 48.167-1.01.924-1.525 2.27-1.436 3.634a4.55 4.55 0 0 0 1.936 3.41zM226.4 138.27l28.263-15.322 19.398 10.516-8.86 4.807h-38.8zm.372 9h52.05v17.867c-.323 1.432-1.667 4.87-7.1 4.87a4.5 4.5 0 0 0-4.474 4.008c-.155 1.425-3.395 33.496 17.186 55.855-6.742 6.98-20.09 25.414-26.72 66.364H226.77V147.27zm106.39 7.31c-4.198 7.402-11.202 11.156-20.82 11.156-9.615 0-16.62-3.753-20.817-11.157-1.456-2.57-2.347-5.18-2.89-7.31h47.415c-.543 2.13-1.433 4.74-2.888 7.3zm-31.35-16.31l-8.867-4.806 19.397-10.516 28.266 15.323H301.81zm6.316-23.274l-24.626 13.35-23.96-12.988c1.026-4.094 4.584-4.686 6.222-4.724a4.5 4.5 0 0 0 4.5-4.5v-2.11h44.854c-3.38 2.063-6.242 5.58-6.99 10.972zm-57.86-19.973a5.525 5.525 0 0 1 5.477-4.87c2.823 0 5.154 2.132 5.478 4.87h-10.956zm57.678 0a5.525 5.525 0 0 1 5.478-4.87 5.526 5.526 0 0 1 5.478 4.87h-10.956zm-166.428 0h-10.955a5.525 5.525 0 0 1 5.478-4.87 5.525 5.525 0 0 1 5.48 4.87zm37.655 51.875c.43.19 10.485 4.85 10.848 19.484.09 3.523-.81 14.94-1.49 22.795l-11.78-3.628a4.498 4.498 0 0 0-5.82 4.3v72.82c-4.31 2.06-15.78 6.4-35.96 6.4-20.208 0-31.68-4.35-35.966-6.4v-72.82a4.5 4.5 0 0 0-5.824-4.3l-11.78 3.623c-.68-7.855-1.578-19.27-1.49-22.795.362-14.634 10.42-19.29 10.81-19.467.133-.055 11.9-6.43 11.9-6.43.605 4.025 2.155 8.924 5.834 13.23 5.645 6.608 14.566 9.96 26.517 9.96 11.95 0 20.875-3.35 26.52-9.958 3.68-4.306 5.23-9.203 5.835-13.227-.005 0 11.76 6.366 11.86 6.41zm-24.077.373c-.153.2-2.775 7.4-20.137 7.4-17.37 0-19.97-7.18-20.14-7.4h40.27zm3.564-11.47a22.7 22.7 0 0 1-.138 2.48H111.4c-.102-.933-.14-1.78-.138-2.476l23.694-12.846 23.704 12.85zM376.452 15.61c0-3.645 2.966-6.61 6.61-6.61s6.61 2.966 6.61 6.61c0 3.646-2.966 6.61-6.61 6.61s-6.61-2.964-6.61-6.61zM361.58 45.566h16.982v21.2h-18.256a19.348 19.348 0 0 0 3.827-11.57 19.38 19.38 0 0 0-2.554-9.63zm-62.21-.004c.065.004 32.83.005 32.83.005a14.05 14.05 0 0 0-1.26 5.807c0 3.77 1.467 7.31 4.132 9.976a4.5 4.5 0 0 0 6.363-6.365 5.067 5.067 0 0 1-1.495-3.608c0-1.363.532-2.645 1.497-3.61a7.457 7.457 0 0 1 5.31-2.198c2.004 0 3.89.78 5.308 2.2a10.436 10.436 0 0 1 3.08 7.43 10.44 10.44 0 0 1-3.08 7.43c-2.343 2.34-6.885 3.88-12.16 4.14H328.39c-9.623-.37-29.47-2.78-39.584-15.79a110.055 110.055 0 0 0-7.712-8.93c8.903 3.055 17.738 3.483 18.277 3.51zM247.42 32.89c9.982 0 22.758 8.79 34.28 23.613 3.347 4.305 7.44 7.652 11.853 10.263h-36.907c3.565-5.01 3.444-11.46-.578-15.822a4.5 4.5 0 0 0-6.615 6.103c1.573 1.705.39 4.09-.787 5.277-.997 1.005-4.684 3.892-10.2-1.128-7.23-6.576-8.633-14.257-3.847-21.073 3.33-4.742 7.38-7.107 12.39-7.23.133-.002.27-.004.41-.004zm-28.47-9.06c7.79.014 14.945.3 21.477 1.097-5.145 1.584-9.628 4.97-13.175 10.02-7.183 10.23-5.59 22.295 4.04 31.815h-24.684c9.63-9.52 11.222-21.585 4.04-31.815-3.548-5.05-8.032-8.436-13.176-10.02 6.532-.8 13.69-1.084 21.478-1.098zm-28.064 9.06c5.01.123 9.065 2.487 12.395 7.23 4.79 6.816 3.39 14.497-3.84 21.073-5.52 5.02-9.2 2.132-10.2 1.127-1.18-1.186-2.36-3.57-.784-5.276a4.5 4.5 0 0 0-6.615-6.103c-4.02 4.36-4.143 10.82-.58 15.83h-36.92c4.416-2.61 8.515-5.954 11.86-10.262 11.68-15.025 24.656-23.833 34.69-23.61zM85.848 47.765a7.45 7.45 0 0 1 5.305-2.198c2.006 0 3.89.78 5.31 2.2a5.068 5.068 0 0 1 1.495 3.608c0 1.363-.53 2.645-1.494 3.608a4.5 4.5 0 0 0 6.363 6.365 14.01 14.01 0 0 0 4.13-9.976c0-2.037-.442-4.003-1.26-5.806 0 0 32.767 0 32.83-.004.54-.023 9.38-.45 18.285-3.512a110.052 110.052 0 0 0-7.718 8.93c-10.112 13.01-29.958 15.415-39.582 15.786H98.004c-5.276-.255-9.817-1.798-12.158-4.14a10.443 10.443 0 0 1-3.08-7.43 10.43 10.43 0 0 1 3.082-7.43zm-9.527-2.2a19.37 19.37 0 0 0-2.55 9.632 19.34 19.34 0 0 0 3.83 11.57H59.34v-21.2h16.98zM48.23 15.612c0-3.645 2.966-6.61 6.61-6.61s6.61 2.966 6.61 6.61c0 3.646-2.966 6.61-6.61 6.61s-6.61-2.964-6.61-6.61zm.445 318.192h1.664v54.07H38.8v-34.96c0-11.262 5.204-19.11 9.875-19.11zm-9.875 71.84v-8.77h360.305v8.77H38.797z"/></svg>