<svg xmlns="http://www.w3.org/2000/svg" viewBox="0 0 453.517 453.517"><path d="M287.22 444.898c-27.726-12.237-43.83-28.42-47.862-48.1-6.372-31.092 19.12-62.408 24.26-68.336a4.49 4.49 0 0 0 2.612-4.072 4.5 4.5 0 0 0-4.5-4.5h-24.073V117.61c1.89 1.295 3.996 2.02 6.25 2.02a4.46 4.46 0 0 0 3.002-1.17 24.54 24.54 0 0 0 7.49 1.17 4.5 4.5 0 0 0 0-9c-8.58 0-15.56-6.954-15.56-15.5 0-8.55 6.98-15.503 15.56-15.503 22.18 0 35.44-11.626 35.49-31.104.06-1.714.13-14.404-11.32-21.074a4.5 4.5 0 0 0-4.53 7.77c7.18 4.18 6.87 12.6 6.86 12.92a4.15 4.15 0 0 0-.01.273c0 15.455-10.22 20.625-20.66 21.872 2.8-4.65 4.77-11.555 4.78-21.806.04-1.683.14-13.465-6.06-20.2a4.5 4.5 0 0 0-6.626 6.093c3.247 3.53 3.76 11.23 3.683 13.894v.146c0 8.292-1.574 22.203-12.107 22.203-2.252 0-4.36.713-6.25 2.005V20.2a12.97 12.97 0 0 0 2.15-7.156c0-7.2-5.853-13.05-13.05-13.05-7.193 0-13.047 5.85-13.047 13.05 0 2.64.794 5.1 2.15 7.153v52.45c-1.89-1.295-3.995-2.026-6.25-2.026-10.534 0-12.107-13.91-12.107-22.202v-.136c-.078-2.67.435-10.372 3.68-13.9a4.5 4.5 0 1 0-6.622-6.094c-6.198 6.737-6.105 18.52-6.058 20.2.008 10.254 1.98 17.158 4.784 21.808-10.444-1.248-20.662-6.418-20.662-21.874 0-.09-.003-.183-.008-.273-.005-.08-.44-8.67 6.86-12.92a4.5 4.5 0 0 0-4.53-7.777c-11.453 6.67-11.385 19.36-11.322 21.078.045 19.48 13.305 31.106 35.49 31.106 8.58 0 15.562 6.953 15.562 15.5 0 8.548-6.98 15.5-15.562 15.5a4.5 4.5 0 0 0 0 9c2.612 0 5.13-.412 7.492-1.17a4.462 4.462 0 0 0 3.002 1.17c2.252 0 4.36-.715 6.25-2.01v202.27H191.78a4.5 4.5 0 0 0-4.5 4.5 4.49 4.49 0 0 0 2.615 4.076c5.145 5.917 30.625 37.146 24.265 68.3-4.02 19.694-20.126 35.89-47.87 48.135a4.5 4.5 0 0 0 3.636 8.233c15.603-6.886 27.88-15.045 36.786-24.4h40.08c8.908 9.357 21.185 17.517 36.786 24.403a4.5 4.5 0 0 0 5.934-2.3 4.503 4.503 0 0 0-2.3-5.94zM237.655 328.89h14.02c-4.122 5.44-9.545 13.484-14.02 23.13v-23.13zM226.76 9c2.23 0 4.047 1.816 4.047 4.05s-1.816 4.048-4.048 4.048a4.05 4.05 0 0 1 0-8.098zm-1.9 310.89V25.944a12.9 12.9 0 0 0 1.898.154c.646 0 1.276-.063 1.897-.154V319.89h-3.794zm3.796 9v61.65h-3.795v-61.65h3.8zm-26.814 0h14.02v23.133c-4.476-9.648-9.9-17.693-14.02-23.132zm12.154 90.84c4.242-6.28 7.175-13.013 8.77-20.19h7.985c1.6 7.177 4.53 13.91 8.77 20.19H214z"/></svg>