<svg xmlns="http://www.w3.org/2000/svg" viewBox="0 0 434.841 434.841"><path d="M420.252 380.315c-6.914-5.012-12.376-8.97 4.155-33.063 18.057-26.314 7.832-44.01 4.837-48.2v-23.06a4.5 4.5 0 0 0-4.5-4.5H247.208c6.652-10.335 17.253-30.855 18.154-57.758 1.052-31.408-14.697-40.532-22.415-43.11v-14.487l5.293-5.095a4.483 4.483 0 0 0 1.372-3.24l.007-.002v-1.684a6.985 6.985 0 0 0-6.98-6.977h-12.81c4.052-18.5 33.08-22.85 49.21-25.26 3.083-.46 5.745-.86 7.68-1.29 1.73-.387 6.33-1.4 6.33-5.708 0-3.957-2.79-6.844-5.03-9.164-.837-.866-2.236-2.314-2.413-2.83-.048-.655.81-2.577 1.32-3.726 1.293-2.906 2.903-6.52 1.58-10.158-1.345-3.69-4.94-5.44-7.826-6.844-1.1-.536-2.94-1.43-3.286-1.873-.26-.593-.117-2.664-.03-3.9.22-3.187.49-7.15-2.013-10.13-2.506-2.987-6.463-3.4-9.643-3.737-1.225-.13-3.282-.346-3.76-.65-.44-.47-1.005-2.448-1.343-3.63-.88-3.08-1.973-6.914-5.36-8.87-3.36-1.946-7.21-.99-10.304-.223-1.21.3-3.24.807-3.793.68-.565-.294-1.76-1.938-2.47-2.92-1.895-2.605-4.25-5.85-8.13-6.527-3.795-.66-7.06 1.54-9.688 3.31-1.048.708-2.795 1.886-3.437 1.956-.668-.077-2.41-1.25-3.455-1.956-2.626-1.77-5.895-3.98-9.686-3.313-3.88.68-6.236 3.92-8.13 6.53-.712.98-1.905 2.624-2.395 2.89-.636.157-2.66-.348-3.87-.648-3.095-.77-6.944-1.727-10.305.22-3.387 1.957-4.48 5.79-5.36 8.87-.34 1.18-.904 3.16-1.283 3.58-.54.354-2.597.57-3.824.7-3.18.333-7.138.75-9.646 3.735-2.506 2.98-2.23 6.943-2.01 10.13.082 1.236.226 3.307.006 3.832-.387.51-2.227 1.403-3.326 1.94-2.887 1.403-6.48 3.15-7.824 6.842-1.324 3.637.286 7.25 1.58 10.157.51 1.147 1.366 3.07 1.335 3.64-.19.6-1.59 2.048-2.43 2.914-2.24 2.32-5.03 5.21-5.03 9.167 0 4.304 4.6 5.32 6.33 5.703 1.94.427 4.6.825 7.68 1.287 16.137 2.414 45.16 6.768 49.218 25.258H192.21a6.985 6.985 0 0 0-6.977 6.977v1.685h.007a4.48 4.48 0 0 0 1.368 3.237l5.28 5.095v14.49c-7.715 2.58-23.463 11.702-22.41 43.11.9 26.9 11.5 47.42 18.154 57.76H10.1a4.5 4.5 0 0 0-4.5 4.5v23.06c-2.993 4.19-13.22 21.884 4.837 48.2 16.532 24.09 11.07 28.05 4.156 33.062-9.323 6.758-9.796 11.126-9.796 17.76a4.5 4.5 0 0 0 4.5 4.5H33.11a4.49 4.49 0 0 0 2.368-.673c7.514-4.65 19.867-18.144 12.842-35.914-1.488-3.768-2.99-7.27-4.442-10.66-5.194-12.12-9.297-21.698-5.403-26.888 4.966-6.62 12.517-8.837 34.783.564 21.6 9.12 129.555 11.38 144.162 11.38s122.563-2.26 144.164-11.38c22.27-9.4 29.82-7.185 34.785-.564 3.89 5.19-.22 14.768-5.41 26.893-1.45 3.386-2.95 6.89-4.44 10.653-7.03 17.77 5.33 31.26 12.84 35.912a4.5 4.5 0 0 0 2.37.67h23.81c2.485 0 4.5-2.077 4.5-4.563 0-6.57-.473-10.94-9.797-17.696zM278.075 88.98c-.966 2.287-1.79 4.79-1.328 7.442.554 3.154 2.813 5.494 4.808 7.56l.345.356c-1.317.214-2.786.434-4.18.643-11.348 1.7-30.168 4.52-43.142 13.26 11.38-16.95 32.468-25.68 43.497-29.26zm-26.027-35.943c.775 2.706 1.697 5.704 4.087 7.71 2.487 2.09 5.757 2.433 8.642 2.736 1.12.118 2.928.308 3.648.61.17.76.046 2.566-.03 3.686-.2 2.89-.427 6.18 1.202 8.99 1.05 1.814 2.664 3.05 4.376 4.043-6.122 2.042-14.513 5.38-22.977 10.453-12.56 7.53-21.682 16.772-27.145 27.342 5.41-34.507 20.83-56.658 28.2-65.58zm-55.233-2.763c3.02-1.1 4.937-3.74 6.628-6.067.672-.925 1.756-2.417 2.388-2.89.74.242 2.21 1.232 3.12 1.847 2.43 1.64 5.18 3.496 8.48 3.496s6.05-1.857 8.48-3.496c.91-.615 2.38-1.604 3.11-1.846.633.472 1.717 1.964 2.39 2.89 1.69 2.328 3.607 4.967 6.63 6.066 1.39.507 2.81.608 4.21.515-7.506 9.77-18.66 27.65-24.82 53.54-6.164-25.896-17.32-43.77-24.83-53.55 1.404.095 2.83-.006 4.225-.515zm-39.693 54.707a322.676 322.676 0 0 1-4.18-.64l.345-.35c1.994-2.063 4.254-4.403 4.808-7.56.463-2.647-.36-5.15-1.327-7.44 11.03 3.58 32.112 12.3 43.49 29.25-12.974-8.74-31.79-11.553-43.136-13.25zm26.718-13.7c-8.464-5.07-16.852-8.41-22.973-10.45 1.713-.99 3.327-2.23 4.378-4.043 1.63-2.817 1.403-6.1 1.203-9-.077-1.12-.202-2.924-.03-3.685.72-.302 2.527-.492 3.647-.61 2.885-.303 6.154-.647 8.64-2.735 2.39-2.007 3.312-5 4.087-7.708 7.37 8.91 22.787 31.05 28.192 65.573-5.463-10.57-14.586-19.813-27.144-27.342zm54.437 56.87l-2.95 2.84a4.5 4.5 0 0 0-1.38 3.242v15.406h-33.054V154.23a4.5 4.5 0 0 0-1.375-3.24l-2.948-2.844h41.707zm-41.636 30.49h41.55c1.304.18 9.487 1.73 14.437 12.115-1.37.863-2.43 1.877-3.32 2.74-1.665 1.61-2.27 2.12-3.87 2.12-1.605 0-2.21-.51-3.874-2.12-1.916-1.854-4.81-4.656-10.133-4.656s-8.216 2.8-10.13 4.653c-1.666 1.613-2.27 2.123-3.87 2.123-1.606 0-2.208-.51-3.874-2.123-1.917-1.855-4.81-4.657-10.134-4.657s-8.22 2.8-10.134 4.658c-1.665 1.614-2.27 2.124-3.87 2.124-1.604 0-2.207-.51-3.872-2.123-.89-.86-1.95-1.872-3.32-2.73 4.974-10.457 13.218-11.963 14.42-12.127zm-18.16 34.802c-.173-5.224.17-9.65.865-13.43 1.915 1.856 4.803 4.605 10.076 4.605 5.32 0 8.215-2.8 10.13-4.655 1.666-1.61 2.268-2.12 3.87-2.12s2.208.51 3.874 2.12c1.913 1.855 4.81 4.657 10.13 4.657s8.215-2.803 10.13-4.657c1.665-1.61 2.27-2.12 3.87-2.12 1.605 0 2.21.51 3.874 2.125 1.916 1.853 4.81 4.655 10.133 4.655 5.273 0 8.163-2.75 10.078-4.604.692 3.776 1.038 8.202.863 13.43a98.296 98.296 0 0 1-.25 4.27c-2.782.895-4.65 2.58-6.136 3.92-1.753 1.584-2.534 2.23-4.27 2.23-1.65 0-2.307-.55-3.965-2.14-1.93-1.85-4.843-4.64-10.188-4.64s-8.26 2.79-10.184 4.64c-1.657 1.59-2.313 2.14-3.96 2.14-1.643 0-2.3-.55-3.96-2.14-1.926-1.85-4.84-4.64-10.185-4.64s-8.26 2.79-10.19 4.64c-1.66 1.59-2.313 2.14-3.96 2.14-1.732 0-2.513-.646-4.265-2.23-1.484-1.34-3.356-3.028-6.143-3.924a108.812 108.812 0 0 1-.24-4.27zm1.88 16.196c1.987 1.618 4.66 3.223 8.776 3.223 5.345 0 8.258-2.79 10.186-4.64 1.658-1.587 2.314-2.136 3.96-2.136 1.644 0 2.3.55 3.96 2.138 1.927 1.85 4.84 4.64 10.186 4.64s8.26-2.79 10.187-4.64c1.658-1.587 2.314-2.136 3.96-2.136 1.644 0 2.3.55 3.96 2.14 1.927 1.85 4.84 4.64 10.187 4.64 4.106 0 6.78-1.6 8.765-3.214-4.332 21.73-14.673 37.064-18.232 41.853h-37.66c-3.567-4.77-13.914-20.06-18.238-41.863zM14.6 280.496h405.646v16.05H14.596v-16.05zm388.52 113.08c-3.32-2.42-13.428-11.124-8.228-24.28 1.44-3.644 2.915-7.09 4.34-10.417 6.34-14.8 11.35-26.487 4.338-35.84-10.78-14.373-28.233-9.613-45.486-2.328-17.67 7.46-112.85 10.672-140.662 10.672-27.814 0-122.99-3.21-140.66-10.672-17.256-7.286-34.708-12.044-45.484 2.327-7.015 9.35-2.008 21.034 4.33 35.83 1.43 3.33 2.904 6.774 4.347 10.42 5.16 13.055-4.94 21.844-8.236 24.28H14.18c.583-1.81 2.042-3.326 5.69-5.97 14.564-10.557 14.054-22.023-2.017-45.443-13.327-19.423-8.27-32.29-5.752-36.62h410.64c2.52 4.33 7.58 17.197-5.75 36.617-16.07 23.42-16.58 34.887-2.01 45.442 3.637 2.636 5.097 4.15 5.684 5.97h-17.54z"/></svg>