<svg xmlns="http://www.w3.org/2000/svg" viewBox="0 0 425.131 425.131"><path d="M373.652 219.55c-8.727 0-15.826-7.1-15.826-15.827 0-8.728 7.1-15.828 15.826-15.828 8.728 0 15.828 7.1 15.828 15.828 0 8.727-7.1 15.828-15.828 15.828zm0-22.655c-3.764 0-6.826 3.063-6.826 6.828s3.062 6.828 6.826 6.828a6.836 6.836 0 0 0 6.828-6.82 6.836 6.836 0 0 0-6.828-6.83zM51.702 219.55c-8.727 0-15.828-7.1-15.828-15.827 0-8.728 7.1-15.828 15.828-15.828 8.727 0 15.826 7.1 15.826 15.828 0 8.727-7.1 15.828-15.826 15.828zm0-22.655a6.836 6.836 0 0 0-6.828 6.828 6.836 6.836 0 0 0 6.828 6.828 6.834 6.834 0 0 0 6.826-6.82c0-3.763-3.062-6.83-6.826-6.83zm160.863 11.328c-8.727 0-15.827-7.1-15.827-15.828 0-8.727 7.1-15.826 15.827-15.826s15.827 7.1 15.827 15.82c0 8.723-7.1 15.83-15.827 15.83zm0-22.655c-3.764 0-6.827 3.063-6.827 6.826 0 3.765 3.063 6.828 6.827 6.828s6.827-3.064 6.827-6.828a6.834 6.834 0 0 0-6.827-6.826zm66.505-53.685H146.06a4.5 4.5 0 0 1-4.5-4.5V45.117a4.5 4.5 0 0 1 4.5-4.5h133.01a4.5 4.5 0 0 1 4.5 4.5v82.266a4.5 4.5 0 0 1-4.5 4.5zm-128.51-9h124.01V49.617H150.56v73.266z"/><path d="M420.63 164.24h-88.334c.006-.1 0-.192 0-.293 0-7.864-6.397-14.262-14.26-14.262H311.1c-7.863 0-14.26 6.397-14.26 14.262 0 .1-.007.194 0 .293h-16.762v-10.057a4.5 4.5 0 0 0-4.5-4.5h-46.38v-4.973h63.933a4.5 4.5 0 0 0 4.5-4.5V32.29a4.5 4.5 0 0 0-4.5-4.5H132a4.5 4.5 0 0 0-4.5 4.5v107.92a4.5 4.5 0 0 0 4.5 4.5h63.935v4.974h-46.38a4.5 4.5 0 0 0-4.5 4.5v10.057H66.682l3.4-34.09a4.5 4.5 0 0 0-4.478-4.94h-6.61l6.98-31.9a4.5 4.5 0 0 0-8.792-1.923l-7.4 33.824h-7.608l-5.068-25.062a4.5 4.5 0 0 0-8.822 1.784l4.708 23.28H27.45a4.5 4.5 0 0 0-4.478 4.948l3.4 34.096H4.5a4.5 4.5 0 0 0-4.5 4.5v69.966a4.5 4.5 0 0 0 4.5 4.5h3.542c1.617 5.06 4.63 14.48 4.663 14.563-2.172 4.8-4.428 13.563-3.766 28.86.62 14.507 6.34 105.576 6.4 106.494a4.5 4.5 0 0 0 4.49 4.22h15.23a4.5 4.5 0 0 0 4.49-4.22c.06-.918 5.772-91.987 6.4-106.494.663-15.292-1.593-24.055-3.765-28.856.033-.083 3.045-9.508 4.663-14.566h52.68a4.5 4.5 0 0 0 4.5-4.5v-18.14h217.05v18.14a4.5 4.5 0 0 0 4.5 4.5h52.9s4.623 14.454 4.67 14.567c-2.173 4.8-4.43 13.56-3.767 28.86.628 14.505 6.347 105.574 6.404 106.49a4.5 4.5 0 0 0 4.49 4.218h15.232a4.5 4.5 0 0 0 4.49-4.218c.06-.92 5.774-91.99 6.403-106.496.663-15.296-1.594-24.06-3.766-28.86a8361.56 8361.56 0 0 0 4.667-14.565h3.316a4.5 4.5 0 0 0 4.5-4.5v-69.97a4.5 4.5 0 0 0-4.5-4.5zM60.634 134.2l-2.996 30.04H35.415L32.42 134.2h28.213zM36.97 286.24c-.547 12.624-4.993 83.912-6.13 102.102h-6.78c-1.138-18.19-5.584-89.477-6.13-102.1-.68-15.69 2.015-22.97 3.447-25.676h12.145c1.432 2.706 4.127 9.985 3.448 25.675zm-2.215-34.674h-14.61l-2.662-8.36h19.935l-2.663 8.36zm60.284-17.36H9V173.24h86.04v60.965zM136.5 36.788h152.13v98.92H136.5V36.79zm68.434 107.92h15.263v4.974h-15.263v-4.973zm-50.88 13.974h117.024v5.557H154.054v-5.56zm167.038 52.882H104.04V173.24h217.05v38.326zM305.81 164.24c.006-.1 0-.192 0-.293 0-2.9 2.39-5.262 5.29-5.262h6.935c2.9 0 5.26 2.36 5.26 5.262 0 .1-.005.194 0 .293H305.81zm101.615 122c-.547 12.623-4.993 83.912-6.132 102.102h-6.778c-1.14-18.19-5.585-89.477-6.13-102.1-.68-15.69 2.015-22.97 3.447-25.676h12.145c1.43 2.706 4.126 9.985 3.448 25.674zm-2.215-34.674H390.6l-2.662-8.36h19.934l-2.662 8.36zm10.92-17.36h-86.038V173.24h86.04v60.965z"/></svg>