<svg xmlns="http://www.w3.org/2000/svg" viewBox="0 0 413.395 413.395"><path d="M393.76 36.807c-11.008 0-19.63 6.502-19.63 14.804v42.82H39.266V51.62c0-8.302-8.624-14.805-19.634-14.805S0 43.31 0 51.61v320.48a4.5 4.5 0 0 0 4.5 4.5h30.22a4.574 4.574 0 0 0 3.213-1.304 4.5 4.5 0 0 0 1.334-3.198v-10.704c.313-1.23 5.204-5.525 23.125-9.26 15.77-3.284 36.513-5.093 58.406-5.093 17.527 0 28.825 2.2 40.788 4.52 12.382 2.41 25.184 4.89 45.244 4.89 20.058 0 32.86-2.48 45.24-4.89 11.963-2.32 23.263-4.52 40.79-4.52 21.894 0 42.636 1.81 58.406 5.1 16.055 3.347 21.648 7.14 22.862 8.746v11.22a4.5 4.5 0 0 0 4.5 4.5h30.22a4.503 4.503 0 0 0 4.546-4.502V51.61c0-8.3-8.623-14.803-19.633-14.803zM30.268 367.544c-4.74-.04-20.26-.006-21.267 0V73.654c0-2.74 4.55-5.804 10.64-5.804s10.636 3.064 10.636 5.804v293.89zm0-306.387C27.22 59.7 23.584 58.85 19.633 58.85c-3.95 0-7.585.85-10.633 2.307V51.61c0-2.74 4.547-5.803 10.633-5.803 6.086 0 10.634 3.064 10.634 5.804v9.55zm9 65.248h13.927v90.765a27.038 27.038 0 0 0-13.927 6.624v-97.39zm0 117.534c0-8.55 5.954-15.71 13.927-17.61v34.05H39.267v-16.44zm0 25.44h13.927v26.98H39.267v-26.98zm334.862 80.65c-17.503-9.22-55.97-12-81.27-12-18.394 0-30.65 2.38-42.505 4.68-11.964 2.32-24.334 4.72-43.525 4.72-19.193 0-31.564-2.404-43.528-4.728-11.854-2.3-24.11-4.683-42.504-4.683-25.432 0-64.157 2.816-81.53 12.15v-21.96h334.86v21.82zm0-30.82H39.266v-13.85H374.13V319.2zM62.193 296.36V126.407h13.924v169.958H62.193zm36.847-35.98H85.117v-34.563H99.04v34.562zm-13.923 9H99.04v26.984H85.117V269.38zm13.923-52.563H85.117v-90.412H99.04v90.412zm9 79.546V126.405h13.924v169.958H108.04zm22.924-70.546h13.925v34.562h-13.93v-34.57zm0 43.562h13.925v26.98h-13.93v-26.98zm13.925-52.57h-13.93V126.4h13.92v90.413zm9 79.544v-169.95h13.92V296.36h-13.92zm22.92-26.984h13.92v26.985h-13.92v-26.98zm13.92-52.562h-13.92V126.4h13.92v90.413zm-13.926 9h13.924v34.562h-13.92v-34.56zm22.923 70.546v-169.95h13.923V296.36h-13.92zm36.846-35.984h-13.92v-34.56h13.92v34.562zm-13.923 9h13.923v26.984h-13.92v-26.98zm13.923-52.563h-13.92V126.4h13.92v90.413zm9 79.545v-169.95H259.5V296.36h-13.92zM268.5 225.81h13.925v34.56h-13.927v-34.56zm0 43.56h13.925v26.985h-13.927v-26.98zm13.925-52.562h-13.927V126.4h13.926v90.413zm9 79.546V126.402h13.922V296.36H291.43zm22.92-26.987h13.924v26.985h-13.92v-26.98zm13.924-9h-13.92v-34.56h13.92v34.563zm0-43.562h-13.92V126.4h13.92v90.412zm9 79.547v-169.95h13.93V296.36h-13.927zm36.85 0H360.2V269.37h13.93v26.985zM360.2 260.38v-34.053c7.974 1.9 13.927 9.066 13.927 17.612v16.44H360.2zm13.93-36.597a27.014 27.014 0 0 0-13.93-6.635v-90.743h13.93v97.378zm0-106.378H39.266v-13.983H374.13v13.983zm30.265 250.14c-4.74-.04-20.26-.007-21.266 0V73.655c0-2.74 4.54-5.806 10.63-5.806 6.08 0 10.63 3.06 10.63 5.8v293.89zm0-306.388c-3.05-1.458-6.683-2.306-10.634-2.306-3.95 0-7.58.85-10.63 2.31v-9.55c0-2.74 4.55-5.8 10.63-5.8 6.09 0 10.64 3.068 10.64 5.808v9.55z"/></svg>