<svg xmlns="http://www.w3.org/2000/svg" viewBox="0 0 422.43 422.43"><path d="M417.93 3.64H4.5A4.5 4.5 0 0 0 0 8.14v29.273a4.5 4.5 0 0 0 4.5 4.5h8.13c12.866 102.058-.535 190.49-.535 190.49V414.29a4.498 4.498 0 0 0 5.043 4.467c1.89-.23 46.567-6.37 69.105-70.492a4.506 4.506 0 0 0 .108-2.63c-15.09-57.75-25.67-96.288-28.71-107.303 33.99-21.988 60.828-63.16 77.73-119.35 6.69-22.238 10.63-42.645 12.894-57.452C159.12 81.83 183.248 96 211.218 96s52.093-14.165 62.96-34.474c2.26 14.814 6.2 35.218 12.89 57.455 16.9 56.19 43.735 97.37 77.725 119.36-3.043 11.016-13.618 49.554-28.716 107.3a4.506 4.506 0 0 0 .108 2.63c22.537 64.126 67.215 70.266 69.105 70.495a4.498 4.498 0 0 0 5.04-4.467v-181.89h-.016c0-.33-13.394-88.394-.522-190.49h8.135a4.5 4.5 0 0 0 4.5-4.5V8.14a4.5 4.5 0 0 0-4.5-4.5zM21.095 408.6V254.428a49.002 49.002 0 0 0 6.32 4.455l9 142.642c-6.183 3.83-11.622 5.944-15.32 7.077zm3.647-338.09c6.987 8.624 16.62 15.59 27.902 20.045-4.4 76.512-20.774 119.01-27.022 132.725a26.96 26.96 0 0 1-2.653-3.295c3.22-24.943 7.99-78.833 1.77-149.476zM61.49 93.433A80.27 80.27 0 0 0 81.697 96c4.008 0 7.935-.3 11.758-.857-6.142 51.184-20.672 85.34-32.006 105.204-9.98 17.486-19.22 27.15-22.81 30.557a29.866 29.866 0 0 1-5.62-2.124c6.05-12.55 23.562-55.09 28.46-135.346zm-13.76 147.67c.47 0 .906-.01 1.325-.02.92 3.327 2.466 8.955 4.56 16.65-20.992-1.83-30.23-12.994-32.523-16.3v-8.676c.056-.33.118-.704.183-1.1 8.996 8.068 20.008 9.445 26.455 9.445zm-2.69 154.203L36.71 263.25c1.328.476 2.728.914 4.186 1.316L62.424 376.05c-5.808 8.437-11.86 14.677-17.385 19.256zm32.253-48.737c-2.418 6.69-5.095 12.66-7.923 17.99l-18.948-98.13c1.82.22 3.71.38 5.688.47a9641.1 9641.1 0 0 1 21.183 79.66zm49.45-230.18C115.15 154.92 92.58 206.12 50.85 231.95c-.206.02-.447.04-.72.06 13.95-15.517 43.454-57.12 52.607-138.797 13.99-3.8 26.044-11.29 34.585-21.105-2.33 12.786-5.714 28.1-10.58 44.274zM81.7 87c-31.304 0-57.082-19.846-59.85-45.087h11.93c2.8 19.15 23.215 34.06 47.92 34.06 24.702 0 45.117-14.91 47.917-34.06h11.93C138.777 67.155 113 87 81.697 87zm0-28.487c12.35 0 22.698-7.12 25.23-16.6h13.57c-2.886 14.172-19.187 25.06-38.802 25.06-19.616 0-35.918-10.888-38.805-25.06h13.58c2.53 9.48 12.874 16.6 25.224 16.6zm-15.532-16.6H97.26c-2.542 4.405-8.64 7.6-15.563 7.6-6.918 0-12.992-3.196-15.53-7.6zM211.216 87c-31.305 0-57.083-19.846-59.85-45.087h11.93c2.8 19.15 23.214 34.06 47.918 34.06 24.703 0 45.118-14.91 47.917-34.06h11.93C268.3 67.155 242.52 87 211.22 87zm-.002-28.487c12.35 0 22.7-7.12 25.23-16.6h13.574c-2.887 14.172-19.188 25.06-38.803 25.06-19.616 0-35.918-10.888-38.805-25.06h13.575c2.53 9.48 12.88 16.6 25.23 16.6zm-15.562-16.6h31.125c-2.542 4.405-8.64 7.6-15.563 7.6-6.922 0-13.02-3.194-15.562-7.6zm145.078 16.6c12.35 0 22.7-7.12 25.23-16.6h13.575c-2.887 14.172-19.19 25.06-38.806 25.06-19.62 0-35.92-10.888-38.81-25.06h13.58c2.53 9.48 12.88 16.6 25.23 16.6zm-15.562-16.6h31.125c-2.543 4.405-8.64 7.6-15.563 7.6-6.92 0-13.02-3.194-15.562-7.6zm15.56 34.06c24.706 0 45.12-14.91 47.92-34.06h11.91C397.792 67.153 372.032 87 340.73 87c-31.302 0-57.08-19.846-59.846-45.087h11.93c2.8 19.15 23.214 34.06 47.917 34.06zm60.606 165.457c-2.297 3.31-11.537 14.47-32.522 16.297a4900.46 4900.46 0 0 1 4.56-16.646c.42.02.855.03 1.325.03 6.448 0 17.457-1.39 26.452-9.456.06.4.12.777.18 1.113v8.67zm-1.88-21.464a27.382 27.382 0 0 1-2.656 3.325c-6.248-13.65-22.602-55.99-27.015-132.73 11.28-4.45 20.91-11.41 27.9-20.03-6.226 70.63-1.453 124.49 1.772 149.44zm-10.04 8.835a29.53 29.53 0 0 1-5.604 2.13c-7.925-7.52-44.12-46.33-54.837-135.78 3.823.56 7.75.86 11.757.86 7.03 0 13.813-.903 20.208-2.565 4.9 80.306 22.434 122.845 28.476 135.366zm-93.677-112.23c-4.89-16.22-8.288-31.6-10.627-44.44 8.54 9.816 20.593 17.3 34.58 21.1 9.155 81.69 38.667 123.295 52.617 138.806-.277-.02-.513-.04-.723-.063-41.688-25.8-64.25-76.92-75.847-115.396zm70.58 150.35a74.255 74.255 0 0 0 5.684-.454l-18.94 98.11c-2.83-5.352-5.51-11.314-7.92-17.995a9634.577 9634.577 0 0 1 21.18-79.657zm-6.314 109.15l21.523-111.47a58.148 58.148 0 0 0 4.19-1.33l-8.326 132.01c-5.73-4.733-11.72-10.99-17.387-19.217zm26.013 25.437l8.995-142.593a49.164 49.164 0 0 0 6.33-4.462v154.16c-3.682-1.13-9.11-3.257-15.32-7.112zm27.414-368.59H9V12.64h404.43v20.273z"/></svg>