<svg xmlns="http://www.w3.org/2000/svg" viewBox="0 0 440.601 440.601"><path d="M264.122 205.314c0-22.038 3.96-41.392 9.634-47.064a4.488 4.488 0 0 0 1.317-3.182 4.5 4.5 0 0 0-7.682-3.182c-5.67 5.673-25.02 9.635-47.06 9.635s-41.39-3.96-47.06-9.63a4.5 4.5 0 0 0-6.36 6.37c12.757 12.757 12.757 81.37 0 94.125a4.485 4.485 0 0 0-1.313 3.18 4.498 4.498 0 0 0 7.68 3.184c5.67-5.673 25.023-9.634 47.06-9.634s41.39 3.96 47.065 9.633a4.488 4.488 0 0 0 3.18 1.316h.02a4.5 4.5 0 0 0 2.966-7.89c-5.57-5.914-9.436-25.072-9.436-46.854zm-3.985 39.807c-11.39-3.59-26.608-5.01-39.808-5.01-13.21 0-28.44 1.42-39.83 5.02 6.83-21.43 6.83-58.19 0-79.622 11.39 3.6 26.62 5.023 39.83 5.023 13.19 0 28.41-1.42 39.8-5.016-3.598 11.39-5.017 26.61-5.017 39.81s1.42 28.414 5.015 39.805z"/><path d="M416.815 270.572c-1.69-6.86-6.283-23.9-12.338-33.53-6.367-10.13-5.55-30.31-5.542-30.512.003-.07-.012-.134-.012-.203 0-.067.015-.133.012-.2-.01-.203-.825-20.382 5.542-30.512 2.796-4.447 5.28-10.477 7.31-16.354 1.145 3.23 2.682 6.56 4.748 9.82a4.49 4.49 0 0 0 2.676 1.95c.33.086 1.54.36 3.32.36 3.6 0 12.53-1.29 17.708-13.213a4.502 4.502 0 0 0-.06-3.713c-.36-.767-9.013-18.672-26.187-20.73-2.26-.54-15.41-3.12-33.63 4.4-3.75-.412-16.06-1.47-43.87-1.524-4.76-6.374-13.123-14.63-25.14-16.055-2.44-.59-17.612-3.65-38.763 5.126-4.084-.49-18.056-1.776-52.252-1.776-34.194 0-48.165 1.288-52.25 1.78-21.147-8.775-36.324-5.714-38.765-5.126-12.017 1.42-20.378 9.68-25.14 16.054-27.85.056-40.176 1.113-43.927 1.525-18.222-7.52-31.368-4.94-33.63-4.4C9.443 135.782.79 153.687.427 154.452a4.506 4.506 0 0 0-.06 3.715c5.18 11.926 14.108 13.214 17.707 13.214 1.774 0 2.984-.27 3.313-.36a4.497 4.497 0 0 0 2.676-1.94c2.066-3.26 3.604-6.59 4.748-9.812 2.03 5.88 4.52 11.908 7.31 16.356 6.35 10.1 5.56 30.183 5.55 30.51 0 .068.01.135.01.204 0 .066-.01.13-.01.2.01.2.826 20.38-5.54 30.51-6.055 9.63-10.647 26.672-12.338 33.53-15.3 3.53-23.017 19.518-23.357 20.24a4.506 4.506 0 0 0-.06 3.715c5.177 11.93 14.107 13.22 17.705 13.22 1.773 0 2.983-.273 3.312-.36a4.51 4.51 0 0 0 2.676-1.945c6.03-9.51 7.575-19.67 7.905-25.763 1.01.07 2.14.116 3.388.116 6.003 0 14.636-1.03 24.868-5.25 3.76.44 15.924 1.518 44.94 1.518 7.465 0 15.822-.07 22.173-.177a238.573 238.573 0 0 0-.85 3.37c-17.69 3.82-26.645 22.354-27.04 23.186a4.506 4.506 0 0 0-.06 3.715c5.84 13.448 15.85 14.9 19.885 14.9 2.025 0 3.408-.33 3.665-.396a4.505 4.505 0 0 0 2.676-1.946c7.17-11.304 8.81-23.4 9.1-30.274a54.75 54.75 0 0 0 4.62.19c6.91 0 16.89-1.196 28.747-6.115 4.085.49 18.056 1.78 52.25 1.78 34.197 0 48.17-1.29 52.254-1.78 11.857 4.92 21.835 6.117 28.746 6.117a54.75 54.75 0 0 0 4.62-.19c.29 6.876 1.93 18.974 9.1 30.278a4.495 4.495 0 0 0 2.675 1.948c.258.066 1.64.396 3.666.396 4.034 0 14.046-1.454 19.884-14.9a4.502 4.502 0 0 0-.06-3.715c-.394-.832-9.35-19.367-27.04-23.184a222.65 222.65 0 0 0-.85-3.364c6.343.105 14.673.174 22.116.174 29.015 0 41.18-1.08 44.94-1.52 10.233 4.22 18.865 5.25 24.866 5.25 1.247 0 2.375-.046 3.386-.116.33 6.09 1.87 16.25 7.9 25.76a4.498 4.498 0 0 0 2.68 1.948c.33.086 1.54.36 3.31.36 3.6 0 12.526-1.286 17.704-13.214a4.502 4.502 0 0 0-.06-3.716c-.34-.723-8.06-16.71-23.355-20.244zm14.218-114.076c-2.508 4.497-5.606 5.73-8.016 5.872-3.735-6.738-4.95-13.776-5.316-18.44 6.86 2.863 11.44 9.392 13.34 12.568zm-98.942-10.248c-3.25 6.093-7.43 7.52-10.54 7.565-4.89-8.615-6.23-17.696-6.55-23.22 9.02 3.245 14.89 11.888 17.1 15.655zm-206.42-15.662c-.32 5.525-1.66 14.61-6.55 23.227-3.11-.046-7.292-1.474-10.55-7.573 2.198-3.774 8.04-12.416 17.107-15.654zM17.59 162.368c-2.41-.142-5.508-1.376-8.016-5.87 1.905-3.184 6.477-9.708 13.33-12.57-.364 4.666-1.58 11.703-5.314 18.44zm0 136.363c-2.408-.14-5.508-1.37-8.016-5.87 1.907-3.18 6.485-9.72 13.35-12.57-.357 4.65-1.567 11.67-5.333 18.45zm87.58-31.67c-34.585 0-44.738-1.56-44.823-1.57a4.496 4.496 0 0 0-2.52.307c-10.98 4.73-19.83 5.203-24.782 4.933 1.885-7.3 5.88-21.206 10.71-28.89 7.574-12.05 7.013-33.098 6.922-35.5.09-2.406.65-23.454-6.923-35.504-4.823-7.675-8.82-21.59-10.706-28.89 4.965-.28 13.81.2 24.783 4.93.764.33 1.61.437 2.43.32.106-.015 9.84-1.364 38.82-1.565-.084.774.005 1.564.32 2.29 5.84 13.45 15.85 14.9 19.884 14.9 2.023 0 3.406-.33 3.663-.395a4.505 4.505 0 0 0 2.674-1.947c2.8-4.417 4.75-8.953 6.114-13.254 1.974 5.93 4.365 12.136 7.06 17.266-20.17 7.412-64.774 5.386-73.736-3.58a4.5 4.5 0 0 0-6.366 6.363c4.78 4.78 8.12 21.275 8.12 40.115s-3.34 35.336-8.12 40.116a4.5 4.5 0 0 0 3.185 7.68 4.48 4.48 0 0 0 3.18-1.315c8.37-8.37 49.5-10.85 71.03-4.47-2.443 5.663-4.55 11.915-6.21 17.44-6.46.13-16.31.22-24.705.22zm39.95-38.1c-2.34-14.54-2.07-33.3.66-46.8 2.03 10.67 1.603 21.49 1.593 21.73-.003.07.01.137.01.205s-.02.135-.014.204c.206 4.57-.017 15.24-2.254 24.67zM71.728 174c18.5 5.545 48.69 5.388 66.78.054-5.11 17.493-5.368 47.1-.34 65.51.122.45.317.857.555 1.23-16.9-4.986-47.968-5.69-66.994-.033 5.42-18.37 5.42-48.39-.01-66.76zm47.39 138.053c-3.11-.046-7.3-1.474-10.55-7.573 2.19-3.774 8.032-12.416 17.1-15.654-.324 5.527-1.66 14.61-6.55 23.228zm155.87-38.302a4.537 4.537 0 0 0-2.51-.302c-.118.016-11.9 1.84-52.15 1.84-40.247 0-52.03-1.822-52.13-1.84a4.488 4.488 0 0 0-2.52.307c-13.53 5.833-24.31 6.153-29.96 5.726 2.096-8.24 6.89-25.283 12.73-34.57 8.7-13.847 8.02-38.18 7.92-40.814.1-2.636.78-26.967-7.92-40.814-5.84-9.285-10.63-26.325-12.73-34.57 5.663-.422 16.436-.102 29.96 5.728a4.56 4.56 0 0 0 2.51.31c.11-.02 11.893-1.846 52.14-1.846 40.24 0 52.03 1.825 52.13 1.84a4.47 4.47 0 0 0 2.52-.305c13.53-5.83 24.3-6.15 29.96-5.728-2.1 8.24-6.885 25.274-12.73 34.573-8.704 13.848-8.022 38.18-7.92 40.815-.1 2.635-.783 26.966 7.92 40.812 5.847 9.297 10.64 26.367 12.736 34.6-5.61.44-16.31.132-29.968-5.755zm93.883-32.99c-19.02-5.65-50.09-4.95-66.99.04.24-.374.44-.78.56-1.23 5.03-18.41 4.775-48.02-.34-65.51 18.096 5.33 48.28 5.49 66.786-.056-5.43 18.37-5.434 48.386-.007 66.76zm-75.59-36.67c0-.07.02-.13.02-.2-.006-.16-.44-10.913 1.566-21.58 2.697 13.47 2.96 32.1.64 46.59-2.722-11.51-2.216-24.342-2.205-24.6.003-.07-.01-.134-.01-.203zm38.81 100.4c-3.25 6.096-7.43 7.52-10.54 7.567-4.89-8.616-6.23-17.697-6.55-23.22 9.02 3.244 14.89 11.89 17.1 15.654zm50.7-38.693a4.57 4.57 0 0 0-2.506-.31c-.1.017-10.252 1.58-44.84 1.58-8.37 0-18.19-.09-24.65-.223-1.66-5.53-3.77-11.786-6.212-17.455 21.547-6.36 62.615-3.88 70.98 4.485.88.88 2.03 1.32 3.18 1.32a4.5 4.5 0 0 0 3.184-7.68c-4.78-4.78-8.12-21.278-8.12-40.118 0-18.84 3.34-35.336 8.12-40.12a4.5 4.5 0 0 0-6.366-6.36c-8.956 8.957-53.495 10.99-73.688 3.597 2.696-5.134 5.09-11.35 7.065-17.284 1.367 4.3 3.318 8.835 6.118 13.25a4.5 4.5 0 0 0 2.677 1.95c.258.064 1.64.394 3.666.394 4.033 0 14.045-1.452 19.883-14.9a4.48 4.48 0 0 0 .32-2.29c28.934.2 38.66 1.55 38.753 1.564a4.48 4.48 0 0 0 2.438-.32c10.985-4.733 19.83-5.205 24.786-4.934-1.888 7.302-5.886 21.217-10.71 28.89-7.575 12.05-7.013 33.1-6.92 35.503-.093 2.403-.655 23.45 6.92 35.5 4.83 7.685 8.83 21.628 10.715 28.92-4.912.287-13.69-.18-24.79-4.962zm40.236 32.943c-3.735-6.74-4.95-13.778-5.316-18.443 6.857 2.865 11.43 9.395 13.333 12.57-2.51 4.498-5.606 5.733-8.016 5.874z"/></svg>