<svg xmlns="http://www.w3.org/2000/svg" viewBox="0 0 433.38 433.38"><path d="M379.73 181.44a4.57 4.57 0 0 1-3.19-1.31c-.83-.84-1.31-2-1.31-3.19 0-1.18.48-2.34 1.31-3.18.84-.84 2-1.32 3.19-1.32 1.18 0 2.34.48 3.18 1.32.84.84 1.32 2 1.32 3.18 0 1.19-.48 2.35-1.32 3.19-.84.83-2 1.31-3.18 1.31z"/><path d="M415.75 165.444c-9.783-3.91-23.672-7.4-41.283-10.38-14.422-2.437-30.75-4.434-48.412-5.95l-24.774-42.07a4.503 4.503 0 0 0-4.76-2.13c-41.71 8.41-56.74 32.282-60.87 40.792-3.9.037-7.78.12-11.622.242l-22.11-23.093a4.488 4.488 0 0 0-3.654-1.37c-58.055 5.245-91.682 32.773-93.084 33.94a4.5 4.5 0 0 0-.94 5.83l.554.896a617.47 617.47 0 0 0-20.69 5.26C48.69 133.79 6.117 135.39 4.29 135.47A4.5 4.5 0 0 0 0 139.96c0 21.495 7.895 36.177 11.74 42.056C7.896 187.894 0 202.576 0 224.07a4.5 4.5 0 0 0 4.288 4.495c.19.01.83.034 1.858.034 8.836 0 46.517-1.91 78.287-32.32a652.043 652.043 0 0 0 36.377 8.9c3.906 4.89 19.162 22.3 40.12 24.34a40.627 40.627 0 0 0 14.925-1.308v70.024h-21.58a4.5 4.5 0 0 0-4.5 4.5v21.31a4.5 4.5 0 0 0 4.5 4.5h160.89a4.5 4.5 0 0 0 4.5-4.5v-21.31a4.5 4.5 0 0 0-4.5-4.5h-21.58v-48.11c.39.104.787.162 1.184.162a4.49 4.49 0 0 0 3.3-1.45c.506-.55 11.82-13.006 15.86-32.98 22.333-1.587 42.863-3.91 60.53-6.897 17.61-2.976 31.5-6.47 41.28-10.38 11.865-4.74 17.63-10.16 17.63-16.57s-5.766-11.83-17.63-16.572zm-120.575-51.036l19.928 33.842c-21.66-1.57-45.045-2.447-69.192-2.56 5.38-8.65 18.95-24.333 49.27-31.282zm-98.257 16.247l15.132 15.807c-37.218 2.012-71.035 7.63-97.99 13.57l-.01-.017c9.253-6.54 38.652-24.87 82.868-29.36zM9.138 219.492c1.3-21.56 11.4-34.374 11.604-34.63a4.5 4.5 0 0 0-.005-5.702c-.11-.134-10.304-12.8-11.602-34.622 10.794.555 39.405 4.16 64.703 25.77-14.552 4.27-22.956 7.397-23.22 7.497a4.5 4.5 0 0 0-2.837 5.018c.37 1.98 2.05 3.01 3.96 3.668.75.18 16.945 5.28 22.51 6.9-25.4 21.92-54.258 25.55-65.103 26.11zm152.71 1.082c-10.337-.995-19.267-6.845-25.49-12.254 15.713 2.96 31.323 5.28 46.8 6.932-6.954 4.225-14.09 6.018-21.31 5.322zm34.69-4.075c14.805 1.22 29.485 1.85 44.005 1.85 12.69 0 25.19-.21 37.363-.62-1.802 3.89-4.314 8.72-6.935 11.86a4.502 4.502 0 0 0 1 6.65l12.62 8.26v53.74h-99.73v-73.6c3.977-2.08 7.876-4.797 11.687-8.14zm114.126 90.74v12.31h-151.89v-12.31h151.89zM293.8 239.78l-12.976-8.492c3.108-4.865 5.693-10.605 7.09-13.94a976.07 976.07 0 0 0 16.656-.863c-2.68 10.973-7.782 19.18-10.77 23.295zm46.416-35.26c-29.55 3.148-63.833 4.835-99.672 4.835-55.98 0-114.353-9.268-173.604-27.552 27.53-8.687 95.22-27.127 173.604-27.127 35.843 0 70.128 1.686 99.68 4.837a45.91 45.91 0 0 0-.008 45.006zm59.515-10.153c-6.95 1.908-15.72 3.857-26.76 5.725-7.15 1.21-14.78 2.306-22.82 3.29-4.404-6.163-6.82-13.657-6.82-21.367 0-7.708 2.41-15.202 6.82-21.366 8.04.98 15.67 2.08 22.82 3.29 19.52 3.3 31.97 6.85 39.73 9.98-4.63 3.372-9.76 9.47-12.96 20.44zm10.84-3.438c3.95-8.61 9.16-11.18 11.6-11.93 1.608 1.3 2.22 2.34 2.22 3.01 0 1.504-3.095 4.92-13.81 8.91z"/></svg>