<svg xmlns="http://www.w3.org/2000/svg" viewBox="0 0 425.45 425.45"><path d="M267.087 74.755c6.36 3.934 13.87 6.26 21.68 6.26 22.346 0 40.525-18.18 40.525-40.524 0-21.74-17.22-39.54-38.737-40.48-.147-.01-155.51-.01-155.658 0-21.52.94-38.737 18.74-38.737 40.48 0 22.35 18.18 40.53 40.522 40.53 7.808 0 15.316-2.324 21.674-6.255 1.983 1.02 5.213 3.325 7.05 8.02v231.25c-8.99.34-16.204 7.737-16.204 16.808 0 7.594 5.054 14.02 11.973 16.116.516.35 1.097.6 1.734.71.46.65 1.27 2.524 1.27 5.46 0 2.86-.77 4.7-1.23 5.4h-7.37c-9.29 0-16.84 7.553-16.84 16.84v10.395c0 2.83.71 5.496 1.94 7.84H122.7a4.5 4.5 0 0 0-4.5 4.5v22.856a4.5 4.5 0 0 0 4.5 4.5h180.044a4.5 4.5 0 0 0 4.5-4.5V398.1a4.5 4.5 0 0 0-4.5-4.5H284.76a16.725 16.725 0 0 0 1.95-7.84v-10.4c0-9.286-7.554-16.84-16.84-16.84h-7.378c-.467-.696-1.23-2.537-1.23-5.397 0-2.937.808-4.81 1.27-5.46a4.46 4.46 0 0 0 1.73-.706c6.925-2.09 11.983-8.523 11.983-16.12 0-9.07-7.214-16.467-16.203-16.806V82.78c1.836-4.71 5.06-7.008 7.042-8.025zm-15.544-65.79a119.697 119.697 0 0 0-3.565 2.166c-14.15 8.95-21.986 10.4-35.25 10.41-13.266 0-21.104-1.45-35.253-10.4a119.697 119.697 0 0 0-3.565-2.165h77.633zm46.704 407.485H127.204v-13.856h171.043v13.856zm-28.375-48.933c4.323 0 7.84 3.517 7.84 7.84v10.397c0 4.323-3.517 7.84-7.84 7.84H155.58c-4.324 0-7.84-3.517-7.84-7.84v-10.397c0-4.323 3.516-7.84 7.84-7.84h114.29zm-16.984-9h-80.335c.403-1.644.627-3.454.627-5.396 0-1.96-.228-3.78-.638-5.44h80.36a22.645 22.645 0 0 0-.64 5.45c0 1.943.224 3.753.626 5.397zm14.36-27.682c0 4.323-3.518 7.84-7.84 7.84h-93.364c-4.323 0-7.84-3.517-7.84-7.84 0-4.322 3.517-7.84 7.84-7.84h93.363c4.323 0 7.84 3.518 7.84 7.84zm-36.25-239.27c-7.028 0-12.747 5.718-12.747 12.746V314h-11.04V104.31c0-7.027-5.72-12.746-12.746-12.746-7.03 0-12.75 5.72-12.75 12.747V314h-7.3V86.71h76.638v227.286h-7.296V104.31c0-7.028-5.72-12.746-12.75-12.746zm3.75 12.746V314h-7.497V104.31c0-2.065 1.69-3.746 3.75-3.746s3.75 1.68 3.75 3.747zm-36.546 0V314h-7.496V104.31a3.752 3.752 0 0 1 3.748-3.746 3.75 3.75 0 0 1 3.748 3.747zm-25.185-26.6a24.585 24.585 0 0 0-2.06-3.53h83.537a24.547 24.547 0 0 0-2.06 3.538h-79.417zm-3.903-12.53c3.03-3.87 5.28-8.27 6.475-12.97h74.27c1.19 4.704 3.44 9.1 6.47 12.976h-87.22zm88.93-18.02l-.002-.01v-.01c-.865-6.824 2.838-15.03 6.702-18.12 7.77-6.213 18.43-5.7 25.35 1.21 5.058 5.06 5.058 13.29 0 18.35-3.696 3.7-9.71 3.7-13.406 0a6.692 6.692 0 0 1 0-9.45 4.454 4.454 0 0 1 6.288 0 4.5 4.5 0 1 0 6.364-6.362c-5.243-5.243-13.773-5.243-19.017 0-6.115 6.116-6.115 16.066 0 22.18a18.36 18.36 0 0 0 13.067 5.413 18.36 18.36 0 0 0 13.067-5.412c8.568-8.566 8.568-22.508 0-31.076-10.22-10.22-25.922-11.006-37.336-1.876-5.59 4.48-9.55 13.11-10.12 21.215h-72.55c-.56-8.107-4.52-16.736-10.12-21.214-11.41-9.13-27.11-8.34-37.33 1.878-8.57 8.57-8.57 22.51 0 31.08a18.36 18.36 0 0 0 13.07 5.413 18.36 18.36 0 0 0 13.067-5.41c6.116-6.115 6.116-16.064 0-22.18-5.242-5.244-13.772-5.244-19.016 0a4.5 4.5 0 1 0 6.365 6.363 4.454 4.454 0 0 1 6.288 0 6.692 6.692 0 0 1 0 9.45c-3.694 3.696-9.71 3.696-13.404 0-5.06-5.06-5.06-13.29 0-18.35 6.92-6.917 17.58-7.427 25.35-1.212 3.863 3.09 7.566 11.294 6.703 18.12v.02c-1.655 13.478-15.726 24.863-30.727 24.863-17.382 0-31.524-14.14-31.524-31.522 0-17.37 14.12-31.502 31.486-31.523h9.87c7.873.3 15.94 3.317 26.147 9.77 15.835 10.02 25.536 11.79 40.03 11.798h.066c14.493-.006 24.194-1.78 40.03-11.796 10.204-6.455 18.27-9.47 26.145-9.77h9.87C306.18 9.007 320.3 23.14 320.3 40.51c0 17.383-14.14 31.525-31.523 31.525-15 0-29.07-11.388-30.723-24.865z"/></svg>