<svg xmlns="http://www.w3.org/2000/svg" viewBox="0 0 426.799 426.799"><path d="M312.873 156.926a4.506 4.506 0 0 0-5.517-3.167c-1.113.3-27.377 7.5-38.853 18.98-6.81 6.81-47.39 7.71-55.096 7.71s-48.294-.9-55.11-7.71c-11.478-11.48-37.74-18.68-38.854-18.98a4.504 4.504 0 0 0-5.52 3.16 4.5 4.5 0 0 0 3.17 5.52c6.933 1.874 26.708 8.523 34.84 16.655 8.753 8.752 34.79 10.152 50.55 10.152h21.834c15.76 0 41.798-1.4 50.55-10.154 9.778-9.778 34.59-16.59 34.84-16.656a4.502 4.502 0 0 0 3.166-5.52z"/><path d="M329.213 159.304c-7.857-17.185-10.038-29.432-13.652-49.723-.78-4.39-1.62-9.13-2.6-14.36l-.372-2.01C306.95 62.958 295.238 0 213.4 0c-81.832 0-93.55 62.95-99.18 93.204l-.375 2.014c-.98 5.23-1.826 9.978-2.61 14.37-3.612 20.288-5.794 32.533-13.648 49.716-5.777 12.637-6.793 23.495-3.02 32.273 3.5 8.145 10.982 14.23 22.242 18.092 6.82 2.33 19.35 3.9 33.27 4.94l-39.92 206.83a4.504 4.504 0 0 0 4.42 5.35h15.353a4.5 4.5 0 0 0 4.386-3.49l24.306-105.22 54.766-39.804 54.77 39.803L292.47 423.3a4.5 4.5 0 0 0 4.386 3.487h15.36a4.502 4.502 0 0 0 4.417-5.355l-39.913-206.83c13.92-1.04 26.448-2.603 33.27-4.94 11.26-3.86 18.742-9.948 22.242-18.093 3.768-8.78 2.753-19.64-3.024-32.276zM156.37 287.89l-.695.5a4.5 4.5 0 0 0-1.03 6.278c.038.055.084.103.125.154l-4.15 17.965-1.11.807a4.5 4.5 0 0 0-.63 6.725l-22.517 97.47h-6.33l16.316-84.54h3.24a4.5 4.5 0 0 0 0-9h-1.51l16.99-88.03h3.22a4.5 4.5 0 0 0 0-9h-1.49l2.32-12.02c4.626.27 9.3.49 13.877.67l-.667 2.884a4.47 4.47 0 0 0-3.342 1.844 4.5 4.5 0 0 0 1.03 6.28l.375.27-2.04 8.83a4.467 4.467 0 0 0-3.035 1.803 4.5 4.5 0 0 0 .995 6.287l.148.105-10.095 43.71zm71.022-30.898l-6.277-4.508 27.36-19.644 1.747 7.56-22.83 16.592zm25.03-7.064l6.933 30.013-24.26-17.41 17.327-12.593zm-39.023-2.983l-32.88-23.606 1.65-7.15c13.96.41 25.94.48 31.23.48 5.28 0 17.26-.07 31.23-.48l1.65 7.15-32.88 23.6zm-7.72 5.54l-6.28 4.507-22.83-16.59 1.745-7.56 27.36 19.642zm-13.98 10.037l-24.26 17.418 6.93-30.01 17.324 12.59zm-29.98 42.198l2.65-11.5 34.994-25.125 6.374 4.63-44.023 31.995zm51.68-37.558l-6.33-4.597 6.322-4.54 6.322 4.54-6.326 4.597zm7.65 5.564l6.37-4.63 35 25.125 2.652 11.5-44.028-31.99zm67.66 51.533h-1.456a4.5 4.5 0 0 0 0 9h3.193l16.315 84.54h-6.33l-22.52-97.48a4.5 4.5 0 0 0-.63-6.73l-1.11-.81-4.15-17.97c.04-.05.088-.098.127-.15a4.5 4.5 0 0 0-1.03-6.28l-.696-.498-10.096-43.713.145-.104a4.5 4.5 0 0 0 .994-6.286 4.476 4.476 0 0 0-3.03-1.803l-2.04-8.833.37-.265a4.498 4.498 0 0 0 1.032-6.28c-.813-1.13-2.053-1.75-3.34-1.846l-.668-2.888c4.577-.18 9.25-.4 13.875-.668l2.32 12.017h-1.49a4.5 4.5 0 0 0 0 9h3.23l16.985 88.03zm35.25-136.24c-2.457 5.71-8.14 10.13-16.897 13.13-20.534 7.04-92.9 6.52-93.635 6.512l-.02.002-.017-.003h-.04c-.73.015-73.095.53-93.636-6.513-8.755-3-14.438-7.42-16.89-13.13-2.73-6.347-1.74-14.75 2.94-24.98 8.33-18.22 10.712-31.61 14.322-51.88.776-4.367 1.62-9.09 2.593-14.29l.377-2.025C128.655 64.85 139.047 9 213.4 9c74.354 0 84.747 55.85 90.33 85.853l.378 2.023c.975 5.198 1.814 9.917 2.593 14.283 3.61 20.27 6 33.66 14.33 51.88 4.68 10.23 5.67 18.63 2.94 24.98z"/></svg>