<svg xmlns="http://www.w3.org/2000/svg" viewBox="0 0 440.851 440.851"><path d="M220.426 197.24c-33.72 0-61.152-32.72-61.152-72.937 0-40.218 27.433-72.938 61.152-72.938 33.718 0 61.15 32.72 61.15 72.938s-27.432 72.938-61.15 72.938zm0-136.876c-28.757 0-52.152 28.683-52.152 63.938 0 35.256 23.395 63.938 52.152 63.938 28.756 0 52.15-28.683 52.15-63.938s-23.394-63.938-52.15-63.938z"/><path d="M315.518 261.876c4.936-3.515 8.165-9.273 8.165-15.78 0-10.69-8.696-19.385-19.385-19.385h-11.376c-1.746-.8-6.476-3.31-8.132-7.65-1.11-2.9-.67-6.19 1.343-10.07 13.593-26.16 9.923-47.84 8.704-53.15 2.93-9.863 4.53-20.475 4.53-31.53 0-35.082-16.078-65.76-39.88-82.04-4.483-17.99-12.094-24.77-17.84-27.27.153-.24.292-.49.4-.76a4.5 4.5 0 0 0-.85-4.67c-.354-.39-8.79-9.57-20.772-9.57-11.984 0-20.417 9.18-20.77 9.57a4.5 4.5 0 0 0-.848 4.67c.106.27.246.52.398.76-5.746 2.5-13.357 9.28-17.84 27.268-23.804 16.28-39.882 46.955-39.882 82.04 0 11.02 1.592 21.605 4.506 31.446-1.25 5.53-4.78 27.25 8.72 53.24 2.012 3.88 2.45 7.17 1.342 10.07-1.658 4.34-6.39 6.858-8.133 7.657h-11.37c-10.69 0-19.385 8.697-19.385 19.386 0 6.508 3.234 12.263 8.17 15.78-5.446 9.028-15.166 33.86 2.784 79.663 16.106 41.094 11.727 54.71 4.855 67.12-6.322 11.414-6.322 17.494-6.322 27.567v.125a4.5 4.5 0 0 0 4.5 4.5h22.12a4.5 4.5 0 0 0 3.775-2.05c.58-.906 14.31-22.582 8.66-58.156-1.42-8.96-2.95-17.796-4.426-26.34-4.17-24.135-7.774-44.98-7.085-57.057.314-5.51 1.623-12.61 6.067-15.158 4.48-2.57 11.45-.03 16.507 2.556 14.775 7.55 27.23 12.23 43.648 12.23 16.42 0 28.876-4.68 43.646-12.23 5.06-2.585 12.026-5.126 16.51-2.557 4.444 2.55 5.752 9.647 6.066 15.154.69 12.08-2.916 32.93-7.088 57.07-1.476 8.54-3.003 17.37-4.424 26.33-5.644 35.573 8.08 57.25 8.67 58.155a4.5 4.5 0 0 0 3.775 2.05h22.12a4.5 4.5 0 0 0 4.5-4.5v-.11c0-10.08 0-16.16-6.324-27.58-6.87-12.406-11.25-26.02 4.857-67.12 17.94-45.782 8.233-70.624 2.787-79.663zm-37.372-57.037c-3.238 6.23-3.82 12.12-1.733 17.51.63 1.62 1.473 3.06 2.424 4.36h-7.015c-2.223-1.7-7.63-7.19-2.69-17.92.877-1.9 1.785-3.73 2.663-5.495 2.39-4.81 4.498-9.055 4.993-12.956a94.416 94.416 0 0 0 10.173-15.276c-.67 8.14-2.94 18.47-8.81 29.766zM236.34 22.7c2.348.46 7.45 2.712 11.666 13.12-5.984-2.68-12.31-4.51-18.877-5.376-.29-.257-.56-.625-.7-1.225-.28-1.18.05-2.71.82-3.81 1.26-1.797 3.94-3.33 7.09-2.71zM220.424 9c3.255 0 6.205 1.104 8.555 2.41-4.99 3.708-7.68 9.383-8.49 11.338l-.06.133-.01.03v-.002a8.26 8.26 0 0 0-.07-.166c-.83-1.97-3.51-7.625-8.48-11.323 2.35-1.306 5.3-2.41 8.55-2.41zM204.51 22.704c3.15-.617 5.83.918 7.09 2.712.77 1.095 1.1 2.625.82 3.807-.142.6-.415.968-.7 1.225-6.565.866-12.892 2.697-18.876 5.375 4.216-10.406 9.318-12.66 11.667-13.12zm15.915 16.167c38.566 0 69.94 38.33 69.94 85.44s-31.374 85.435-69.94 85.435c-38.567 0-69.943-38.325-69.943-85.433s31.376-85.432 69.943-85.432zm39.993 187.84h-79.99c2.65-5.16 3.625-12.33-.374-21.28 11.82 8.45 25.628 13.31 40.37 13.31s28.548-4.86 40.367-13.31c-3.99 8.95-3.02 16.12-.37 21.29zM153.94 175.18a94.278 94.278 0 0 0 10.12 15.174c.496 3.9 2.6 8.145 4.993 12.956.878 1.766 1.786 3.592 2.662 5.492 4.896 10.627-.398 16.138-2.706 17.914h-6.99a18.91 18.91 0 0 0 2.41-4.36c2.09-5.386 1.504-11.277-1.734-17.51-5.8-11.166-8.07-21.483-8.76-29.664zm-17.39 60.536h167.747c5.725 0 10.384 4.66 10.384 10.386 0 5.725-4.66 10.383-10.38 10.383H136.55c-5.726 0-10.385-4.658-10.385-10.384s4.66-10.38 10.385-10.38zM300 413.024c4.326 7.81 5.05 12.124 5.173 18.83h-14.957c-2.955-5.79-10.357-23.567-6.194-49.8 1.412-8.895 2.933-17.695 4.404-26.205 4.267-24.69 7.952-46.01 7.203-59.12-.64-11.24-4.2-18.798-10.58-22.45-6.41-3.67-14.848-2.88-25.08 2.35-16.24 8.3-26.59 11.24-39.55 11.24-12.96 0-23.31-2.942-39.55-11.244-10.24-5.233-18.677-6.024-25.08-2.35-6.38 3.655-9.937 11.21-10.58 22.45-.75 13.107 2.936 34.422 7.2 59.102 1.474 8.514 2.995 17.32 4.407 26.22 4.135 26.064-3.268 43.972-6.206 49.796h-14.94c.12-6.706.844-11.017 5.17-18.83 7.7-13.904 13.163-30.085-4.346-74.765-17.62-44.95-6.45-67.21-2.787-72.777h173.42c3.69 5.61 14.82 27.87-2.778 72.772-17.515 44.685-12.05 60.864-4.35 74.766z"/></svg>