<svg xmlns="http://www.w3.org/2000/svg" viewBox="0 0 425.234 425.234"><path d="M424.91 75.475c-.57-1.422-5.852-13.988-15.66-17.206-4.382-1.44-8.992-.77-13.292 1.9-1.555.94-37.72 24.28-42.552 150.95h-18.35c5.395-34.71 1.736-58.84-.645-69.38h7.85a4.5 4.5 0 0 0 4.41-3.6l3.89-18.868a4.5 4.5 0 0 0-4.406-5.41H79.1a4.498 4.498 0 0 0-4.407 5.41l3.883 18.866a4.5 4.5 0 0 0 4.408 3.592h7.85c-2.38 10.533-6.032 34.67-.638 69.38H71.832C67.002 84.438 30.83 61.11 29.32 60.198c-4.345-2.7-8.956-3.366-13.337-1.93C6.173 61.49.893 74.055.323 75.478a4.505 4.505 0 0 0-.21 2.673l5.647 24.78a4.5 4.5 0 0 0 6.41 3.02l8.41-4.222c21.37 46.786 21.67 96.54 21.3 110.044-6.27 1.875-10.86 7.69-10.86 14.567 0 4.7 2.145 8.905 5.504 11.697-4.1 7.48-10.007 25.61 2.46 57.427 12.315 31.414 7.464 40.174 3.566 47.213-4.708 8.497-4.708 13.25-4.708 20.53a4.5 4.5 0 0 0 4.5 4.5h15.91a4.5 4.5 0 0 0 3.775-2.05c.433-.67 10.558-16.658 6.423-42.723-1.024-6.458-2.124-12.82-3.187-18.97-2.86-16.567-5.567-32.215-5.08-40.76.295-5.16 1.62-8.67 3.733-9.88 2.135-1.22 5.923-.56 10.673 1.87 7.17 3.665 16.61 7.826 27.613 8.74 8.407 39.025 4.165 51.71-2.632 64.26-7.795 14.4-7.795 22.104-7.795 34.864v.147a4.5 4.5 0 0 0 4.5 4.5h21.77a4.5 4.5 0 0 0 3.8-2.09c.73-1.145 17.757-28.65 10.726-73.97-1.23-7.904-2.947-18.983-4.444-31.68 3.114-1.22 6.5-2.764 10.405-4.76 4.75-2.43 8.54-3.09 10.676-1.87 2.112 1.21 3.438 4.72 3.732 9.88.486 8.543-2.22 24.19-5.08 40.756-1.064 6.15-2.164 12.514-3.188 18.97-4.136 26.065 5.992 42.054 6.425 42.72a4.498 4.498 0 0 0 3.775 2.055h15.914c2.484 0 4.5-2.092 4.5-4.58 0-7.194 0-11.95-4.708-20.45-4.787-8.642-7.823-18.16 3.563-47.212 12.47-31.818 6.566-49.958 2.466-57.435 3.357-2.792 5.5-6.997 5.5-11.696 0-8.386-6.822-15.21-15.21-15.21h-41.98c-.003-17.94 1.637-35.582 6.305-49.935 5.97-2.25 16.924-4.222 32.178 1.83 21.98 8.724 48.117 8.824 49.22 8.824 1.1 0 27.244-.1 49.222-8.823 15.25-6.05 26.207-4.08 32.177-1.83 4.666 14.354 6.307 32 6.304 49.938h-41.99c-8.384 0-15.206 6.825-15.206 15.21 0 4.7 2.143 8.904 5.5 11.696-4.1 7.48-10.002 25.614 2.467 57.43 11.387 29.055 8.35 38.573 3.565 47.215-4.708 8.5-4.708 13.254-4.708 20.53a4.5 4.5 0 0 0 4.5 4.5h15.91a4.497 4.497 0 0 0 3.77-2.05c.433-.67 10.56-16.66 6.424-42.725-1.022-6.447-2.12-12.803-3.184-18.95-2.865-16.57-5.57-32.227-5.084-40.773.297-5.16 1.62-8.67 3.734-9.88 2.134-1.224 5.925-.56 10.674 1.87 3.907 1.997 7.295 3.547 10.417 4.767-1.497 12.695-3.215 23.774-4.442 31.683-7.03 45.315 10 72.82 10.73 73.97a4.5 4.5 0 0 0 3.8 2.09h21.77a4.5 4.5 0 0 0 4.5-4.5v-.144c0-12.76 0-20.464-7.8-34.87-6.8-12.55-11.04-25.234-2.63-64.263 10.994-.916 20.44-5.07 27.6-8.734 4.75-2.43 8.54-3.094 10.673-1.87 2.11 1.21 3.437 4.72 3.73 9.88.488 8.543-2.216 24.19-5.08 40.756-1.063 6.15-2.16 12.514-3.186 18.97-4.136 26.065 5.99 42.054 6.422 42.72a4.5 4.5 0 0 0 3.774 2.054h15.913c2.486 0 4.5-2.103 4.5-4.59 0-7.193 0-11.945-4.705-20.44-3.898-7.04-8.748-15.802 3.563-47.215 12.47-31.814 6.566-49.95 2.467-57.424 3.36-2.794 5.502-7 5.502-11.697 0-6.878-4.59-12.694-10.865-14.57-.367-13.505-.064-63.26 21.304-110.042l8.408 4.224a4.498 4.498 0 0 0 6.41-3.02l5.65-24.773c.204-.89.13-1.823-.21-2.67zm-340.288 47.4h256l-2.03 9.867H86.652l-2.03-9.867zM26.728 93.66a4.5 4.5 0 0 0-6.068-2.056l-7.4 3.718L9.22 77.61c1.572-3.266 5.264-9.386 9.58-10.793 1.16-.377 3.02-.682 5.763 1.02.34.22 33.612 23.088 38.26 143.286h-11.9c.434-15.92-.235-68.138-24.195-117.464zm19.496 126.46h45.533c.77 4.012 1.67 8.158 2.694 12.415H46.23a6.215 6.215 0 0 1-6.208-6.208 6.214 6.214 0 0 1 6.207-6.208zm32.46 27.052c-7.768-3.97-14.242-4.53-19.245-1.663-4.99 2.85-7.76 8.63-8.25 17.17-.547 9.57 2.114 24.97 5.196 42.8 1.06 6.12 2.152 12.45 3.167 18.845 2.772 17.475-1.8 29.73-4.005 34.364h-8.66c.163-4 .83-6.8 3.527-11.67 5.69-10.28 9.74-22.21-3.06-54.86-12.026-30.687-5.14-46.275-2.443-50.697.43.036.864.065 1.305.065h50.53a544.07 544.07 0 0 1 3.33 13.084c-9.566-1.416-17.605-5.515-21.397-7.45zm87.078 45.002c-12.797 32.654-8.748 44.582-3.057 54.858 2.69 4.858 3.36 7.657 3.525 11.67h-8.66c-2.21-4.65-6.78-16.897-4.007-34.363 1.015-6.4 2.108-12.73 3.167-18.85 3.08-17.83 5.743-33.23 5.196-42.807-.487-8.54-3.26-14.32-8.24-17.175-5.004-2.868-11.48-2.31-19.247 1.663-2.71 1.38-5.11 2.52-7.34 3.467-.3-2.98-.58-6.023-.84-9.11h40.63c.437 0 .867-.03 1.295-.066 2.727 4.477 9.575 20.064-2.433 50.706zm1.137-72.054a6.215 6.215 0 0 1 6.2 6.208 6.215 6.215 0 0 1-6.21 6.208h-41.28a376.937 376.937 0 0 1-.568-12.415h41.85zm-50.94-10.094c-.09 28.96 4.08 59.563 7.71 82.99 5.43 35.003-4.756 58.755-8.29 65.68h-14.6c.09-9.645.82-15.364 6.7-26.225 10.44-19.28 12.74-38.37-2.435-94.72-13.75-51.05-7.424-85.86-4.945-96.01h30.16c-9.414 15.16-14.224 38.06-14.31 68.29zm142.56-55.376c-20.34 8.07-45.62 8.19-45.91 8.19-.284 0-25.564-.12-45.9-8.19-13.004-5.16-23.576-5.287-31.232-3.908 1.682-3.306 3.6-6.327 5.787-9.002h142.7c2.186 2.677 4.105 5.698 5.787 9.006-7.655-1.38-18.226-1.258-31.234 3.904zm-.19 65.47h41.86a376.9 376.9 0 0 1-.57 12.415h-41.29a6.214 6.214 0 0 1-6.21-6.208 6.214 6.214 0 0 1 6.208-6.208zm32.46 27.052c-7.77-3.97-14.248-4.53-19.25-1.663-4.98 2.85-7.755 8.63-8.243 17.17-.547 9.575 2.116 24.98 5.2 42.82 1.057 6.114 2.15 12.44 3.164 18.83 2.773 17.474-1.802 29.73-4.005 34.36H259c.165-3.997.83-6.8 3.528-11.67 5.69-10.275 9.738-22.203-3.06-54.86-12-30.62-5.167-46.21-2.436-50.696.43.04.86.067 1.298.067h40.644c-.255 3.09-.536 6.134-.838 9.116-2.224-.95-4.64-2.098-7.343-3.48zm26.96 85.3c5.88 10.86 6.61 16.58 6.7 26.225h-14.6c-3.545-6.94-13.72-30.688-8.29-65.68 3.633-23.427 7.795-54.032 7.714-82.99-.086-30.246-4.914-53.13-14.337-68.287h30.195c2.49 10.07 8.86 44.723-4.954 96.01-15.173 56.345-12.875 75.437-2.43 94.72zm60.11-40.305c-12.796 32.648-8.75 44.578-3.06 54.857 2.69 4.857 3.36 7.654 3.527 11.67h-8.66c-2.21-4.65-6.777-16.898-4.007-34.363 1.015-6.39 2.108-12.72 3.166-18.84 3.08-17.83 5.74-33.23 5.195-42.8-.485-8.54-3.26-14.32-8.24-17.176-5-2.87-11.476-2.31-19.245 1.663-3.79 1.94-11.82 6.026-21.38 7.44a541.94 541.94 0 0 1 3.326-13.075H379c.44 0 .87-.03 1.3-.065 2.73 4.485 9.566 20.07-2.437 50.7zm1.14-59.633h-48.21a274.093 274.093 0 0 0 2.696-12.415h45.52a6.215 6.215 0 0 1 6.208 6.2 6.215 6.215 0 0 1-6.21 6.207zM411.97 95.32l-7.4-3.717a4.5 4.5 0 0 0-6.07 2.055c-23.956 49.32-24.63 101.538-24.193 117.463h-11.9c4.65-120.19 37.917-143.06 38.247-143.27 2.752-1.71 4.612-1.403 5.77-1.025 4.32 1.407 8.015 7.534 9.582 10.79l-4.038 17.714z"/></svg>