<svg xmlns="http://www.w3.org/2000/svg" viewBox="0 0 451.002 451.002"><path d="M446.502 112.57H4.5a4.5 4.5 0 0 0-4.5 4.5v16.137a4.5 4.5 0 0 0 4.5 4.5h12.273v34.014a4.46 4.46 0 0 0 1.666 3.47 14.646 14.646 0 0 0-1.67 6.79 14.68 14.68 0 0 0 4.16 10.25c-2.574 2.658-4.167 6.27-4.167 10.25 0 4.11 1.69 7.828 4.41 10.5-2.808 4.31-5.94 12.43-5.077 26.776.337 5.614 1.275 11.507 2.463 18.97 1.59 9.985 3.545 22.28 5.167 40.34-4.274 2.637-6.964 7.316-6.964 12.54 0 6.094 3.764 11.44 9.195 13.656l.773 9.063a4.5 4.5 0 0 0 4.484 4.115H44.6a4.5 4.5 0 0 0 4.483-4.115s.29-3.382.774-9.065c5.43-2.216 9.192-7.563 9.192-13.655 0-5.224-2.69-9.903-6.97-12.54 1.62-18.068 3.58-30.37 5.17-40.357 1.183-7.455 2.12-13.343 2.46-18.953.862-14.347-2.27-22.465-5.08-26.773 2.718-2.68 4.41-6.4 4.41-10.506 0-3.982-1.593-7.594-4.166-10.25 2.573-2.658 4.166-6.27 4.166-10.252 0-2.446-.607-4.75-1.666-6.782a4.46 4.46 0 0 0 1.665-3.465V165.8h103.84l60.92 24.67c.044.02.562.33 1.69.33s1.642-.31 1.69-.33l60.92-24.67h103.84v5.923c0 1.405.655 2.644 1.664 3.47a14.646 14.646 0 0 0-1.666 6.78c0 3.983 1.592 7.595 4.165 10.252-2.573 2.656-4.166 6.27-4.166 10.25 0 4.11 1.69 7.827 4.41 10.503-2.81 4.308-5.94 12.426-5.078 26.774.337 5.61 1.274 11.5 2.46 18.954 1.59 9.988 3.55 22.29 5.17 40.356-4.274 2.637-6.964 7.317-6.964 12.54 0 6.093 3.762 11.44 9.192 13.656.484 5.683.774 9.066.774 9.066a4.5 4.5 0 0 0 4.482 4.115h13.38a4.5 4.5 0 0 0 4.48-4.12l.77-9.07c5.43-2.215 9.193-7.563 9.193-13.655 0-5.223-2.69-9.903-6.966-12.54 1.623-18.06 3.58-30.355 5.17-40.34 1.19-7.46 2.126-13.356 2.463-18.97.863-14.347-2.27-22.464-5.077-26.77a14.7 14.7 0 0 0 .244-20.754c2.576-2.656 4.17-6.27 4.17-10.25 0-2.445-.608-4.75-1.666-6.782a4.463 4.463 0 0 0 1.665-3.47v-34.01h12.273a4.5 4.5 0 0 0 4.5-4.5v-16.14a4.49 4.49 0 0 0-4.494-4.5zM50.74 239.205c-.313 5.17-1.22 10.868-2.368 18.08-1.613 10.135-3.823 24.015-5.522 44.138a4.5 4.5 0 0 0 3.155 4.678 5.722 5.722 0 0 1 4.05 5.5 5.757 5.757 0 0 1-4.997 5.69 4.5 4.5 0 0 0-3.9 4.08c-.28 3.29-.512 6.028-.687 8.068h-5.11l-.682-8.064a4.502 4.502 0 0 0-3.9-4.08 5.756 5.756 0 0 1-4.997-5.692 5.72 5.72 0 0 1 4.05-5.494 4.5 4.5 0 0 0 3.156-4.68c-1.7-20.11-3.91-33.99-5.52-44.12-1.15-7.22-2.06-12.92-2.37-18.096-.84-13.998 2.62-20.108 4.24-22.166.717.108 1.446.18 2.194.18h12.78c.744 0 1.473-.072 2.19-.18 1.624 2.06 5.085 8.17 4.243 22.167zM31.524 176.22h12.78c3.17 0 5.75 2.58 5.75 5.75s-2.58 5.752-5.75 5.752h-12.78c-3.172 0-5.752-2.58-5.752-5.75s2.58-5.752 5.752-5.752zm-5.752-9v-29.514h24.28v29.514h-24.28zm5.752 29.5h12.78c3.17 0 5.75 2.58 5.75 5.752 0 3.17-2.58 5.75-5.75 5.75h-12.78a5.758 5.758 0 0 1-5.752-5.75c0-3.17 2.58-5.75 5.752-5.75zM9 128.707v-7.138h44.68l17.625 7.13H9zm50.055 28.09v-19.09H93.53l47.136 19.09h-81.61zM225.5 181.442L77.656 121.57h295.69L225.5 181.44zm166.445-24.646h-81.61l47.138-19.09h34.472v19.09zm33.282 10.424h-24.28v-29.514h24.28v29.514zm-18.532 9h12.78c3.17 0 5.75 2.58 5.75 5.75s-2.58 5.752-5.75 5.752h-12.78c-3.17 0-5.75-2.58-5.75-5.75s2.58-5.752 5.75-5.752zm0 20.5h12.78a5.758 5.758 0 0 1 5.75 5.752c0 3.17-2.58 5.75-5.75 5.75h-12.78c-3.17 0-5.75-2.58-5.75-5.75s2.58-5.75 5.75-5.75zm19.214 42.487c-.32 5.174-1.22 10.875-2.37 18.094-1.62 10.14-3.82 24.01-5.52 44.13a4.5 4.5 0 0 0 3.15 4.68 5.72 5.72 0 0 1 4.05 5.497 5.757 5.757 0 0 1-5 5.69 4.5 4.5 0 0 0-3.9 4.08l-.69 8.067h-5.113l-.687-8.063a4.5 4.5 0 0 0-3.9-4.08 5.756 5.756 0 0 1-4.996-5.693 5.72 5.72 0 0 1 4.05-5.495 4.5 4.5 0 0 0 3.153-4.68c-1.7-20.12-3.91-34-5.52-44.135-1.15-7.213-2.056-12.91-2.368-18.08-.845-14 2.616-20.108 4.24-22.166a14.69 14.69 0 0 0 2.19.18h12.78c.75 0 1.478-.073 2.196-.18 1.627 2.055 5.087 8.166 4.245 22.163zm16.09-110.5h-62.31l17.62-7.14H442v7.14z"/></svg>