<svg xmlns="http://www.w3.org/2000/svg" viewBox="0 0 372.86 372.86"><path d="M45.523 273.554h281.813a4.5 4.5 0 0 0 4.5-4.5v-53.65a4.5 4.5 0 0 0-4.5-4.5H45.523a4.5 4.5 0 0 0-4.5 4.5v53.65a4.5 4.5 0 0 0 4.5 4.5zm4.5-53.65h272.813v44.65H50.023v-44.65z"/><path d="M110.227 228.13c-7.774 0-14.1 6.325-14.1 14.1 0 7.773 6.325 14.098 14.1 14.098 7.774 0 14.1-6.325 14.1-14.1-.002-7.774-6.327-14.098-14.1-14.098zm0 19.197a5.105 5.105 0 0 1-5.1-5.1 5.106 5.106 0 0 1 5.1-5.098 5.1 5.1 0 0 1 5.1 5.09 5.11 5.11 0 0 1-5.1 5.1zm-64.704-48.493h281.813a4.5 4.5 0 0 0 4.5-4.5v-53.65a4.5 4.5 0 0 0-4.5-4.5H45.523a4.5 4.5 0 0 0-4.5 4.5v53.65a4.5 4.5 0 0 0 4.5 4.5zm4.5-53.652h272.813v44.65H50.023v-44.65z"/><path d="M110.227 153.41c-7.774 0-14.1 6.324-14.1 14.098 0 7.774 6.325 14.1 14.1 14.1 7.774 0 14.1-6.326 14.1-14.1-.002-7.774-6.327-14.1-14.1-14.1zm0 19.196a5.105 5.105 0 0 1-5.1-5.1 5.106 5.106 0 0 1 5.1-5.098c2.81 0 5.1 2.287 5.1 5.1a5.108 5.108 0 0 1-5.1 5.098zm-64.704-48.492h281.813a4.5 4.5 0 0 0 4.5-4.5V65.962a4.5 4.5 0 0 0-4.5-4.5H45.523a4.5 4.5 0 0 0-4.5 4.5v53.652a4.5 4.5 0 0 0 4.5 4.5zm4.5-53.652h272.813v44.652H50.023V70.462z"/><path d="M110.227 78.69c-7.774 0-14.1 6.324-14.1 14.098s6.325 14.1 14.1 14.1c7.774 0 14.1-6.326 14.1-14.1s-6.327-14.1-14.1-14.1zm0 19.196c-2.812 0-5.1-2.287-5.1-5.1s2.288-5.098 5.1-5.098c2.81 0 5.1 2.287 5.1 5.1s-2.29 5.098-5.1 5.098zm152.406 158.44c7.774 0 14.1-6.324 14.1-14.1 0-7.772-6.325-14.097-14.1-14.097-7.774 0-14.1 6.32-14.1 14.09s6.325 14.1 14.1 14.1zm0-19.196c2.81 0 5.1 2.287 5.1 5.1 0 2.81-2.288 5.098-5.1 5.098s-5.1-2.287-5.1-5.1a5.106 5.106 0 0 1 5.1-5.098zm0-55.524c7.774 0 14.1-6.325 14.1-14.1 0-7.773-6.325-14.098-14.1-14.098-7.774 0-14.1 6.325-14.1 14.1 0 7.773 6.325 14.098 14.1 14.098zm0-19.197c2.81 0 5.1 2.28 5.1 5.09s-2.288 5.1-5.1 5.1-5.1-2.29-5.1-5.1 2.288-5.1 5.1-5.1zm0-55.53c7.774 0 14.1-6.327 14.1-14.1s-6.325-14.1-14.1-14.1c-7.774 0-14.1 6.325-14.1 14.1s6.325 14.1 14.1 14.1zm0-19.2c2.81 0 5.1 2.286 5.1 5.098s-2.288 5.1-5.1 5.1-5.1-2.288-5.1-5.1 2.288-5.1 5.1-5.1z"/><path d="M370.736 330.444a4.5 4.5 0 0 0 1.224-1.117 4.5 4.5 0 0 0 .72-3.962l-9.107-31.13V40.782l9.106-31.13a4.5 4.5 0 0 0-4.32-5.763H4.5A4.5 4.5 0 0 0 .18 9.65l9.106 31.126v253.46L.18 325.366a4.5 4.5 0 0 0 .72 3.962 4.5 4.5 0 0 0 1.223 1.117A16.23 16.23 0 0 0 0 338.47c0 6.566 5.265 11.695 8.353 14.138v11.863a4.5 4.5 0 0 0 4.5 4.5h21.742a4.5 4.5 0 0 0 4.5-4.5v-11.86c3.087-2.44 8.352-7.57 8.352-14.13 0-2.642-.645-5.13-1.762-7.342h281.49a16.232 16.232 0 0 0-1.762 7.343c0 6.566 5.265 11.695 8.352 14.138v11.864a4.5 4.5 0 0 0 4.5 4.5h21.742a4.5 4.5 0 0 0 4.5-4.5v-11.87c3.088-2.44 8.353-7.57 8.353-14.136 0-2.917-.78-5.652-2.124-8.026zm-339.63-8.316h-20.6l2.015-6.89h347.82l2.02 6.89H31.11zm326.6-293.35l-2.016 6.893H17.17l-2.017-6.89h342.553zM15.153 306.24l2.016-6.892h338.52l2.01 6.892H15.15zm339.42-261.57v245.677H18.285V44.67H354.57zm7.782-31.782l-2.016 6.89H12.52l-2.016-6.89h351.85zM38.445 338.47c0 3.03-4.227 6.732-6.262 8.042a4.5 4.5 0 0 0-2.088 3.8v9.658H17.353v-9.66a4.5 4.5 0 0 0-2.088-3.798c-1.962-1.246-6.264-5-6.264-8.042 0-4.048 3.3-7.342 7.35-7.342h14.76c4.05 0 7.34 3.294 7.34 7.342zm319.15 8.043a4.5 4.5 0 0 0-2.09 3.8v9.658h-12.74v-9.65a4.5 4.5 0 0 0-2.09-3.8c-1.962-1.244-6.263-5-6.263-8.04 0-4.05 3.293-7.342 7.34-7.342h14.764c4.05 0 7.344 3.294 7.344 7.34 0 3.03-4.23 6.733-6.265 8.044z"/></svg>