<svg xmlns="http://www.w3.org/2000/svg" viewBox="0 0 438.629 438.629"><path d="M201.2 119.086a4.5 4.5 0 0 1-3.82-6.872l33.473-53.965a4.5 4.5 0 0 1 7.648 4.74l-33.47 53.96a4.498 4.498 0 0 1-3.83 2.13zm2.747 30.924a4.5 4.5 0 0 1-3.82-6.872L233.6 89.174a4.5 4.5 0 0 1 7.648 4.744l-33.473 53.966a4.498 4.498 0 0 1-3.828 2.13z"/><path d="M370.456 254.795v-37.483a4.5 4.5 0 0 0-4.5-4.5h-23.152c-11.58 0-20.856-19.175-26.12-53.992-4.278-28.29-4.332-57.03-4.332-57.317 0-8.334-6.78-15.113-15.115-15.113-2.43 0-4.72.585-6.755 1.608-2.023-21.714-8.894-41.822-19.876-57.65C257.026 10.778 238.81 0 219.314 0s-37.712 10.777-51.29 30.346c-10.986 15.832-17.856 35.944-19.878 57.664a14.944 14.944 0 0 0-6.755-1.62c-8.33 0-15.11 6.78-15.11 15.113 0 .286-.05 28.942-4.32 57.233-5.26 34.87-14.54 54.076-26.13 54.076H72.677a4.5 4.5 0 0 0-4.5 4.5v37.483a4.495 4.495 0 0 0 2.664 4.1 15.708 15.708 0 0 0-1.766 7.233c0 4.44 1.845 8.455 4.8 11.333-2.954 2.88-4.8 6.9-4.8 11.34 0 4.547 1.937 8.64 5.015 11.53-3.106 4.58-6.725 13.497-5.75 29.653.37 6.183 1.405 12.69 2.716 20.925C72.82 362 75 375.685 76.8 395.825c-4.734 2.8-7.727 7.903-7.727 13.61 0 6.64 4.164 12.456 10.138 14.765l.88 10.312a4.5 4.5 0 0 0 4.49 4.117h14.79a4.5 4.5 0 0 0 4.487-4.12l.88-10.318c5.974-2.31 10.138-8.125 10.138-14.764 0-5.707-2.99-10.81-7.723-13.61 1.8-20.15 3.978-33.838 5.746-44.94 1.31-8.23 2.343-14.73 2.715-20.91.974-16.157-2.646-25.07-5.75-29.654 3.076-2.89 5.012-6.983 5.012-11.527 0-4.44-1.843-8.454-4.8-11.33 2.957-2.878 4.8-6.89 4.8-11.333 0-2.45-.574-4.76-1.57-6.833h212.04a15.71 15.71 0 0 0-1.57 6.833c0 4.44 1.842 8.454 4.8 11.332a15.756 15.756 0 0 0-4.8 11.33c0 4.543 1.934 8.635 5.012 11.525-3.104 4.58-6.723 13.498-5.75 29.654.37 6.183 1.407 12.69 2.718 20.925 1.767 11.1 3.945 24.783 5.745 44.925-4.732 2.8-7.725 7.905-7.725 13.61 0 6.64 4.164 12.458 10.138 14.767l.88 10.314a4.5 4.5 0 0 0 4.483 4.117h14.79a4.5 4.5 0 0 0 4.484-4.117s.33-3.855.88-10.314c5.973-2.31 10.137-8.124 10.137-14.763 0-5.71-2.993-10.81-7.725-13.61 1.8-20.155 3.977-33.84 5.745-44.945 1.31-8.23 2.34-14.73 2.715-20.91.973-16.156-2.647-25.07-5.75-29.65 3.076-2.89 5.012-6.98 5.012-11.527 0-4.44-1.844-8.455-4.8-11.332 2.957-2.876 4.8-6.89 4.8-11.33 0-2.606-.644-5.06-1.765-7.23a4.507 4.507 0 0 0 2.666-4.107zM297.238 95.39a6.12 6.12 0 0 1 6.115 6.113 6.122 6.122 0 0 1-6.115 6.115 6.12 6.12 0 0 1-6.114-6.115 6.12 6.12 0 0 1 6.114-6.114zm0 21.23c2.314 0 4.5-.54 6.462-1.473.463 11.308 1.544 28.177 4.072 44.932 3.83 25.38 9.815 42.99 17.87 52.73h-69.626v-23.94c5.275-4.438 10.18-9.86 14.59-16.218 10.983-15.828 17.853-35.936 19.876-57.65a14.98 14.98 0 0 0 6.756 1.607zM219.314 9c34.634 0 62.81 41.497 62.81 92.504 0 51.007-28.176 92.505-62.81 92.505-34.632 0-62.808-41.5-62.808-92.51 0-51.01 28.174-92.5 62.808-92.5zm27.702 186.267v17.546h-55.403v-17.545c8.643 5.078 18.013 7.74 27.7 7.74 9.69 0 19.06-2.663 27.703-7.74zM141.39 95.39a6.12 6.12 0 0 1 6.116 6.113 6.122 6.122 0 0 1-6.115 6.115 6.12 6.12 0 0 1-6.11-6.115 6.12 6.12 0 0 1 6.12-6.114zm-10.533 64.69c2.528-16.756 3.61-33.626 4.072-44.933a14.988 14.988 0 0 0 6.46 1.472 15 15 0 0 0 6.75-1.62c2.02 21.71 8.89 41.83 19.874 57.66 4.412 6.35 9.315 11.78 14.59 16.21v23.934h-69.62c8.053-9.74 14.037-27.356 17.866-52.734zM106.62 329.432c-.345 5.74-1.35 12.05-2.62 20.036-1.783 11.196-4.224 26.53-6.1 48.76a4.5 4.5 0 0 0 3.155 4.678 6.797 6.797 0 0 1 4.81 6.53 6.84 6.84 0 0 1-5.936 6.763 4.5 4.5 0 0 0-3.9 4.08c-.33 3.87-.6 7.05-.8 9.35H88.7l-.797-9.35a4.5 4.5 0 0 0-3.9-4.08 6.84 6.84 0 0 1-5.937-6.77 6.796 6.796 0 0 1 4.813-6.53 4.5 4.5 0 0 0 3.152-4.68c-1.878-22.217-4.318-37.55-6.1-48.744-1.27-7.993-2.277-14.307-2.623-20.05-.968-16.09 3.175-22.89 4.964-25.044.856.143 1.73.236 2.625.236h14.13c.895 0 1.77-.093 2.622-.237 1.787 2.15 5.93 8.954 4.963 25.04zm-28.548-40.64c0-3.768 3.066-6.832 6.834-6.832h14.128c3.767 0 6.832 3.066 6.832 6.833s-3.065 6.833-6.832 6.833H84.906a6.84 6.84 0 0 1-6.834-6.833zm27.794-22.665a6.84 6.84 0 0 1-6.832 6.833H84.906c-3.768 0-6.834-3.064-6.834-6.832s3.066-6.832 6.834-6.832h14.128a6.84 6.84 0 0 1 6.832 6.832zm31.025-15.833H77.18V221.81h59.718v28.484zm9 0V221.81h69.47c-6.07 1.845-10.5 7.49-10.5 14.154 0 6.91 4.77 12.714 11.19 14.33H145.9zm67.97-14.33a5.8 5.8 0 0 1 5.797-5.793 5.8 5.8 0 0 1 5.79 5.8 5.8 5.8 0 0 1-5.79 5.795 5.8 5.8 0 0 1-5.793-5.793zm78.887 14.33H223.26c6.415-1.616 11.186-7.42 11.186-14.33 0-6.665-4.43-12.31-10.5-14.153h68.8v28.49zm68.573 79.138c-.346 5.74-1.35 12.05-2.62 20.036-1.784 11.196-4.225 26.53-6.1 48.76a4.5 4.5 0 0 0 3.154 4.678 6.8 6.8 0 0 1 4.81 6.53 6.84 6.84 0 0 1-5.934 6.763 4.5 4.5 0 0 0-3.9 4.08l-.797 9.35h-6.53l-.798-9.35a4.5 4.5 0 0 0-3.9-4.08 6.84 6.84 0 0 1-5.936-6.77 6.796 6.796 0 0 1 4.81-6.53 4.5 4.5 0 0 0 3.15-4.68c-1.875-22.217-4.315-37.55-6.1-48.744-1.27-7.993-2.274-14.307-2.62-20.05-.966-16.09 3.177-22.89 4.966-25.044.855.143 1.728.236 2.624.236h14.128c.893 0 1.765-.093 2.62-.237 1.783 2.15 5.93 8.954 4.96 25.04zM339.6 281.96h14.128c3.767 0 6.832 3.066 6.832 6.833s-3.065 6.833-6.832 6.833H339.6c-3.768 0-6.834-3.065-6.834-6.833s3.067-6.832 6.835-6.832zm-6.834-15.832c0-3.768 3.067-6.832 6.835-6.832h14.13c3.77 0 6.83 3.065 6.83 6.832s-3.06 6.833-6.83 6.833H339.6c-3.77 0-6.835-3.06-6.835-6.83zm28.696-15.833h-59.72v-28.483h59.72v28.483z"/><path d="M219.316 185.69c-15.045 0-29.038-9.033-39.4-25.436-9.955-15.76-15.438-36.625-15.438-58.75 0-22.126 5.483-42.99 15.44-58.75 10.36-16.404 24.353-25.438 39.398-25.438 15.044 0 29.036 9.034 39.397 25.437 9.956 15.76 15.44 36.625 15.44 58.75s-5.484 42.99-15.44 58.75c-10.36 16.404-24.353 25.438-39.397 25.438zm0-159.373c-25.275 0-45.838 33.73-45.838 75.187 0 41.46 20.563 75.187 45.838 75.187 25.274 0 45.836-33.72 45.836-75.18s-20.562-75.19-45.836-75.19zM294.61 347.18v-27.776c0-18.747-38.794-28.863-75.295-28.863s-75.295 10.12-75.295 28.87v27.78c0 1.59.83 2.98 2.075 3.78-1.425 3.594-2.428 8.7-1.956 15.824.27 4.103 1.01 8.358 1.96 13.746 1.22 6.955 2.71 15.48 3.97 27.86-3.34 2.16-5.41 5.745-5.41 9.744 0 4.9 2.39 8.84 6.22 10.688l.54 5.73a4.5 4.5 0 0 0 4.48 4.08h12.762a4.5 4.5 0 0 0 4.48-4.076l.54-5.73c3.83-1.85 6.223-5.79 6.223-10.69 0-4-2.07-7.587-5.41-9.747 1.255-12.387 2.75-20.915 3.97-27.87.944-5.385 1.69-9.637 1.962-13.737.44-6.663-.41-11.56-1.685-15.104h81.12c-1.276 3.544-2.125 8.44-1.683 15.102.272 4.1 1.02 8.356 1.963 13.744 1.22 6.956 2.714 15.48 3.97 27.86-3.34 2.16-5.41 5.746-5.41 9.745 0 4.9 2.39 8.84 6.225 10.687l.536 5.73a4.5 4.5 0 0 0 4.48 4.078h12.766a4.5 4.5 0 0 0 4.48-4.076l.54-5.73c3.834-1.85 6.225-5.79 6.225-10.69 0-4-2.07-7.586-5.41-9.746 1.256-12.386 2.752-20.914 3.97-27.87.945-5.384 1.69-9.636 1.963-13.736.47-7.125-.532-12.23-1.957-15.82a4.486 4.486 0 0 0 2.08-3.784zm-116.376-4.5v-18.776h82.162v18.777h-82.162zm-25.214 0v-18.776h16.214v18.777H153.02zm116.376 0v-18.776h16.214v18.777h-16.214zm-50.08-43.14c34.002 0 57.123 7.93 64.082 15.364H155.232c6.96-7.435 30.08-15.363 64.083-15.363zm-47.86 66.65c-.24 3.617-.948 7.66-1.846 12.776-1.277 7.285-3.027 17.262-4.373 31.738a4.5 4.5 0 0 0 3.265 4.75c1.42.397 2.41 1.5 2.41 2.68 0 2.57-1.37 2.733-1.954 2.803a4.5 4.5 0 0 0-3.95 4.05l-.436 4.642h-4.57l-.437-4.65a4.5 4.5 0 0 0-3.95-4.05c-.585-.07-1.955-.23-1.955-2.805 0-1.18.992-2.283 2.412-2.68a4.5 4.5 0 0 0 3.266-4.75c-1.346-14.47-3.095-24.445-4.372-31.73-.898-5.12-1.607-9.166-1.847-12.786-.59-8.893 1.58-12.983 2.75-14.508h12.82c1.17 1.524 3.35 5.614 2.76 14.51zm114.054 0c-.24 3.617-.95 7.66-1.847 12.776-1.277 7.285-3.027 17.262-4.372 31.738a4.5 4.5 0 0 0 3.27 4.75c1.42.397 2.41 1.5 2.41 2.68 0 2.57-1.37 2.733-1.95 2.803a4.5 4.5 0 0 0-3.95 4.05l-.435 4.642h-4.57l-.437-4.65a4.5 4.5 0 0 0-3.95-4.05c-.585-.07-1.955-.23-1.955-2.805 0-1.18.993-2.283 2.413-2.68a4.5 4.5 0 0 0 3.264-4.75c-1.347-14.47-3.096-24.445-4.373-31.73-.897-5.12-1.606-9.166-1.846-12.786-.59-8.893 1.59-12.983 2.76-14.508h12.822c1.17 1.524 3.348 5.614 2.758 14.51z"/></svg>