<svg xmlns="http://www.w3.org/2000/svg" viewBox="0 0 432.246 432.246"><path d="M431.875 54.37a4.5 4.5 0 0 0-4.13-2.71H4.5a4.5 4.5 0 0 0-3.282 7.577L17.263 76.35v20.09a4.5 4.5 0 0 0 4.5 4.5h6.433v231.52H25.79a4.5 4.5 0 0 0-4.5 4.5v39.128a4.5 4.5 0 0 0 4.5 4.5h380.665a4.5 4.5 0 0 0 4.5-4.5V336.96a4.5 4.5 0 0 0-4.5-4.5h-2.405V100.94h6.433a4.5 4.5 0 0 0 4.5-4.5V76.352l16.045-17.114a4.502 4.502 0 0 0 .847-4.868zM74.805 371.586H30.29v-30.128h44.514v30.128zM56.39 117.626v214.832H37.197V117.625H56.39zm-19.194-9v-7.688H56.39v7.687H37.197zm311.246 262.96H83.804V358.72h264.638v12.866zm-39-161.896v140.03h-9.23V234.53a4.5 4.5 0 0 0-4.5-4.5h-159.18a4.5 4.5 0 0 0-4.5 4.5v115.19h-9.23V209.69h186.64zm-175.753-9v-48.54h15.835v48.54h-15.84zm24.835 0v-48.54h15.838v48.54h-15.838zm24.837 0v-48.54H199.2v48.54h-15.837zm24.838 0v-48.54h15.84v48.54H208.2zm24.84 0v-48.54h15.84v48.54h-15.84zm24.84 0v-48.54h15.84v48.54h-15.84zm24.84 0v-48.54h15.836v48.54H282.72zm24.836-7.56v-40.98h35.528l-35.528 40.98zm-125.21 156.59H162.07v-11.437h20.275v11.437zm29.276 0h-20.277v-11.437h20.277v11.437zm29.276 0H220.62v-11.437h20.28v11.437zm29.275 0H249.9v-11.437h20.276v11.437zm13.094-20.437H148.974a4.5 4.5 0 0 0 0 9h4.094v11.437H141.03V239.03h150.18v110.69h-12.036v-11.437h4.094a4.5 4.5 0 0 0 0-9zM124.69 193.13l-35.53-40.98h35.53v40.98zm-5.36 7.56H83.805v-40.98l35.527 40.98zm-5.526 9v15.84h-30v-15.84h30zm0 24.84v15.837h-30V234.53h30zm0 24.836v15.838h-30v-15.838h30zm0 24.838v15.84h-30v-15.84h30zm0 24.84v15.838h-30v-15.84h30zm0 24.838v15.838h-30v-15.838h30zm234.638 15.838h-30v-15.838h30v15.838zm0-24.838h-30v-15.84h30v15.84zm0-24.84h-30v-15.838h30v15.84zm0-24.838h-30v-15.838h30v15.838zm0-24.838h-30v-15.838h30v15.838zm0-24.837h-30v-15.84h30v15.84zm0-24.84h-35.527l35.527-40.98v40.98zm4.5-57.54H79.304a4.5 4.5 0 0 0-4.5 4.5v184.81H65.39V100.94h301.465v231.52h-9.413V147.65a4.5 4.5 0 0 0-4.5-4.5zm49.013 228.433H357.44v-30.128h44.515v30.128zm-6.905-253.96v214.832h-19.195v-214.83h19.195zm-19.195-9v-7.688h19.195v7.687h-19.195zm30.128-16.687H26.263V79.07h379.72v12.87zm2.55-21.868H23.713l-8.825-9.414h402.47l-8.825 9.412z"/></svg>