<svg xmlns="http://www.w3.org/2000/svg" viewBox="0 0 447.424 447.424"><path d="M301.56 111.524c-.392-.403-39.39-40.942-43.73-95.272a4.5 4.5 0 0 0-4.485-4.142h-13.658C237.717 5.134 231.31 0 223.713 0c-7.598 0-14.005 5.134-15.974 12.11h-13.66a4.498 4.498 0 0 0-4.488 4.142c-4.333 54.22-43.34 94.87-43.73 95.272a4.5 4.5 0 0 0 3.22 7.642H206.8c-1.063 3.59-1.637 7.52-1.637 11.55 0 9.032 2.724 16.927 7.027 21.988V409.6l-16.06 14.63-27.546 14.724a4.5 4.5 0 0 0 2.12 8.47h106.013a4.5 4.5 0 0 0 2.12-8.47l-27.545-14.725-16.06-14.63V152.705c4.305-5.062 7.028-12.957 7.028-21.99 0-4.03-.573-7.96-1.637-11.55h9.403v54.274a4.5 4.5 0 0 0 9 0v-54.27h39.313a4.5 4.5 0 0 0 3.22-7.643zM223.714 9c2.512 0 4.736 1.23 6.122 3.11H217.59c1.387-1.88 3.61-3.11 6.123-3.11zM158.99 110.166c11.604-14.25 34.554-47.14 39.18-89.057h3.838c-1.183 14.53-6.287 59.59-25.448 89.054h-17.57zm28.12 0c18.314-31.76 22.912-75.253 23.942-89.057h8.16v89.054H187.11zm36.603 39.426c-4.508 0-9.55-8.072-9.55-18.876 0-4.206.755-8.215 2.15-11.55h14.797c1.396 3.335 2.15 7.344 2.15 11.55.002 10.804-5.04 18.876-9.547 18.876zm2.52 8.748v248.75h-5.043V158.34c.824.16 1.664.253 2.523.253a13.1 13.1 0 0 0 2.52-.253zm32.52 280.084H188.67l11.203-5.99h47.678l11.206 5.99zm-21.697-14.99h-26.688l8.064-7.345h10.56l8.064 7.343zm-3.148-313.268h-5.696V21.11h8.16c1.03 13.804 5.627 57.297 23.94 89.057H233.91zm36.956 0c-19.14-29.434-24.258-74.517-25.446-89.057h3.835c4.627 41.914 27.577 74.804 39.182 89.054h-17.57z"/></svg>