<svg xmlns="http://www.w3.org/2000/svg" viewBox="0 0 447.479 447.479"><path d="M223.74 16.695c-33.38 0-60.534 37.626-60.534 83.874v176.37c0 46.24 27.155 83.87 60.533 83.87s60.53-37.63 60.53-83.878V100.57c0-46.25-27.16-83.875-60.54-83.875zm51.534 260.247c0 41.286-23.118 74.874-51.534 74.874s-51.533-33.588-51.533-74.874V100.57c0-41.287 23.118-74.875 51.533-74.875 28.416 0 51.534 33.588 51.534 74.874v176.37z"/><path d="M328.18 406.316s-.026-234.095-.035-234.212c3.35-3.19 5.45-7.682 5.45-12.663 0-9.65-7.855-17.51-17.51-17.51-6.203 0-11.65 3.26-14.76 8.13V99.75c0-31.664-8.288-57.78-23.968-75.522C263.55 8.604 244.51 0 223.74 0c-20.77 0-39.812 8.604-53.62 24.228-15.678 17.743-23.966 43.86-23.966 75.523v50.31c-3.11-4.87-8.557-8.13-14.76-8.13-9.655 0-17.51 7.86-17.51 17.51 0 4.98 2.1 9.48 5.45 12.67-.01.12-.036 234.316-.036 234.316l-4.865 35.958a4.5 4.5 0 0 0 4.46 5.105h15.19a4.502 4.502 0 0 0 4.46-3.896l4.394-32.468h161.62l4.38 32.36a4.5 4.5 0 0 0 4.458 3.897h15.21a4.5 4.5 0 0 0 4.383-5.53l-4.808-35.53zm-199.88-4.2v-27.908l30.574-.05c10.018 13.38 32.883 20.714 64.865 20.714 31.98 0 54.84-7.333 64.86-20.713l30.57.04v27.91H128.3zm0-36.957V205.84h6.19v159.32h-6.19zm184.688 0V205.84h6.19v159.32h-6.19zm3.096-214.23c4.692 0 8.51 3.82 8.51 8.51 0 4.69-3.817 8.51-8.51 8.51-4.692 0-8.51-3.82-8.51-8.51 0-4.7 3.818-8.51 8.51-8.51zm-14.76 26.02h17.855v19.89h-17.86v-19.89zm-146.17-77.2C155.154 32.76 192.102 9 223.74 9c31.638 0 68.584 23.768 68.584 90.75v178.01c0 66.983-36.946 90.75-68.585 90.75-31.64 0-68.59-23.767-68.59-90.75V99.75zm14.968 253.53c13.807 15.62 32.85 24.23 53.618 24.23 20.77 0 39.81-8.61 53.618-24.23 15.68-17.74 23.967-43.86 23.967-75.53v-71.91h2.664v159.32h-17.76a4.5 4.5 0 0 0-3.83 2.13c-7.317 11.81-28.7 18.58-58.67 18.58-29.97 0-51.354-6.772-58.67-18.582a4.5 4.5 0 0 0-3.826-2.13h-17.75V205.84h2.663v71.915c0 31.664 8.29 57.78 23.97 75.523zm-23.967-176.33v19.89H128.3v-19.89h17.855zm-14.76-26.02c4.692 0 8.51 3.81 8.51 8.51 0 4.69-3.818 8.51-8.51 8.51-4.693 0-8.51-3.82-8.51-8.51 0-4.7 3.817-8.51 8.51-8.51zm-1.242 287.54h-6.11l3.69-27.26h6.108l-3.68 27.26zm187.173-.106l-3.688-27.258h6.11l3.687 27.257h-6.11z"/><path d="M196.07 214.83a4.5 4.5 0 0 1-3.82-6.872l51.134-82.44a4.5 4.5 0 0 1 7.648 4.745L199.9 212.7a4.498 4.498 0 0 1-3.83 2.13zm4.196 47.24a4.5 4.5 0 0 1-3.82-6.872l51.135-82.437a4.5 4.5 0 1 1 7.65 4.75l-51.13 82.44a4.495 4.495 0 0 1-3.825 2.13z"/></svg>