<svg xmlns="http://www.w3.org/2000/svg" viewBox="0 0 414.504 414.504"><path d="M167.43 193.46a4.49 4.49 0 0 0 3.18 1.318 4.49 4.49 0 0 0 3.183-1.318l2.12-2.12 2.122 2.12a4.49 4.49 0 0 0 3.182 1.318 4.5 4.5 0 0 0 3.182-7.682l-2.13-2.122 2.12-2.12a4.5 4.5 0 0 0-6.364-6.365l-2.12 2.12-2.12-2.12a4.5 4.5 0 0 0-6.365 6.36l2.12 2.12-2.12 2.12a4.5 4.5 0 0 0 0 6.36zm0-54.132a4.478 4.478 0 0 0 3.18 1.318 4.49 4.49 0 0 0 3.183-1.318l2.12-2.12 2.122 2.12c.88.88 2.03 1.318 3.182 1.318a4.5 4.5 0 0 0 3.182-7.682l-2.13-2.12 2.12-2.123a4.5 4.5 0 0 0-6.364-6.36l-2.12 2.12-2.12-2.12a4.5 4.5 0 0 0-6.365 6.37l2.12 2.12-2.12 2.12a4.5 4.5 0 0 0 0 6.366zm0-54.132a4.49 4.49 0 0 0 3.18 1.318 4.49 4.49 0 0 0 3.183-1.318l2.12-2.12 2.122 2.12a4.49 4.49 0 0 0 3.182 1.318 4.5 4.5 0 0 0 3.182-7.682l-2.13-2.122 2.12-2.12a4.5 4.5 0 0 0-6.364-6.365l-2.12 2.12-2.12-2.12a4.5 4.5 0 0 0-6.365 6.364l2.12 2.12-2.12 2.12a4.5 4.5 0 0 0 0 6.36zm62.674 108.264a4.49 4.49 0 0 0 3.182 1.318 4.49 4.49 0 0 0 3.182-1.318l2.12-2.12 2.122 2.12a4.49 4.49 0 0 0 3.182 1.318 4.5 4.5 0 0 0 3.182-7.682l-2.12-2.122 2.12-2.12a4.5 4.5 0 0 0-6.364-6.365l-2.12 2.12-2.122-2.12a4.5 4.5 0 0 0-6.364 6.36l2.12 2.12-2.12 2.12a4.5 4.5 0 0 0 0 6.36zm0-54.132c.88.88 2.03 1.318 3.182 1.318a4.49 4.49 0 0 0 3.182-1.318l2.12-2.12 2.122 2.12c.88.88 2.03 1.318 3.182 1.318a4.5 4.5 0 0 0 3.182-7.682l-2.12-2.12 2.12-2.123a4.5 4.5 0 0 0-6.364-6.36l-2.12 2.12-2.122-2.12a4.5 4.5 0 0 0-6.364 6.37l2.12 2.12-2.12 2.12a4.5 4.5 0 0 0 0 6.366zm0-54.132a4.49 4.49 0 0 0 3.182 1.318 4.49 4.49 0 0 0 3.182-1.318l2.12-2.12 2.122 2.12a4.49 4.49 0 0 0 3.182 1.318 4.5 4.5 0 0 0 3.182-7.682l-2.12-2.122 2.12-2.12a4.5 4.5 0 0 0-6.364-6.365l-2.12 2.12-2.122-2.12a4.5 4.5 0 0 0-6.364 6.364l2.12 2.12-2.12 2.12a4.5 4.5 0 0 0 0 6.36zm-14.37 65.394a4.5 4.5 0 0 0-6.363 0l-2.11 2.12-2.12-2.12a4.5 4.5 0 1 0-6.364 6.363l2.12 2.122-2.12 2.122a4.5 4.5 0 1 0 6.365 6.362l2.12-2.12 2.118 2.12a4.495 4.495 0 0 0 3.185 1.31 4.5 4.5 0 0 0 3.183-7.68l-2.124-2.12 2.12-2.12a4.5 4.5 0 0 0 0-6.367zm-16.966-39.495a4.487 4.487 0 0 0 3.182 1.318c1.152 0 2.304-.44 3.182-1.318l2.12-2.12 2.122 2.12c.88.88 2.03 1.318 3.182 1.318a4.5 4.5 0 0 0 3.183-7.682l-2.13-2.12 2.12-2.12a4.5 4.5 0 0 0-6.366-6.36l-2.12 2.12-2.12-2.12a4.5 4.5 0 0 0-6.366 6.364l2.122 2.12-2.123 2.12a4.5 4.5 0 0 0 0 6.366z"/><path d="M347.125 301.865a25.137 25.137 0 0 0 5.51-15.723V270.82c0-12.42-9.01-22.767-20.834-24.87.55-3.405 2.9-9.21 11.68-15.26 17.596-12.135 19.63-24.856 19.63-33.37 0-13.598-9.86-27.32-31.882-27.32a48.79 48.79 0 0 0-8.89.813c8.47-14.807 21.377-42.674 21.377-75.038 0-19.328-5.953-34.007-17.692-43.628-10.84-8.884-24.066-11.284-34.015-11.6C285.835 31.872 259.625 0 207.25 0s-78.583 31.873-84.745 40.547c-9.95.317-23.176 2.717-34.016 11.6-11.74 9.622-17.69 24.3-17.69 43.63 0 32.363 12.9 60.23 21.37 75.037a48.79 48.79 0 0 0-8.89-.812c-22.023 0-31.882 13.72-31.882 27.32 0 8.513 2.035 21.234 19.63 33.37 8.774 6.05 11.12 11.854 11.67 15.26-11.824 2.102-20.834 12.45-20.834 24.87v15.32a25.14 25.14 0 0 0 5.51 15.724c-3.73 5.663-12.94 24.462 5.856 51.853 18.48 26.93 12.297 31.41 4.472 37.08C67.61 398.12 67.1 402.84 67.1 410a4.5 4.5 0 0 0 4.5 4.5h26.255c.837 0 1.657-.233 2.37-.674 8.168-5.058 21.602-19.723 13.97-39.03-1.64-4.146-3.293-8.006-4.893-11.74-5.784-13.5-10.353-24.163-5.903-30.097 5.6-7.48 14.07-10.01 38.89.47 20.77 8.77 40.19 12.51 64.96 12.51 24.76 0 44.19-3.74 64.96-12.51 24.82-10.48 33.28-7.95 38.89-.474 4.45 5.934-.12 16.596-5.9 30.095-1.6 3.733-3.257 7.594-4.897 11.74-7.63 19.308 5.802 33.973 13.972 39.03.71.44 1.53.675 2.37.675H342.9c2.486 0 4.5-2.084 4.5-4.57 0-7.093-.51-11.813-10.61-19.133-7.825-5.67-14.006-10.15 4.474-37.082 18.795-27.392 9.587-46.19 5.857-51.855zm-139.873-56.31h-94.87a54.724 54.724 0 0 1 3.998-1.682c12.26-4.61 37.98-10.105 90.872-10.105 58.473 0 83.934 6.675 94.86 11.786h-94.86zm-115.558 0c-.615-5.44-3.684-14.02-15.38-22.15-1.2-.94-4.558-4.27-4.78-7.62-.113-1.682.627-3.304 2.263-4.96 3.33-3.372 8.788-1.018 12.45 2.6 10.137 10.005 10.37 25.205 9.862 32.13h-4.42zm226.69 0c-.525-6.91-.317-22.072 9.873-32.13 3.66-3.617 9.12-5.97 12.45-2.6 1.628 1.65 2.37 3.263 2.266 4.935-.206 3.314-3.5 6.62-4.794 7.652-11.69 8.128-14.76 16.705-15.37 22.142h-4.43zM354.1 197.32c0 3.762-.513 8.175-3.125 12.94-.73-1.843-1.937-3.807-3.864-5.76-6.47-6.552-17.06-5.493-25.17 2.52-9.91 9.785-12.37 22.848-12.68 32.176-3.57-2.01-8.472-4.082-15.18-6.007v-3.93c0-45.36 25.97-50.26 37.14-50.26 16.87 0 22.88 9.46 22.88 18.32zM334.706 95.776c0 40.734-22.61 74.97-26.282 80.26a40.553 40.553 0 0 0-9.046 7.405c-1.975 2.16-3.735 4.55-5.304 7.13V49.67c14.997 1.09 40.632 8.47 40.632 46.11zM207.252 9c22.69 0 42.772 6.427 59.688 19.1 10.31 7.726 16.242 15.555 18.133 18.267V230.95c-16.54-3.558-41.163-6.183-77.82-6.183-36.66 0-61.282 2.625-77.822 6.182V46.36C133.62 40.362 157.86 9 207.26 9zM79.8 95.776c0-37.64 25.634-45.02 40.63-46.11V190.57c-1.567-2.587-3.328-4.974-5.303-7.13a40.558 40.558 0 0 0-9.047-7.403c-3.674-5.276-26.28-39.43-26.28-80.26zM83.286 179c11.168 0 37.145 4.9 37.145 50.267v3.922c-6.7 1.92-11.6 3.99-15.18 6-.3-9.33-2.76-22.39-12.68-32.18-8.11-8.014-18.7-9.073-25.17-2.52-1.925 1.953-3.13 3.917-3.862 5.76-2.61-4.764-3.125-9.177-3.125-12.94 0-8.855 6.01-18.318 22.88-18.318zM70.87 270.82c0-8.97 7.296-16.267 16.266-16.267h240.232c8.97 0 16.267 7.297 16.267 16.267v15.322c0 8.97-7.297 16.266-16.267 16.266H87.136c-8.97 0-16.267-7.297-16.267-16.266V270.82zm260.644 127.268c4.538 3.29 6.088 5.042 6.617 7.416h-20.09c-3.59-2.627-15.23-12.547-9.36-27.395 1.6-4.03 3.22-7.83 4.8-11.51 6.93-16.17 12.4-28.95 4.83-39.04-11.69-15.59-30.74-10.38-49.59-2.42-19.85 8.38-37.656 11.8-61.457 11.8-23.8 0-41.607-3.42-61.46-11.8-18.85-7.96-37.904-13.176-49.595 2.415-7.57 10.096-2.097 22.87 4.83 39.042 1.577 3.674 3.205 7.475 4.797 11.502 5.875 14.857-5.78 24.78-9.36 27.393h-20.1c.527-2.364 2.074-4.118 6.624-7.416 15.78-11.437 15.192-23.92-2.334-49.46-14.737-21.473-9.277-35.8-6.42-40.77a25.106 25.106 0 0 0 12.897 3.55h240.23c4.71 0 9.118-1.297 12.896-3.55 2.857 4.973 8.315 19.3-6.416 40.77-17.526 25.54-18.115 38.022-2.333 49.46z"/></svg>