<svg xmlns="http://www.w3.org/2000/svg" viewBox="0 0 410.371 410.371"><path d="M194.27 314.086H24.774a4.5 4.5 0 0 1-4.5-4.5V278.7a4.5 4.5 0 0 1 4.5-4.5H194.27a4.5 4.5 0 0 1 4.5 4.5v30.886a4.5 4.5 0 0 1-4.5 4.5zm-164.995-9H189.77V283.2H29.274v21.886z"/><path d="M410.37 329.052l-.01-111.985c.072-1.99.333-21.762-16.33-31.628v-82.2a4.5 4.5 0 0 0-4.5-4.5c-20.16 0-36.56-13.47-36.56-30.02 0-5.91-4.738-14.55-45.697-21.41-27.283-4.58-63.506-7.09-101.996-7.09l-.09.002c-.032 0-.06-.01-.092-.01-38.49 0-74.713 2.52-101.996 7.093-40.96 6.865-45.7 15.507-45.7 21.41 0 16.553-16.4 30.02-36.56 30.02a4.5 4.5 0 0 0-4.5 4.5v82.195C-.32 195.3-.06 215.073.01 217.063L0 329.053a4.49 4.49 0 0 0 2.007 3.743A15.786 15.786 0 0 0 0 340.503c0 6.37 5.066 11.347 8.08 13.744v11.4a4.5 4.5 0 0 0 4.5 4.5h21.025a4.5 4.5 0 0 0 4.5-4.5v-11.4c3.013-2.398 8.077-7.374 8.077-13.745 0-2.497-.596-4.85-1.626-6.95h321.25a15.775 15.775 0 0 0-1.616 6.95c0 6.37 5.064 11.347 8.077 13.744v11.402a4.5 4.5 0 0 0 4.5 4.5h21.026a4.5 4.5 0 0 0 4.5-4.5v-11.4c3.014-2.398 8.078-7.375 8.078-13.745 0-2.798-.73-5.423-2-7.708a4.495 4.495 0 0 0 2.01-3.743zM9 324.552v-60.82h392.37v60.82H9zm16.343-217C48.338 105.612 66.367 88.97 66.4 68.78c.107-.262 3.393-7.005 40.315-12.94 26.553-4.267 61.492-6.617 98.38-6.617.03 0 .06-.01.09-.01.032 0 .06.01.092.01 36.888 0 71.827 2.35 98.38 6.618 36.575 5.88 40.146 12.56 40.313 12.94v.018c.04 20.186 18.067 36.824 41.06 38.764v76.22h-12.92v-64.36a4.5 4.5 0 0 0-4.5-4.5c-16.714 0-36.144-12.33-36.144-28.23 0-8.904-12.554-15.614-38.38-20.51-22.93-4.35-54.115-6.745-87.812-6.745-.03 0-.06.01-.09.01-.032 0-.06-.01-.092-.01-33.696 0-64.882 2.396-87.813 6.745-25.83 4.89-38.38 11.6-38.38 20.504 0 15.9-19.43 28.23-36.147 28.23a4.5 4.5 0 0 0-4.5 4.5v64.36h-12.91V107.55zm290.65 18.625H247.2c-17.743 0-31.642 8.765-31.642 19.953v37.644h-20.744V146.13c0-11.188-13.9-19.953-31.643-19.953H94.38c-17.744 0-31.644 8.765-31.644 19.953v37.644H47.26v-60.097c20.028-2.023 40.644-17.174 40.644-36.992 0-.058 1.825-6.126 31.056-11.67 22.394-4.247 52.984-6.586 86.135-6.586.03 0 .06-.01.09-.01.032 0 .06.01.092.01 33.15 0 63.74 2.33 86.135 6.58 29.23 5.54 31.056 11.61 31.056 11.67 0 19.82 20.616 34.97 40.644 36.99v60.095h-15.475v-37.64c0-11.19-13.9-19.954-31.644-19.954zm22.644 19.953v37.644h-114.08V146.13c0-5.17 9.685-10.953 22.644-10.953H316c12.96 0 22.644 5.783 22.644 10.953zm-152.823 0v37.644H71.734V146.13c0-5.17 9.685-10.953 22.645-10.953h68.79c12.96 0 22.64 5.783 22.64 10.953zM21.627 192.774h367.118c13.168 7.237 12.65 23.3 12.62 23.98a5.48 5.48 0 0 0-.005.222v37.756H9.012v-37.756a4.72 4.72 0 0 0-.005-.206c-.03-.695-.548-16.76 12.62-23.996zm15.555 147.73c0 2.868-4.042 6.4-5.988 7.653a4.502 4.502 0 0 0-2.088 3.8v9.192H17.08v-9.2a4.52 4.52 0 0 0-2.078-3.79C13.044 346.9 9 343.37 9 340.5c0-3.827 3.11-6.94 6.934-6.95H30.25a6.96 6.96 0 0 1 6.932 6.952zm358.2 7.652a4.5 4.5 0 0 0-2.09 3.8v9.192h-12.026v-9.193c0-1.53-.79-2.963-2.076-3.792-1.958-1.26-6-4.792-6-7.66a6.96 6.96 0 0 1 6.93-6.952h14.317c3.825.02 6.934 3.13 6.934 6.96 0 2.87-4.04 6.4-5.99 7.655z"/><path d="M385.597 314.086H216.102a4.5 4.5 0 0 1-4.5-4.5V278.7a4.5 4.5 0 0 1 4.5-4.5h169.494a4.5 4.5 0 0 1 4.5 4.5v30.886a4.5 4.5 0 0 1-4.5 4.5zm-164.995-9h160.494V283.2H220.602v21.886z"/></svg>