<svg xmlns="http://www.w3.org/2000/svg" viewBox="0 0 439.421 439.421"><path d="M296.828 41.114a4.5 4.5 0 0 0-3.462-1.625h-12.6C278.072 17.4 251.726 0 219.712 0s-58.36 17.4-61.056 39.49h-12.6a4.502 4.502 0 0 0-4.422 5.325l5 26.76a4.5 4.5 0 0 0 4.423 3.675h7.128v321.73l-9.748 19.723c-.025.05-.466.736-.466 1.994v16.224a4.5 4.5 0 0 0 4.5 4.5h134.48a4.5 4.5 0 0 0 4.5-4.5V418.7c0-1.216-.44-1.944-.465-1.994l-9.747-19.72V75.25h7.126a4.5 4.5 0 0 0 4.424-3.674l5-26.76a4.503 4.503 0 0 0-.962-3.702zM219.71 9c26.91 0 49.13 13.37 51.984 30.49h-9.287c-4.612-11.445-19.8-22.086-42.67-22.228-22.866-.183-38.105 10.566-42.732 22.227h-9.278C170.582 22.37 192.802 9 219.71 9zm54.232 393.532l5.766 11.665H159.712l5.766-11.665h108.464zm-116.973 27.89v-7.225h125.48v7.224H156.97zm115.27-36.89H167.18V75.25h7.536v300.772a4.5 4.5 0 0 0 4.5 4.5H260.2a4.5 4.5 0 0 0 4.5-4.5V75.25h7.537v318.282zM187.712 75.25a4.5 4.5 0 0 0 4.193-2.867c4.36-11.19 15.532-18.71 27.803-18.71 12.27 0 23.442 7.518 27.803 18.71a4.5 4.5 0 0 0 4.193 2.867h3.995v9.306h-17.075c-3.66-7.985-10.938-13.17-18.915-13.17-7.976 0-15.254 5.185-18.913 13.17H183.72V75.25h3.996zm-3.996 296.272V249.84h9.818a4.5 4.5 0 0 0 4.5-4.5v-45.7a4.5 4.5 0 0 0-4.5-4.5h-2.66v-20.602h24.333v7.596h-2.66a4.5 4.5 0 0 0-4.5 4.5v45.7a4.5 4.5 0 0 0 4.5 4.5h2.66v59.595c-8.76 2.043-15.31 9.9-15.31 19.274 0 10.924 8.886 19.812 19.81 19.812 10.925 0 19.81-8.888 19.81-19.812 0-9.375-6.55-17.232-15.31-19.277V236.83h2.658a4.5 4.5 0 0 0 4.5-4.5v-45.7a4.5 4.5 0 0 0-4.5-4.5h-2.66v-7.594h24.333v20.602h-2.66a4.5 4.5 0 0 0-4.5 4.5v45.7a4.5 4.5 0 0 0 4.5 4.5h9.82V371.52h-71.984zm0-205.984V93.556H255.7v71.982h-71.98zm35.99-85.15c3.13 0 6.11 1.555 8.366 4.168h-16.73c2.255-2.614 5.236-4.17 8.365-4.17zM250.38 204.14h5.32v36.7h-5.32v-36.7zm-61.344 0v36.7h-5.32v-36.7h5.32zm30.674 100.754c5.96 0 10.81 4.85 10.81 10.813 0 5.962-4.85 10.812-10.81 10.812-5.962 0-10.813-4.85-10.813-10.815 0-5.963 4.85-10.813 10.812-10.813zm2.657-113.76v36.7h-5.32v-36.7h5.32zM284.63 66.25h-29.99c-6.39-13.024-20.047-21.578-34.93-21.578-14.886 0-28.545 8.554-34.932 21.578H154.79l-3.32-17.76h28.862a4.497 4.497 0 0 0 4.413-3.642c1.533-7.23 12.238-18.588 34.525-18.588h.41c22.665.143 33.48 11.462 34.993 18.588.102.526.305 1.012.572 1.455a.3.3 0 0 1 .02.04c.128.206.274.396.433.58l.03.033a4.467 4.467 0 0 0 3.357 1.532h28.86l-3.318 17.762z"/><path d="M251.69 130.103c.306-17.633-13.792-32.23-31.424-32.535l-.565-.005c-17.324 0-31.665 14.1-31.97 31.43-.304 17.632 13.79 32.228 31.426 32.535l.565.005c17.33 0 31.67-14.1 31.97-31.43zm-54.96-.955c.217-12.453 10.522-22.585 22.972-22.585l.408.003c12.67.222 22.8 10.71 22.583 23.382-.217 12.453-10.522 22.585-22.973 22.585l-.408-.003c-12.672-.222-22.802-10.71-22.582-23.382z"/><path d="M226.52 142.9a4.5 4.5 0 0 0 3.564-7.243l-5.873-7.64v-8.382a4.5 4.5 0 0 0-9 0v9.91a4.5 4.5 0 0 0 .935 2.742l6.806 8.854a4.487 4.487 0 0 0 3.57 1.76z"/></svg>