<svg xmlns="http://www.w3.org/2000/svg" viewBox="0 0 436.582 436.582"><path d="M335.896 431.138l-49.536-230.83h11.26c8.968 0 16.264-7.296 16.264-16.264s-7.296-16.264-16.264-16.264h-.26l17.383-42.564c.353-.494 5.753-25.427 5.753-25.427a4.492 4.492 0 0 0-4.017-5.41v-.01c-.68-.06-16.3-1.584-16.74-16.347.03-.21.06-.42.06-.64C299.72 33.27 264.67 0 218.29 0s-81.425 33.27-81.513 77.394c0 .227.033.443.066.66-.437 14.35-15.05 16.167-16.753 16.327v.01a4.492 4.492 0 0 0-4.002 5.41l5.237 24.52 17.753 43.47h-.113c-8.968 0-16.264 7.296-16.264 16.264s7.3 16.264 16.27 16.264h11.26l-49.54 230.83a4.5 4.5 0 0 0 4.4 5.444h15.36a4.5 4.5 0 0 0 4.37-3.414l10.855-43.675h165.25l10.85 43.676a4.5 4.5 0 0 0 4.37 3.413h15.36a4.498 4.498 0 0 0 4.4-5.447zm-46.5-267.665l7.01-36.362h7.842l-14.85 36.37zm1.39-86.727c-.03.217-.065.432-.065.656 0 7.477 2.59 12.984 6.24 16.96h-15.44l6.86-35.126a69.334 69.334 0 0 1 2.41 17.51zm-37.673-59.86c12.4 6.136 22.45 15.562 29.045 27.222l-9.814 50.256h-24.686l5.455-77.48zM218.29 9c9.278 0 18.038 1.5 26.056 4.25l-5.71 81.113h-40.69l-5.71-81.114c8.02-2.75 16.78-4.25 26.056-4.25zm-34.82 7.885l5.454 77.48h-24.686l-9.813-50.257c6.595-11.66 16.644-21.087 29.045-27.223zM145.796 76.73c.07-6.096.902-11.952 2.413-17.496l6.85 35.13h-15.43c3.65-3.978 6.23-9.485 6.23-16.962 0-.23-.034-.45-.067-.67zm-19.76 26.633h184.51l-3.105 14.747H129.15l-3.106-14.747zM287.24 127.11l-7.84 40.67h-12.06l7.847-40.67h12.053zm-21.218 0l-7.848 40.67H242.49l2.865-40.67h20.665zm-29.688 0l-2.864 40.67h-3.83v-40.67h6.694zm-15.695 0v40.67h-4.69v-40.67h4.69zm-13.69 0v40.67h-3.84l-2.864-40.67h6.695zm-12.86 40.67h-15.68l-7.85-40.67h20.665l2.86 40.67zm-24.85 0h-12.06l-7.84-40.67h12.06l7.843 40.67zm-37.056-40.67h7.99l7.14 37.04-15.13-37.04zm6.775 64.198c-4.005 0-7.264-3.26-7.264-7.264s3.26-7.264 7.265-7.264h158.66c4.004 0 7.263 3.26 7.263 7.264s-3.26 7.264-7.264 7.264H138.96zm27.46 74.416l1.49-6h100.75l1.492 6h-103.73zm105.97 9l22.557 90.768H141.63l22.557-90.768h108.205zm-102.243-24l12.527-50.416h71.22l12.53 50.415h-96.28zm-53.22 176.856h-6.274l48.773-227.274h13.98l-56.48 227.274zm20.974-47.09l1.49-6h157.795l1.492 6H137.9zm181.753 47.09l-56.48-227.274h13.98l48.772 227.274h-6.272z"/></svg>