<svg xmlns="http://www.w3.org/2000/svg" viewBox="0 0 424.607 424.607"><path d="M265.69 121.653H158.916a4.5 4.5 0 0 1-4.5-4.5c0-31.918 25.968-57.885 57.886-57.885s57.886 25.967 57.886 57.885a4.5 4.5 0 0 1-4.5 4.5zm-102.068-9h97.36c-2.278-24.854-23.24-44.385-48.68-44.385s-46.4 19.532-48.68 44.385zm84.072 82.58h-70.78a4.5 4.5 0 0 1-4.5-4.5V176.48a4.5 4.5 0 0 1 4.5-4.5h70.78a4.5 4.5 0 0 1 4.5 4.5v14.253a4.5 4.5 0 0 1-4.5 4.5zm-66.28-9h61.78v-5.252h-61.78v5.26zm97.158-61.826H146.036a4.5 4.5 0 0 0-4.5 4.5v35.152a4.5 4.5 0 0 0 4.5 4.5h132.536a4.5 4.5 0 0 0 4.5-4.5V128.9a4.5 4.5 0 0 0-4.5-4.5zm-61.77 9h24.136v26.152h-24.135V133.4zm-9 26.153H183.67v-26.152h24.133v26.152zm-57.266-26.153h24.134v26.152h-24.134V133.4zm123.536 26.153h-24.134v-26.152h24.134v26.152zM162.378 383.28H141.95a4.5 4.5 0 0 1-4.5-4.5v-10.927a4.5 4.5 0 0 1 4.5-4.5h20.428a4.5 4.5 0 0 1 4.5 4.5v10.926a4.5 4.5 0 0 1-4.5 4.5zm-15.927-9h11.43v-1.927h-11.43v1.926zm136.21 9h-20.43a4.5 4.5 0 0 1-4.5-4.5v-10.927a4.5 4.5 0 0 1 4.5-4.5h20.43a4.5 4.5 0 0 1 4.5 4.5v10.926a4.5 4.5 0 0 1-4.5 4.5zm-15.93-9h11.43v-1.927h-11.43v1.926z"/><path d="M329.966 164.283a4.5 4.5 0 0 0 4.5-4.5V123.68a4.5 4.5 0 0 0-4.5-4.5h-2.33c-.892-23.528-8.776-45.812-22.946-64.7-13.12-17.488-31.246-31.053-51.58-38.77a4.497 4.497 0 0 0 2.266-5.91 4.478 4.478 0 0 0-2.416-2.344l.002-.01C239.977 2.506 226.298 0 212.302 0c-13.982 0-27.653 2.502-40.63 7.437l.002.007a4.475 4.475 0 0 0-2.443 2.358 4.496 4.496 0 0 0 2.27 5.908c-20.33 7.72-38.46 21.283-51.573 38.77-14.17 18.89-22.055 41.173-22.947 64.7h-2.33a4.5 4.5 0 0 0-4.5 4.5v36.105a4.5 4.5 0 0 0 4.5 4.5h2.15V313h-2.15a4.5 4.5 0 0 0-4.5 4.5v36.104a4.5 4.5 0 0 0 4.5 4.5h2.15v62.006a4.5 4.5 0 0 0 4.5 4.5h222.02a4.5 4.5 0 0 0 4.5-4.5v-62.006h2.15a4.5 4.5 0 0 0 4.5-4.5V317.5a4.5 4.5 0 0 0-4.5-4.5h-2.15V164.283h2.15zM318.63 119.18h-18.88c-1.955-38.402-28.754-70.354-64.612-80.047.455-2.68 1.288-5.307 2.563-8.063a31.814 31.814 0 0 1 6.25-9.026c43.3 13.463 72.83 52.116 74.68 97.136zm-27.84 193.818h-2.15a4.5 4.5 0 0 0-4.5 4.5v36.104a4.5 4.5 0 0 0 4.5 4.5h2.15v34.704H133.82v-34.704h2.15a4.5 4.5 0 0 0 4.5-4.5v-36.104a4.5 4.5 0 0 0-4.5-4.5h-2.15V164.283h2.15a4.5 4.5 0 0 0 4.5-4.5V123.68a4.5 4.5 0 0 0-4.5-4.5h-2.103c2.34-41.238 36.622-74.073 78.437-74.073s76.088 32.836 78.43 74.073h-2.095a4.5 4.5 0 0 0-4.5 4.5v36.104a4.5 4.5 0 0 0 4.5 4.5h2.15v148.714zM212.302 9c9.676 0 19.185 1.3 28.382 3.868-4.684 3.813-8.517 8.73-11.15 14.423-1.54 3.33-2.59 6.62-3.197 9.95a87.88 87.88 0 0 0-14.034-1.13c-4.776 0-9.463.39-14.034 1.13-.61-3.33-1.66-6.62-3.2-9.94-2.64-5.693-6.47-10.61-11.15-14.42A105.212 105.212 0 0 1 212.3 9zm-31.64 13.044a31.84 31.84 0 0 1 6.243 9.027c1.275 2.76 2.108 5.39 2.563 8.07-35.86 9.696-62.658 41.646-64.612 80.05h-18.882c1.852-45.018 31.38-83.67 74.686-97.136zM99.14 128.18h32.33v9.053H99.14v-9.053zm0 18.052h32.33v9.05H99.14v-9.05zm25.68 18.05V313h-19.03V164.283h19.03zM99.14 322h32.33v9.052H99.14V322zm25.68 93.61h-19.03V358.1h19.028v57.507zM99.14 349.1v-9.052h32.33v9.052H99.14zm34.68 66.505v-13.802h156.97v13.802H133.82zm184.996 0H299.79V358.1h19.026v57.507zm6.65-66.505h-32.328v-9.052h32.328v9.052zm0-18.052h-32.328v-9.052h32.328v9.052zm-25.677-18.052V164.283h19.02v148.715h-19.02zm25.67-157.716h-32.33v-9.05h32.33v9.05zm0-18.05h-32.33v-9.05h32.33v9.05z"/><path d="M273.44 201.363H151.166a4.5 4.5 0 0 0-4.5 4.5v96.94c0 36.19 29.444 65.636 65.636 65.636s65.636-29.45 65.636-65.64v-96.94a4.5 4.5 0 0 0-4.5-4.5zm-27.052 73.523l3.244-7.764v15.418l-3.244-7.654zm3.244-31.108l-8.156 19.52-9.65-22.768 9.46-22.64 8.215 19.382c.04.092.09.176.14.264v6.242zm-46.43 65.252l9.46-22.637 9.65 22.766-9.46 22.63-9.65-22.77zm4.547-34.226l-9.46 22.638-9.65-22.77 9.46-22.637 9.65 22.77zm-4.8-34.382l9.46-22.636 9.65 22.77-9.46 22.635-9.65-22.76zm14.56 34.357l9.46-22.64 9.65 22.76-9.46 22.636-9.65-22.767zm9.4-45.84l-7.88-18.58h15.637l-7.763 18.57zm-28.88-.11l-7.83-18.47h15.55l-7.72 18.47zm-4.854 11.61l-9.46 22.634-8.75-20.648v-4.31c.03-.064.07-.12.095-.188l8.467-20.26 9.65 22.767zm-14.314 34.25l-3.9 9.33v-18.53l3.9 9.195zm4.912 11.59l9.65 22.77-8.14 19.48c-5.515-5.79-9.197-13.33-10.1-21.698l8.59-20.556zm14.56 34.36l8.064 19.02a37.073 37.073 0 0 1-13.84-5.197l5.776-13.826zm28.876.1l5.604 13.215a37.082 37.082 0 0 1-13.416 5.482l7.813-18.7zm12.77 7.06l-7.915-18.676 9.46-22.636 8 18.872c-.588 8.6-4.093 16.41-9.543 22.44zm9.64-113.29l-1.76-4.156h1.76v4.156zm-72.795-4.157l-1.86 4.457v-4.456h1.86zm92.104 92.44c0 31.23-25.41 56.636-56.64 56.636s-56.635-25.407-56.635-56.637v-92.44h10.31v92.44c0 25.545 20.782 46.33 46.33 46.33s46.33-20.785 46.33-46.33v-92.44h10.304v92.44z"/></svg>