<svg xmlns="http://www.w3.org/2000/svg" viewBox="0 0 425.965 425.965"><path d="M255.546 165.768a4.494 4.494 0 0 1-1.515-.264l-42.69-15.262a4.5 4.5 0 0 1-2.7-2.667l-14.9-40.024a4.5 4.5 0 0 1 2.65-5.78 4.5 4.5 0 0 1 5.786 2.65l14.17 38.063 40.725 14.557a4.5 4.5 0 0 1-1.514 8.74z"/><path d="M212.982 67.616c-43.224 0-78.39 35.165-78.39 78.39 0 43.223 35.166 78.388 78.39 78.388 43.224 0 78.39-35.165 78.39-78.39 0-43.223-35.166-78.388-78.39-78.388zm4.5 147.615v-7.9a4.5 4.5 0 0 0-9 0v7.91c-34.68-2.23-62.494-30.046-64.727-64.726h7.907a4.5 4.5 0 0 0 0-9h-7.907c2.233-34.68 30.046-62.494 64.727-64.727v7.906a4.5 4.5 0 0 0 9 0v-7.91c34.68 2.23 62.495 30.047 64.728 64.727h-7.908a4.5 4.5 0 0 0 0 9h7.908c-2.233 34.68-30.046 62.494-64.728 64.726zm-55.266 90.1H127.04a4.5 4.5 0 0 1-3.762-6.955c5.6-8.59 16.327-31.437 16.86-56.436a4.5 4.5 0 0 1 7.818-2.94c.06.064 7.214 7.67 17.504 9.54a4.498 4.498 0 0 1 2.945 6.914c-.566.86-13.862 21.593-2.218 43.25a4.5 4.5 0 0 1-3.966 6.63zm-27.388-9h20.453c-6.17-17.05-.99-32.64 2.71-40.512-3.67-1.31-6.86-3.06-9.43-4.766-1.94 18.42-8.29 34.827-13.73 45.28zm128.922 9a4.5 4.5 0 0 1-3.964-6.63c11.644-21.66-1.653-42.39-2.225-43.26a4.51 4.51 0 0 1-.37-4.25 4.5 4.5 0 0 1 3.33-2.66c10.4-1.89 17.436-9.46 17.505-9.54a4.502 4.502 0 0 1 7.82 2.948c.53 24.997 11.26 47.847 16.857 56.436a4.5 4.5 0 0 1-3.77 6.956h-35.18zm4.228-49.512c3.702 7.875 8.887 23.467 2.707 40.517h20.452c-5.44-10.456-11.79-26.86-13.73-45.28-2.57 1.706-5.753 3.456-9.43 4.766z"/><path d="M425.593 356.104l-20.99-48.36c2.55-4.03 3.874-8.822 3.874-14.3a4.5 4.5 0 0 0-9 0c0 18.775-23.014 19.095-23.984 19.1-30.4 0-50.643-11.254-61.885-34.4-9.385-19.326-10.65-42.908-10.65-63.43 0-11.242 1.955-22.102 5.452-31.603.212-.54.422-1.09.625-1.64 4.154-10.55 10.25-19.3 17.714-24.81a4.5 4.5 0 1 0-5.35-7.24c-2.27 1.677-4.42 3.585-6.446 5.688.265-2.997.41-6.03.41-9.095 0-56.456-45.93-102.387-102.39-102.387-56.455 0-102.386 45.93-102.386 102.388 0 3.064.143 6.093.41 9.087a51.394 51.394 0 0 0-6.438-5.672 4.5 4.5 0 0 0-5.347 7.24c7.482 5.524 13.587 14.3 17.74 24.895.186.5.376.997.57 1.492 3.51 9.52 5.475 20.404 5.475 31.674 0 20.52-1.263 44.1-10.65 63.426-11.24 23.148-31.48 34.4-61.88 34.4-.065 0-6.4-.07-12.52-2.604-7.718-3.194-11.468-8.59-11.468-16.494a4.5 4.5 0 0 0-9 0c0 5.48 1.325 10.27 3.874 14.3L.364 356.126C0 356.95 0 357.876 0 357.896v19.95a4.5 4.5 0 0 0 4.5 4.5h70.247a4.5 4.5 0 0 0 4.5-4.5v-15.45H346.72v15.45a4.5 4.5 0 0 0 4.5 4.5h70.245a4.5 4.5 0 0 0 4.5-4.5v-19.95c0-.9-.37-1.787-.372-1.79zm-91.22-43.56h-95.79c9.417-7.532 15.47-19.103 15.47-32.07 0-14.465-7.518-27.203-18.85-34.522 23.82-5.295 44.544-18.903 58.95-37.62a107.764 107.764 0 0 0-.196 6.383c0 23.12.01 76.54 40.417 97.828zm-125.89-54.574c-10.508 2.097-18.45 11.39-18.45 22.503 0 12.654 10.295 22.95 22.95 22.95 12.653 0 22.948-10.296 22.948-22.95 0-11.114-7.94-20.406-18.44-22.503v-9.245c15.56 2.195 27.57 15.592 27.57 31.748 0 17.684-14.385 32.07-32.07 32.07s-32.07-14.387-32.07-32.07c0-16.156 12.01-29.553 27.57-31.748v9.245zm4.5 8.553c7.69 0 13.948 6.258 13.948 13.95s-6.25 13.948-13.94 13.948c-7.69 0-13.95-6.25-13.95-13.94s6.26-13.95 13.95-13.95zm-93.387-120.518c0-51.493 41.893-93.387 93.387-93.387s93.388 41.894 93.388 93.387-41.89 93.387-93.38 93.387-93.385-41.894-93.385-93.387zm12.41 68.71c0-2.146-.067-4.27-.19-6.38 14.408 18.72 35.137 32.33 58.96 37.62-11.337 7.316-18.865 20.05-18.865 34.518 0 12.966 6.05 24.54 15.47 32.07H91.59c40.406-21.288 40.417-74.707 40.417-97.828zM28.126 314.763a32.704 32.704 0 0 0 6.384 3.49c7.857 3.255 15.638 3.29 15.964 3.29h325.02c.346 0 8.115-.04 15.963-3.29a32.667 32.667 0 0 0 6.38-3.49l8.22 18.936H19.907l8.22-18.94zm42.12 58.584H9v-10.95h61.247v10.95zm-58.886-19.95l4.64-10.7h393.96l4.644 10.697H11.36zm405.605 19.95H355.72v-10.95h61.245v10.95z"/></svg>