<svg xmlns="http://www.w3.org/2000/svg" viewBox="0 0 451.894 451.894"><path d="M153.085 296.735h145.723a4.5 4.5 0 0 0 4.5-4.5V245.79a4.5 4.5 0 0 0-4.5-4.5H153.085a4.5 4.5 0 0 0-4.5 4.5v46.445a4.5 4.5 0 0 0 4.5 4.5zm4.5-46.444h136.723v37.45H157.585v-37.45z"/><path d="M225.947 256.204c-7.063 0-12.81 5.746-12.81 12.81 0 7.062 5.747 12.81 12.81 12.81s12.81-5.748 12.81-12.81c0-7.064-5.747-12.81-12.81-12.81zm0 16.618c-2.1 0-3.81-1.71-3.81-3.81s1.71-3.81 3.81-3.81 3.81 1.71 3.81 3.81-1.71 3.81-3.81 3.81zm-72.862 92.94h145.723a4.5 4.5 0 0 0 4.5-4.5v-46.444a4.5 4.5 0 0 0-4.5-4.5H153.085a4.5 4.5 0 0 0-4.5 4.5v46.444a4.5 4.5 0 0 0 4.5 4.5zm4.5-46.445h136.723v37.444H157.585v-37.44z"/><path d="M225.947 325.23c-7.063 0-12.81 5.746-12.81 12.81 0 7.062 5.747 12.81 12.81 12.81s12.81-5.748 12.81-12.81c0-7.063-5.747-12.81-12.81-12.81zm0 16.62c-2.1 0-3.81-1.71-3.81-3.81s1.71-3.81 3.81-3.81 3.81 1.708 3.81 3.81c0 2.1-1.71 3.81-3.81 3.81z"/><path d="M328.048 418.12a4.5 4.5 0 0 0 1.476-4.75l-8.022-27.422V221.104l8.022-27.423a4.5 4.5 0 0 0-4.32-5.76H242.52c10.475-12.19 16.783-34.31 16.783-50.67 0-20.6-9.455-31.34-28.855-32.73v-3.663h32.376v29.283a4.5 4.5 0 0 0 9 0v-29.29h13.565a4.5 4.5 0 0 0 3.22-7.64c-.31-.32-31.16-32.484-34.58-75.32a4.5 4.5 0 0 0-4.49-4.143h-9.89C238.14 5.765 232.67 0 225.95 0c-6.722 0-12.194 5.764-13.712 13.745h-9.89a4.5 4.5 0 0 0-4.487 4.142c-3.43 42.837-34.27 75-34.58 75.318a4.5 4.5 0 0 0 3.22 7.642h54.945v3.664c-19.4 1.4-28.857 12.14-28.857 32.74 0 16.36 6.31 38.48 16.784 50.67h-82.686a4.498 4.498 0 0 0-4.32 5.76l8.023 27.43v164.84l-8.02 27.425a4.5 4.5 0 0 0 1.475 4.75 14.653 14.653 0 0 0-1.657 6.765c0 5.77 4.45 10.275 7.23 12.526v9.982a4.5 4.5 0 0 0 4.5 4.5h18.82a4.5 4.5 0 0 0 4.5-4.5v-9.98c2.78-2.253 7.23-6.76 7.23-12.528 0-2.04-.416-3.983-1.168-5.75h125.29a14.673 14.673 0 0 0-1.168 5.75c0 5.77 4.45 10.275 7.23 12.526v9.982a4.5 4.5 0 0 0 4.5 4.5h18.82a4.5 4.5 0 0 0 4.5-4.5v-9.98c2.78-2.253 7.23-6.76 7.23-12.528a14.63 14.63 0 0 0-1.66-6.77zm-195.355-7.985l1.39-4.756H317.81l1.39 4.75H132.694zm182.484-199.46l-1.39 4.755h-175.68l-1.39-4.756h178.46zM136.717 396.38l1.39-4.758h175.68l1.39 4.756h-178.46zm175.786-171.95v158.19H139.39V224.43h173.113zM230.448 22.744h4.736c.93 11.677 4.663 44.402 18.35 69.102H230.45v-69.1zm45.144 69.103h-11.586c-14.505-22.64-18.695-56.73-19.773-69.102h1.24c3.753 31.833 20.594 57.067 30.12 69.102zM225.948 9c1.667 0 3.47 1.864 4.437 4.745h-8.875c.967-2.88 2.77-4.745 4.438-4.745zM206.42 22.745h1.245c-1.072 12.366-5.25 46.434-19.776 69.102H176.3c9.525-12.034 26.366-37.268 30.118-69.102zm-8.06 69.103c13.688-24.7 17.422-57.425 18.35-69.102h4.738v69.102H198.36zm27.587 21.503c17.3 0 24.356 6.93 24.356 23.9 0 10.84-3.07 23.98-8.01 34.3-4.91 10.25-11.02 16.378-16.346 16.378-5.327 0-11.437-6.12-16.345-16.374-4.94-10.32-8.01-23.462-8.01-34.295 0-16.976 7.055-23.9 24.355-23.9zm93.253 83.57l-1.39 4.76H134.084l-1.39-4.752H319.2zM155.47 424.89c0 2.138-3.077 5.12-5.143 6.452a4.502 4.502 0 0 0-2.088 3.8v7.756h-9.83v-7.758c0-1.53-.79-2.962-2.076-3.79-2.08-1.34-5.155-4.322-5.155-6.46 0-3.17 2.58-5.75 5.752-5.75h12.78c3.17 0 5.75 2.578 5.75 5.75zm160.094 6.45a4.502 4.502 0 0 0-2.088 3.8v7.758h-9.82v-7.758c0-1.53-.792-2.962-2.076-3.79-2.08-1.34-5.155-4.322-5.155-6.46 0-3.17 2.58-5.75 5.752-5.75h12.78c3.17 0 5.75 2.58 5.75 5.75 0 2.138-3.078 5.12-5.143 6.45z"/></svg>