<svg xmlns="http://www.w3.org/2000/svg" viewBox="0 0 371.849 371.849"><path d="M371.85 85.03v-6.99c0-22.71-12.072-40.5-27.483-40.5H27.482C12.072 37.54 0 55.33 0 78.04v6.99c0 15.266 5.46 28.3 13.718 35.21C5.524 125 0 133.87 0 144.01v4.463c0 8.706 4.074 16.474 10.41 21.513-3.15 5.59-17.703 34.984 1.256 71.382 10.54 20.235 8.094 27.722 3.158 36.834-5.34 9.86-11.99 22.13-6.804 33.077 3.868 8.16 8.02 19.9 8.062 20.02a4.5 4.5 0 0 0 4.244 3h22.47a4.5 4.5 0 0 0 4.232-6.036c-1.833-5.05-5.663-19.787-1.432-27.19 5.454-9.545 16.802-29.407 2.016-65.25-9.543-23.134-3.7-28.64 4.93-33.435 9.868-5.48 36.334-8.408 60.36.357l.97.353c10.46 3.83 38.243 14.005 72.055 14.005s61.596-10.17 72.056-14l.97-.356c24.025-8.766 50.49-5.84 60.358-.358 8.63 4.794 14.48 10.3 4.93 33.436-14.78 35.84-3.43 55.703 2.02 65.247 4.22 7.376.4 22.134-1.43 27.194a4.503 4.503 0 0 0 4.23 6.035h22.47a4.5 4.5 0 0 0 4.25-3.004c.042-.116 4.19-11.85 8.062-20.022 5.185-10.948-1.463-23.22-6.804-33.08-4.936-9.112-7.383-16.6 3.158-36.834 18.96-36.4 4.406-65.795 1.257-71.383 6.336-5.04 10.41-12.803 10.41-21.51v-4.462c0-10.14-5.524-19.01-13.72-23.773 8.255-6.91 13.715-19.943 13.715-35.21zM27.48 46.54h316.885c6.343 0 12.06 5.787 15.403 14.364-6.048.578-9.828 1.976-13.24 3.25-4.255 1.588-7.93 2.96-16.148 2.96-8.247 0-12.275-1.447-16.54-2.98-4.578-1.645-9.768-3.51-19.582-3.51-9.813 0-15.002 1.865-19.58 3.51-4.265 1.532-8.293 2.98-16.538 2.98-8.246 0-12.273-1.448-16.537-2.98-4.578-1.646-9.767-3.51-19.58-3.51-9.814 0-15.003 1.865-19.58 3.51-4.265 1.532-8.292 2.98-16.537 2.98s-12.273-1.448-16.536-2.98c-4.578-1.646-9.767-3.51-19.58-3.51-9.812 0-15 1.865-19.577 3.51-4.263 1.532-8.29 2.98-16.534 2.98s-12.27-1.448-16.54-2.98c-4.578-1.646-9.766-3.51-19.578-3.51-9.813 0-15 1.865-19.58 3.51-4.263 1.532-8.29 2.98-16.535 2.98-8.216 0-11.89-1.373-16.143-2.96-3.41-1.274-7.183-2.677-13.23-3.254 3.343-8.576 9.06-14.36 15.4-14.36zM9 85.03v-6.99c0-2.863.243-5.65.686-8.308 5.753.35 8.918 1.523 12.478 2.853 4.43 1.654 9.45 3.53 19.29 3.53 9.814 0 15.003-1.866 19.58-3.51 4.265-1.533 8.292-2.98 16.537-2.98s12.27 1.447 16.54 2.98c4.58 1.645 9.77 3.51 19.58 3.51 9.814 0 15-1.866 19.58-3.51 4.26-1.533 8.29-2.98 16.53-2.98 8.246 0 12.27 1.447 16.537 2.98 4.58 1.645 9.768 3.51 19.58 3.51 9.814 0 15-1.866 19.58-3.51 4.264-1.534 8.29-2.98 16.536-2.98 8.246 0 12.27 1.446 16.538 2.978 4.58 1.646 9.77 3.51 19.58 3.51 9.815 0 15.004-1.865 19.583-3.51 4.263-1.533 8.29-2.98 16.536-2.98s12.273 1.447 16.537 2.98c4.58 1.645 9.77 3.51 19.583 3.51 9.843 0 14.865-1.876 19.296-3.53 3.56-1.33 6.732-2.5 12.485-2.85.444 2.658.687 5.442.687 8.305v6.99c0 .69-.02 1.374-.047 2.054-7.215.44-11.646 1.98-15.61 3.368-4.396 1.54-8.547 2.992-16.81 2.992-8.248 0-12.276-1.447-16.54-2.98-4.58-1.645-9.77-3.51-19.584-3.51-9.812 0-15 1.866-19.58 3.51-4.263 1.534-8.29 2.98-16.536 2.98-8.245 0-12.27-1.446-16.536-2.978-4.58-1.646-9.768-3.51-19.58-3.51-9.815 0-15.003 1.865-19.58 3.51-4.266 1.532-8.293 2.98-16.538 2.98-8.244 0-12.27-1.448-16.535-2.98-4.58-1.646-9.762-3.51-19.58-3.51-9.81 0-15 1.865-19.58 3.51-4.26 1.532-8.29 2.98-16.53 2.98s-12.27-1.448-16.53-2.98c-4.58-1.646-9.767-3.51-19.58-3.51-9.813 0-15.002 1.865-19.58 3.51-4.264 1.532-8.29 2.98-16.535 2.98-8.263 0-12.415-1.455-16.81-2.993-3.966-1.38-8.393-2.92-15.603-3.36A57.968 57.968 0 0 1 9 85.03zm345.426 90.928c3.61 7.17 13.308 31.433-2.226 61.254-11.38 21.848-9.865 32.77-3.088 45.28 5.56 10.264 9.576 18.618 6.583 24.937-2.872 6.06-5.795 13.72-7.328 17.88h-13.262c1.904-7.47 3.91-20.04-1.038-28.7-5.108-8.94-14.616-25.58-1.51-57.35 9.488-23 6.915-35.96-8.88-44.738-13.048-7.248-42.685-9.398-67.814-.23l-.98.357c-10.995 4.026-36.745 13.454-68.96 13.454s-57.965-9.428-68.96-13.454l-.98-.356c-25.128-9.168-54.765-7.02-67.813.23-15.795 8.774-18.368 21.735-8.88 44.735 13.106 31.77 3.598 48.41-1.51 57.35-4.946 8.66-2.94 21.23-1.038 28.69H23.48c-1.533-4.16-4.456-11.82-7.328-17.88-2.993-6.32 1.023-14.673 6.584-24.94 6.776-12.51 8.292-23.43-3.09-45.28-15.538-29.83-5.827-54.1-2.225-61.25h337.01zm8.423-31.946v4.463c0 10.19-8.3 18.483-18.49 18.483H27.48c-10.188 0-18.48-8.292-18.48-18.483v-4.463c0-10.19 8.29-18.483 18.482-18.483h316.885c10.19 0 18.482 8.29 18.482 18.48zM27.48 116.53c-7.724 0-14.52-8.58-17.23-20.332 4.92.475 8.104 1.587 11.424 2.748 4.683 1.64 9.99 3.498 19.785 3.498 9.81 0 15-1.865 19.58-3.51 4.26-1.533 8.29-2.98 16.53-2.98 8.24 0 12.27 1.447 16.53 2.98 4.576 1.645 9.764 3.51 19.576 3.51 9.812 0 15-1.866 19.577-3.51 4.263-1.533 8.29-2.98 16.534-2.98 8.245 0 12.272 1.447 16.536 2.98 4.58 1.645 9.77 3.51 19.58 3.51 9.814 0 15-1.865 19.58-3.51 4.265-1.532 8.29-2.98 16.537-2.98s12.275 1.448 16.538 2.98c4.58 1.646 9.768 3.51 19.58 3.51 9.815 0 15.004-1.864 19.58-3.51 4.266-1.53 8.293-2.978 16.538-2.978 8.25 0 12.275 1.447 16.54 2.98 4.58 1.645 9.77 3.51 19.582 3.51 9.795 0 15.102-1.858 19.784-3.498 3.32-1.162 6.51-2.273 11.43-2.747-2.71 11.76-9.506 20.33-17.23 20.33H27.484z"/></svg>