<svg xmlns="http://www.w3.org/2000/svg" viewBox="0 0 417.864 417.864"><path d="M378.207 68.458a4.5 4.5 0 0 0-2.87-4.195L210.56.3a4.484 4.484 0 0 0-3.25.01l-.006-.01L42.526 64.262a4.5 4.5 0 0 0-2.87 4.195h-.002v.058c.043 20.89 22.49 37.877 50.076 37.877 21.038 0 39.074-9.883 46.477-23.838 10.02 12.504 33.118 21.578 61.57 23.468v130.363h-117.8a4.5 4.5 0 0 0-3.43 7.414l11.24 13.222 2.056 15.686a4.5 4.5 0 0 0 4.462 3.915h28.353l68.334 72.8-57.124 60.857a4.5 4.5 0 0 0 3.28 7.58h23.54a4.5 4.5 0 0 0 3.282-1.42l44.963-47.902 44.965 47.904c.85.906 2.04 1.42 3.28 1.42h23.56a4.5 4.5 0 0 0 3.022-7.834l-56.885-60.604 68.335-72.8h28.35a4.5 4.5 0 0 0 4.463-3.915l2.05-15.653 11.248-13.26a4.5 4.5 0 0 0-3.43-7.41H220.087V106.012c28.468-1.913 51.557-11.022 61.52-23.558 7.37 14.007 25.442 23.937 46.53 23.937 27.586 0 50.032-16.983 50.073-37.874v-.06zM208.932 10.454l61.64 53.504h-123.28l61.64-53.504zm-119.2 86.938c-20.477 0-37.5-10.61-40.578-24.435h81.15c-3.078 13.825-20.096 24.435-40.572 24.435zm43.83-33.434h-65.38l118.272-45.91-52.892 45.91zm25.178 344.906h-11.196l49.62-52.86 5.596 5.96-44.02 46.9zm111.58 0h-11.194L135 276.627h11.196L270.32 408.864zM158.54 276.627h100.784l-50.392 53.685-50.39-53.685zm62.162 66.224l-5.598-5.96 56.564-60.26h11.196l-62.162 66.224zm98.91-75.22H98.25l-1.047-8.003H320.66l-1.05 8.003zm8.56-22.24l-4.444 5.237H94.158l-4.452-5.238H328.17zm-121.392-9V106.37c.695.01 1.388.02 2.088.02.743 0 1.48-.01 2.217-.02v130.013h-4.305zm52.24-148.383c-13.322 6.055-31.132 9.39-50.152 9.39s-36.83-3.335-50.152-9.39c-9.43-4.286-15.68-9.596-17.944-15.046h136.19c-2.262 5.45-8.515 10.76-17.943 15.046zM231.41 18.05l118.272 45.91h-65.38l-52.89-45.91zm96.723 79.343c-20.477 0-37.49-10.61-40.57-24.435h81.146c-3.08 13.825-20.1 24.435-40.58 24.435z"/></svg>