<svg xmlns="http://www.w3.org/2000/svg" viewBox="0 0 445.011 445.011"><path d="M408.198 27.88c-.3-2.196-2.162-3.895-4.44-3.895h-92.18c-1.35-.074-18.51-1.165-27.316-8.56C269.282 2.852 244.606 0 222.505 0c-22.102 0-46.773 2.85-61.752 15.427-8.814 7.398-25.992 8.485-27.318 8.56H41.252a4.5 4.5 0 0 0-4.5 4.5V440.51a4.5 4.5 0 0 0 4.5 4.5H403.76a4.5 4.5 0 0 0 4.5-4.5l-.062-412.63zm-96.927 5.1c.07.004 36.96.005 36.96.005a14.978 14.978 0 0 0-1.67 6.874 14.99 14.99 0 0 0 4.428 10.67 4.5 4.5 0 0 0 6.36-6.368 6.05 6.05 0 0 1-1.785-4.31c0-1.63.636-3.16 1.79-4.313a8.687 8.687 0 0 1 6.185-2.56 8.69 8.69 0 0 1 6.185 2.562 11.98 11.98 0 0 1 3.532 8.526c0 3.22-1.257 6.25-3.537 8.53-2.662 2.663-7.786 4.42-13.722 4.705 0 0-41.616 1.89-56.765-17.6-3.235-4.163-6.555-7.932-9.916-11.28 10.357 3.99 21.33 4.52 21.96 4.548zM191.56 19.004c5.607.137 10.332 2.887 14.044 8.175 5.43 7.73 3.86 16.43-4.31 23.86-5.082 4.62-9.48 3.663-11.9 1.23-1.428-1.44-2.84-4.35-.883-6.47a4.5 4.5 0 1 0-6.613-6.1c-4.85 5.26-4.372 13.39 1.11 18.91 5.338 5.37 15.23 7.375 24.346-.915 11.55-10.506 13.703-24.184 5.62-35.694-4.366-6.22-10.03-10.125-16.566-11.477 7.85-1.126 16.55-1.51 26.11-1.53 9.554.017 18.255.403 26.11 1.528-6.538 1.355-12.2 5.26-16.568 11.48-8.084 11.513-5.93 25.19 5.62 35.695 9.117 8.293 19.01 6.283 24.346.91 5.482-5.52 5.96-13.65 1.11-18.91a4.502 4.502 0 0 0-6.36-.255 4.502 4.502 0 0 0-.257 6.36c1.955 2.12.543 5.03-.884 6.467-2.42 2.44-6.818 3.398-11.903-1.23-8.17-7.43-9.74-16.13-4.31-23.863 3.712-5.29 8.44-8.04 14.046-8.176 11.25-.26 25.68 9.537 38.66 26.235 15.05 19.36 43.956 21.157 54.17 21.157l34.413-.01v349.49H64.31V66.384h34.416c10.213 0 39.12-1.79 54.17-21.15 12.98-16.7 27.43-26.48 38.658-26.232zM75.298 35.548a8.687 8.687 0 0 1 6.184-2.562 8.68 8.68 0 0 1 6.187 2.563 6.062 6.062 0 0 1 1.78 4.31c0 1.63-.635 3.16-1.787 4.31a4.5 4.5 0 0 0 6.363 6.36 14.99 14.99 0 0 0 4.42-10.68 15 15 0 0 0-1.66-6.874s36.882 0 36.946-.004c.63-.027 11.607-.56 21.967-4.55-3.363 3.35-6.685 7.117-9.92 11.28-15.15 19.49-56.77 17.602-56.77 17.602-5.935-.288-11.06-2.044-13.72-4.707a11.99 11.99 0 0 1-3.536-8.53 11.98 11.98 0 0 1 3.54-8.53zM399.26 436.01H45.75V32.986h20.19a20.884 20.884 0 0 0-3.178 11.093 20.9 20.9 0 0 0 4.737 13.3h-7.7a4.5 4.5 0 0 0-4.5 4.5v358.49a4.5 4.5 0 0 0 4.5 4.5h325.4a4.5 4.5 0 0 0 4.5-4.5V61.882a4.5 4.5 0 0 0-4.5-4.5h-7.69a20.904 20.904 0 0 0 4.734-13.307c0-3.987-1.12-7.793-3.18-11.093h20.188V436.01z"/><path d="M215.726 212.74a4.484 4.484 0 0 1-2.966-1.117c-8.062-7.074-11.998-6.972-13.316-6.598-1.993.563-2.77 3.016-2.778 3.04-.66 2.397-3.13 3.774-5.525 3.112-2.39-.66-3.79-3.168-3.13-5.564.2-.73 2.17-7.207 8.81-9.196 6.07-1.814 13.43 1.024 21.88 8.44a4.5 4.5 0 0 1-2.97 7.883z"/><path d="M359.72 85.98H85.118a4.5 4.5 0 0 0-4.5 4.5v305.56a4.5 4.5 0 0 0 4.5 4.5H359.72a4.5 4.5 0 0 0 4.5-4.5V90.48a4.5 4.5 0 0 0-4.5-4.5zM168.04 391.54c3.226-14.16 18.86-39.5 25.38-49.16 1.058-1.384 18.517-23.675 44.183-25.602 16.653-1.25 33.416 6.353 49.77 22.604 14.817 14.723 18.33 41.498 19.153 52.158H168.038zm24.31-146.14h-.066c-9.334.144-15.355-1.82-17.763-2.798a77.945 77.945 0 0 1-3.21-9.645c.04.02.07.046.11.065l11.11 5.36a4.502 4.502 0 1 0 3.91-8.106l-7.733-3.733c1.48-5.585 4.188-16.444 5.243-24.893 1.23-9.836-5.56-15.002-11.57-17.19.976-3.572 2.354-6.87 3.438-9.083.982-.273 2.61-.592 4.874-.592 10.84 0 34.465 6.868 71.74 52.377a12.133 12.133 0 0 0-2.383-.243c-6.718 0-12.18 5.46-12.18 12.18 0 1.66.334 3.24.94 4.68-.01.02-.02.03-.026.05-4.164 11.67-18.826 15.42-24.346 16.832-.65.166-18.75 5.347-27.163 3.247-6.724-1.68-7.654-9.68-7.687-9.993-.02-.205-.072-.403-.12-.603 3.254.625 7.234 1.085 11.923 1.085.34 0 .68-.003 1.025-.008a4.5 4.5 0 0 0-.06-9zm-20.245-47.477c-.53-1.267-.816-2.68-.914-4.172 2.21 1.21 4.26 3.28 3.82 6.79-1.04 8.33-3.91 19.61-5.26 24.62-1.95-14.38 2-22.982 2.24-23.503a4.495 4.495 0 0 0 .12-3.725zm124.324.735v.027l12.51 123.305c0 .018.003.033.01.05 0 .038 0 .074.01.11l1.05 7.635c-2.527 1.434-7.677 3.532-15.17 2.598l-7.33-132.363c-.007-.07-3.468-26.14-3.468-26.14 3.584-25.88-18.248-39.5-20.685-40.93-7.6-5.17-14.696-7.76-21.078-8.74 11.304-6.39 25.877 3.728 26.074 3.81.22.1 21.855 10.7 27.85 68.478v.002s.15 1.487.216 2.163zm-34.38 38.46c1.21-1.57 2.31-3.395 3.51-5.453.34-.59.712-1.218 1.1-1.865 3.79-1.93 8.13-5.787 12.773-12.956l2.24 40.563c-3.038-.26-7.253-.438-12.547-.253l-7.263-13.308a4.433 4.433 0 0 0-.394-.578c.477-1.303.75-2.7.75-4.167 0-.67-.07-1.33-.176-1.98zm-3.63-96.643c.103.058 10.564 6.207 14.92 17.043-8.455-8.693-22.988-18.943-46.628-23.43 7.487-2.34 16.92-1.92 31.706 6.387zm-45.476.81c45.81 3.9 60.16 29.532 62.143 33.563l3.314 24.863c-9.585 21.31-16.662 22.74-18.183 22.78-38.082-46.82-64.25-56.695-79.536-56.695-.6 0-1.177.016-1.726.045 7.816-19.803 30.46-24.005 33.99-24.545zm37.093 109.997c1.795 0 3.495-.4 5.03-1.1l4.19 7.674c-.7.074-1.41.153-2.138.24-20.134 2.41-35.27 11.806-42.57 17.258l-2.11-4.794c.81-.225 3.667-1.028 4.22-1.17 6.252-1.6 22.045-5.65 29.005-18.933 1.36.525 2.83.825 4.372.825zm-3.18-12.18a3.185 3.185 0 0 1 3.18-3.182 3.186 3.186 0 0 1 3.182 3.182 3.185 3.185 0 0 1-3.183 3.18 3.186 3.186 0 0 1-3.18-3.18zm-30.934 46.732c.743-.684 17.534-15.842 42.264-18.803 11.55-1.37 19.744-.97 23.99-.53l.237 4.29c-38.686 2.28-64.16 18.12-77.318 29.01 3.78-8.4 10.705-13.85 10.824-13.96zm66.987-6.044l2.527 45.7c-15.753-12.98-32.043-18.927-48.518-17.687-18.248 1.37-32.585 11.237-41.314 19.15 2.16-6.55 5.785-11.07 5.836-11.135l.012-.022c.006-.008.014-.013.02-.02.27-.335 26.934-32.728 81.434-35.986zm32.274 107.373c-1.134-11.112-4.513-30.522-14.52-45.608 3.897-.233 7.16-1.08 9.773-2.08 1.986 8.514 5.417 26.61 4.75 47.688zm-6.28-154.642c8.477 23.92 18.99 56.36 23.25 80.9-2.28 1.76-7.196 4.6-14.63 4.11l-8.62-85zm46.314 159.02H324c1.505-26.8-3.497-49.3-5.498-57.03a4.49 4.49 0 0 0 .8-3.22l-.65-4.7c13.82.2 21.366-8.096 21.722-8.5a4.498 4.498 0 0 0 1.072-3.69c-6.88-43-33.12-109.69-36.12-117.23-.045-.45-.164-1.58-.164-1.58-6.275-60.503-29.12-73.61-32.87-75.66-25.33-15.08-39.976-.57-44.11 4.618-8.677 1.773-14.762 6.01-17.21 7.97-6.596 1.21-36.65 8.29-42.626 37.69-1.806 3.425-8.75 17.753-5.208 29.35-2.305 6.218-7.878 27.195 7.626 56.23.57 3.383 3.23 14.097 14.327 16.87 2.69.67 5.52.94 8.34.94 3.47 0 6.93-.406 10.09-.967l3.86 8.754c-4.71 4.51-13.83 15.16-13.92 30.11-2.632 3.698-9.22 14.318-8.33 27.108-4.823 7.27-23.14 35.7-26.22 52.95H89.62V94.98h265.6v296.56z"/></svg>