<svg xmlns="http://www.w3.org/2000/svg" viewBox="0 0 445.194 445.194"><path d="M406.286 0a4.5 4.5 0 0 0-4.5 4.5v14.517c-9.237-4.878-24.788-6.056-42.203-2.984-15.235 2.686-31.067 8.76-40.64 16.698V20.7a4.5 4.5 0 0 0-4.5-4.5h-.002a4.5 4.5 0 0 0-4.5 4.5v12.03c-9.57-7.938-25.4-14.01-40.64-16.697-17.41-3.072-32.96-1.894-42.2 2.984V4.5a4.5 4.5 0 0 0-9 0v14.517c-9.24-4.878-24.78-6.058-42.2-2.984-15.234 2.686-31.066 8.76-40.64 16.698V20.7a4.5 4.5 0 0 0-4.5-4.5 4.5 4.5 0 0 0-4.5 4.5v12.03c-9.575-7.938-25.406-14.01-40.64-16.697-17.418-3.07-32.967-1.893-42.204 2.985V4.5a4.5 4.5 0 0 0-9 0v420a4.5 4.5 0 0 0 9 0v-11.334c2.295 1.324 4.9 2.137 7.548 2.265.25.02.5.02.744.02 3.253 0 6.115-1.05 8.12-2.99 3.6-3.49 3.676-9.29.185-13.8-3.06-3.95-7.732-5.16-11.36-2.94a4.5 4.5 0 0 0 3.904 8.066c.587.534 1.18 1.746 1.005 2.22-.217.21-.976.503-2.163.445-1.6-.076-3.854-.806-5.397-2.62-1.84-2.164-2.77-4.805-2.554-7.243.103-1.172.532-2.82 1.985-4.02 3.42-2.82 10.91-.1 16.535 4.04 7.18 5.286 13.797 9.78 22.09 11.24 8.47 1.497 15.245-.716 22.596-3.536 1.144-.44 11.336-4.087 17.024 2.605 1.84 2.163 2.77 4.8 2.552 7.24-.104 1.174-.533 2.824-1.986 4.02-.66.546-1.79.773-3.1.615-1.836-.22-3.67-1.16-4.57-2.35-.245-.324-.52-.802-.474-1.263a4.5 4.5 0 0 0 5.704-6.927c-3.276-3.154-8.1-3.27-11.475-.28-3.32 2.945-4.776 8.816-.936 13.896 2.39 3.16 6.386 5.348 10.693 5.855.62.07 1.235.11 1.84.11 1.524 0 2.982-.232 4.33-.682v13.546a4.5 4.5 0 0 0 9.002 0V427.15c1.345.45 2.803.682 4.33.682.603 0 1.22-.038 1.84-.11 4.31-.51 8.305-2.698 10.692-5.856 3.84-5.08 2.385-10.95-.936-13.897-3.373-2.998-8.2-2.88-11.47.28-1.79 1.72-1.817 4.55-.09 6.34 1.54 1.6 4.01 1.79 5.79.573.05.463-.23.944-.475 1.27-.897 1.187-2.732 2.13-4.566 2.346-1.31.156-2.443-.07-3.105-.615-1.454-1.197-1.884-2.848-1.988-4.02-.22-2.44.71-5.077 2.553-7.24 5.69-6.692 15.88-3.042 17.022-2.606 7.354 2.82 14.13 5.033 22.598 3.54h.002c8.292-1.464 14.91-5.96 22.086-11.24 5.63-4.14 13.116-6.86 16.54-4.04 1.45 1.195 1.88 2.844 1.984 4.016.218 2.44-.713 5.08-2.553 7.244-1.544 1.816-3.8 2.546-5.4 2.62-1.193.05-1.944-.232-2.17-.444-.17-.474.427-1.686 1.015-2.22a4.5 4.5 0 0 0 3.905-8.062c-3.63-2.216-8.3-1.005-11.364 2.946-3.49 4.503-3.41 10.306.19 13.8 2.004 1.94 4.865 2.99 8.118 2.99.246 0 .494-.007.744-.02 2.647-.13 5.254-.94 7.55-2.266V424.5a4.5 4.5 0 0 0 9 0v-11.334c2.295 1.324 4.9 2.137 7.55 2.265.248.02.496.02.74.02 3.254 0 6.115-1.05 8.12-2.99 3.6-3.49 3.677-9.29.186-13.8-3.064-3.95-7.736-5.16-11.365-2.94a4.5 4.5 0 0 0 3.907 8.066c.59.534 1.184 1.746 1.007 2.22-.217.21-.98.503-2.162.445-1.598-.076-3.854-.806-5.397-2.62-1.84-2.164-2.773-4.805-2.555-7.243.103-1.172.532-2.82 1.985-4.02 3.422-2.82 10.907-.1 16.532 4.04 7.18 5.287 13.8 9.78 22.09 11.24 8.47 1.497 15.245-.716 22.597-3.536 1.142-.44 11.333-4.09 17.022 2.605 1.84 2.163 2.77 4.8 2.55 7.24-.103 1.174-.532 2.824-1.984 4.02-.66.546-1.79.77-3.1.615-1.837-.22-3.673-1.16-4.57-2.35-.245-.324-.52-.802-.475-1.263a4.502 4.502 0 0 0 5.707-6.927c-3.27-3.153-8.1-3.272-11.472-.28-3.32 2.945-4.777 8.816-.936 13.896 2.39 3.16 6.386 5.348 10.693 5.855.62.07 1.235.11 1.84.11 1.524 0 2.982-.232 4.33-.682v13.546a4.5 4.5 0 0 0 9.002 0V427.15c1.344.45 2.802.682 4.327.682.604 0 1.22-.038 1.843-.11 4.31-.51 8.306-2.698 10.692-5.856 3.84-5.08 2.384-10.95-.938-13.897-3.376-2.998-8.2-2.88-11.473.28-1.79 1.72-1.813 4.55-.09 6.34 1.543 1.6 4.008 1.79 5.794.573.05.463-.23.944-.476 1.27-.9 1.187-2.734 2.13-4.568 2.346-1.315.156-2.44-.07-3.104-.615-1.455-1.197-1.884-2.848-1.988-4.02-.217-2.44.714-5.077 2.554-7.24 5.69-6.692 15.88-3.043 17.025-2.606 7.35 2.82 14.127 5.034 22.597 3.54h.004c8.29-1.464 14.91-5.96 22.086-11.24 5.626-4.14 13.114-6.86 16.534-4.04 1.45 1.195 1.88 2.844 1.986 4.016.22 2.44-.712 5.08-2.552 7.244-1.545 1.816-3.8 2.546-5.398 2.62-1.182.06-1.945-.232-2.17-.444-.17-.474.425-1.686 1.013-2.22a4.5 4.5 0 0 0 3.9-8.063c-3.627-2.216-8.3-1.004-11.36 2.947-3.492 4.504-3.413 10.307.187 13.8 2.004 1.94 4.865 2.99 8.117 2.99.247 0 .494-.006.744-.018 2.647-.13 5.254-.94 7.55-2.267V424.5a4.5 4.5 0 0 0 9 0V4.5a4.494 4.494 0 0 0-4.49-4.5zm-20.428 81.044c3.373 2.992 8.197 2.877 11.472-.278 1.79-1.725 1.815-4.55.09-6.34-1.543-1.6-4.008-1.792-5.793-.58-.052-.462.228-.944.473-1.27.897-1.187 2.733-2.13 4.568-2.345 1.315-.15 2.44.07 3.103.62 1.46 1.2 1.89 2.85 1.99 4.02.22 2.44-.71 5.08-2.55 7.24-5.69 6.7-15.88 3.04-17.02 2.61-7.353-2.82-14.128-5.027-22.596-3.54h-.002c-8.29 1.46-14.91 5.957-22.09 11.24-5.625 4.14-13.11 6.86-16.533 4.04-1.453-1.195-1.883-2.844-1.986-4.02-.22-2.44.714-5.08 2.553-7.24 1.545-1.815 3.8-2.544 5.4-2.62 1.184-.064 1.946.234 2.17.444.17.474-.425 1.687-1.013 2.22a4.5 4.5 0 0 0-5.398 1.877 4.498 4.498 0 0 0 1.493 6.184c3.625 2.22 8.3 1.01 11.36-2.942 3.49-4.502 3.412-10.306-.19-13.8-2.154-2.09-5.306-3.14-8.86-2.972-2.646.128-5.254.94-7.548 2.266v-8.18c0-6.59 16.056-18.61 42.203-23.22 19.568-3.455 33.777-.585 38.69 3.542 1.747 1.464 1.95 2.688 1.95 3.482v10.4c-1.88-.63-3.975-.846-6.17-.588-4.31.508-8.307 2.696-10.696 5.855-3.84 5.08-2.38 10.952.94 13.897zm-92.513 9.312c3.063 3.95 7.736 5.16 11.362 2.943a4.5 4.5 0 0 0-3.904-8.07c-.588-.537-1.183-1.748-1.005-2.22.218-.21.982-.5 2.16-.448 1.6.076 3.855.805 5.398 2.62 1.84 2.164 2.772 4.805 2.555 7.244-.1 1.172-.53 2.82-1.98 4.02-3.423 2.816-10.91.1-16.53-4.04-7.18-5.287-13.8-9.78-22.09-11.24-8.47-1.498-15.243.72-22.595 3.535-1.143.438-11.335 4.09-17.024-2.604-1.84-2.16-2.77-4.8-2.553-7.24.106-1.17.534-2.82 1.987-4.02.66-.544 1.79-.77 3.1-.614 1.835.215 3.67 1.157 4.568 2.344.245.323.52.802.476 1.263a4.502 4.502 0 0 0-5.823.562 4.498 4.498 0 0 0 .116 6.362c3.273 3.153 8.098 3.273 11.473.277 3.32-2.944 4.773-8.815.933-13.895-2.39-3.16-6.385-5.35-10.692-5.856-2.194-.26-4.29-.04-6.17.59v-10.4c0-.794.2-2.02 1.95-3.48 4.916-4.128 19.12-6.998 38.692-3.546 26.116 4.605 42.16 16.6 42.2 23.194v8.204c-2.29-1.326-4.9-2.14-7.55-2.266-3.553-.165-6.7.885-8.854 2.974-3.6 3.49-3.68 9.295-.187 13.8zm-91.176-9.312c3.37 2.993 8.19 2.876 11.47-.278 1.79-1.725 1.81-4.55.09-6.34-1.55-1.6-4.01-1.792-5.8-.58-.05-.462.225-.944.47-1.27.897-1.187 2.733-2.13 4.568-2.345 1.31-.15 2.44.07 3.103.62 1.455 1.2 1.884 2.85 1.988 4.02.218 2.44-.712 5.08-2.552 7.24-5.69 6.7-15.88 3.05-17.023 2.61-7.353-2.82-14.128-5.027-22.595-3.54h-.004c-8.293 1.46-14.91 5.957-22.09 11.24-5.626 4.14-13.11 6.86-16.535 4.04-1.45-1.195-1.88-2.844-1.984-4.02-.218-2.44.713-5.08 2.553-7.24 1.54-1.815 3.8-2.544 5.393-2.62 1.193-.055 1.946.235 2.17.444.17.474-.425 1.687-1.013 2.22a4.5 4.5 0 0 0-5.396 1.877 4.498 4.498 0 0 0 1.493 6.184c3.628 2.22 8.3 1.01 11.363-2.942 3.49-4.502 3.41-10.306-.19-13.8-2.157-2.09-5.31-3.145-8.86-2.972-2.648.128-5.255.94-7.55 2.266v-8.18c0-6.59 16.056-18.61 42.203-23.22 19.575-3.454 33.778-.585 38.695 3.542 1.745 1.464 1.946 2.688 1.946 3.482v10.4c-1.88-.63-3.975-.846-6.17-.588-4.307.508-8.304 2.696-10.694 5.855-3.84 5.08-2.384 10.952.94 13.897zm-92.52 9.312c3.06 3.95 7.73 5.16 11.36 2.943a4.5 4.5 0 0 0-3.907-8.07c-.587-.537-1.18-1.748-1.004-2.22.217-.21.975-.5 2.16-.448 1.6.076 3.855.805 5.4 2.62 1.84 2.164 2.77 4.805 2.553 7.244-.106 1.172-.535 2.82-1.99 4.02-3.42 2.82-10.905.1-16.532-4.04-7.18-5.287-13.8-9.78-22.09-11.24-8.466-1.498-15.243.716-22.595 3.535-1.143.438-11.334 4.09-17.024-2.604-1.837-2.16-2.77-4.8-2.552-7.24.103-1.17.533-2.82 1.985-4.02.663-.545 1.793-.77 3.103-.614 1.833.215 3.67 1.157 4.566 2.344.246.323.523.802.476 1.263a4.5 4.5 0 0 0-5.703 6.925c3.27 3.152 8.1 3.27 11.47.275 3.32-2.943 4.777-8.814.937-13.894-2.39-3.16-6.385-5.35-10.692-5.856-2.197-.255-4.29-.04-6.173.59V51.48c0-.794.2-2.02 1.946-3.482C50.27 43.87 64.473 41 84.05 44.45c26.114 4.606 42.16 16.602 42.203 23.195v8.203c-2.292-1.326-4.9-2.14-7.55-2.266-3.554-.164-6.702.886-8.855 2.975-3.6 3.49-3.68 9.295-.188 13.8zm251.49-65.46c19.57-3.452 33.78-.583 38.69 3.544 1.744 1.464 1.946 2.688 1.946 3.482v6.65c-9.237-4.88-24.788-6.056-42.203-2.985-15.235 2.686-31.067 8.76-40.64 16.698v-4.17c0-6.588 16.055-18.608 42.203-23.22zm-132.1 3.544c4.913-4.126 19.12-6.997 38.69-3.544 26.113 4.605 42.16 16.6 42.2 23.194v4.193c-9.573-7.937-25.405-14.01-40.64-16.696-17.417-3.072-32.966-1.894-42.203 2.984v-6.64c0-.792.203-2.02 1.95-3.48zm-51.59-3.544c19.57-3.452 33.773-.582 38.69 3.544 1.745 1.464 1.946 2.688 1.946 3.482v6.65c-9.237-4.88-24.785-6.058-42.204-2.985-15.236 2.686-31.068 8.76-40.64 16.698v-4.17c0-6.588 16.056-18.608 42.203-23.22zM45.35 28.44c4.918-4.126 19.12-6.997 38.694-3.544 26.114 4.605 42.16 16.6 42.203 23.194v4.193c-9.574-7.937-25.405-14.01-40.64-16.696-17.417-3.07-32.966-1.893-42.203 2.985v-6.65c0-.794.202-2.02 1.947-3.482zm58.068 367.457c-6.294 2.413-11.603 4.173-17.81 3.078h-.003c-6.384-1.126-11.843-4.86-18.317-9.626-6.986-5.15-16.404-8.92-23.883-5.94V91.69c3.74 2.44 8.034 3.4 12.212 3.4 3.805 0 7.514-.79 10.616-1.98 6.295-2.412 11.6-4.173 17.81-3.08 6.383 1.13 11.844 4.86 18.32 9.63 5.28 3.887 11.946 6.99 18.116 6.99 1.99 0 3.94-.337 5.762-1.066V397.32c-7.15-4.653-16.322-3.915-22.83-1.423zm90.79-6.547c-6.475 4.766-11.93 8.5-18.317 9.626-6.21 1.096-11.51-.665-17.81-3.08-6.503-2.49-15.68-3.23-22.83 1.425V105.59c1.83.73 3.77 1.067 5.77 1.067 6.17 0 12.84-3.105 18.12-6.99 6.47-4.767 11.93-8.5 18.318-9.627 6.206-1.094 11.517.664 17.812 3.08 3.1 1.188 6.81 1.98 10.62 1.98 4.175 0 8.467-.962 12.207-3.396v291.72c-7.478-2.98-16.897.79-23.886 5.93zm92.9 6.547c-6.295 2.414-11.603 4.174-17.81 3.078h-.003c-6.385-1.126-11.844-4.86-18.317-9.626-6.985-5.15-16.405-8.92-23.884-5.94V91.7c3.74 2.435 8.033 3.396 12.21 3.396 3.808 0 7.518-.793 10.62-1.98 6.294-2.416 11.605-4.178 17.81-3.08 6.383 1.125 11.843 4.86 18.317 9.626 5.28 3.887 11.95 6.992 18.12 6.99 2 0 3.94-.337 5.77-1.066V397.32c-7.15-4.654-16.32-3.916-22.83-1.423zm90.79-6.547c-6.475 4.766-11.934 8.5-18.317 9.626-6.2 1.095-11.51-.664-17.81-3.08-6.502-2.49-15.68-3.23-22.83 1.425V105.59c1.83.73 3.77 1.067 5.77 1.067 6.17 0 12.84-3.105 18.12-6.99 6.476-4.767 11.93-8.5 18.318-9.627h.002c6.21-1.098 11.515.664 17.81 3.08 3.1 1.188 6.81 1.98 10.617 1.98 4.177 0 8.47-.962 12.21-3.395v291.72c-7.48-2.982-16.9.788-23.888 5.93z"/></svg>