<svg xmlns="http://www.w3.org/2000/svg" viewBox="0 0 413.055 413.055"><path d="M296.606 202.064c-27.764-3.608-45.748-6.977-57.472-13.602 4.056-7.42 10.347-16.018 18.922-27.155a4.5 4.5 0 0 0-6.31-6.31c-11.17 8.6-19.83 14.834-27.2 18.857-6.6-11.727-9.956-29.692-13.557-57.406a4.5 4.5 0 0 0-8.93 0c-3.6 27.705-6.96 45.68-13.56 57.406-7.37-4.023-16.03-10.258-27.2-18.858a4.498 4.498 0 0 0-5.93.384 4.498 4.498 0 0 0-.385 5.927c8.575 11.138 14.867 19.738 18.924 27.158-11.726 6.627-29.704 9.99-57.474 13.6a4.5 4.5 0 0 0 0 8.925c27.76 3.608 45.75 6.973 57.476 13.596-4.056 7.42-10.348 16.02-18.925 27.16a4.498 4.498 0 0 0 .386 5.928 4.498 4.498 0 0 0 5.926.384c11.17-8.6 19.827-14.833 27.196-18.856 6.6 11.73 9.96 29.688 13.56 57.404a4.5 4.5 0 0 0 8.926 0c3.6-27.706 6.957-45.682 13.555-57.407 7.37 4.02 16.03 10.25 27.2 18.85a4.49 4.49 0 0 0 2.747.934h.02a4.5 4.5 0 0 0 3.324-7.534c-8.46-10.997-14.68-19.513-18.7-26.87 11.723-6.625 29.7-9.99 57.47-13.6a4.5 4.5 0 0 0 0-8.925zm-90.08-55.3c2.507 13.08 5.472 22.932 9.797 30.827-3.434 1.2-6.646 1.81-9.796 1.81s-6.36-.61-9.796-1.81c4.33-7.89 7.29-17.75 9.8-30.82zm-59.762 59.764c13.107-2.51 22.977-5.483 30.88-9.825 2.32 6.776 2.32 12.873 0 19.648-7.903-4.33-17.774-7.31-30.88-9.82zm59.764 59.76c-2.508-13.08-5.478-22.927-9.806-30.823 3.438-1.197 6.653-1.81 9.805-1.81 3.15 0 6.362.61 9.796 1.807-4.324 7.894-7.29 17.75-9.795 30.827zm0-41.634c-8.865 0-17.485 3.346-28.402 10.248 13.7-21.774 13.7-34.977 0-56.752 10.918 6.903 19.536 10.248 28.4 10.248s17.484-3.345 28.403-10.248c-13.7 21.775-13.71 34.978-.01 56.752-10.917-6.902-19.537-10.248-28.4-10.248zm28.885-8.297c-2.322-6.78-2.325-12.883-.002-19.665 7.91 4.342 17.77 7.32 30.88 9.834-13.1 2.513-22.97 5.49-30.87 9.83z"/><path d="M206.527 94.25c-61.91 0-112.277 50.367-112.277 112.277 0 61.91 50.367 112.275 112.277 112.275s112.277-50.366 112.277-112.275c0-61.91-50.366-112.277-112.277-112.277zm0 215.553c-56.947 0-103.277-46.33-103.277-103.275 0-56.947 46.33-103.277 103.277-103.277s103.277 46.33 103.277 103.28-46.33 103.28-103.277 103.28z"/><path d="M206.527 24.892c-100.153 0-181.635 81.48-181.635 181.635s81.48 181.635 181.635 181.635 181.635-81.482 181.635-181.635-81.48-181.635-181.635-181.635zm0 354.27c-95.19 0-172.635-77.443-172.635-172.635S111.336 33.893 206.527 33.893s172.635 77.443 172.635 172.635-77.443 172.634-172.635 172.634z"/><path d="M206.527 0C92.647 0 0 92.647 0 206.527s92.647 206.527 206.527 206.527 206.527-92.647 206.527-206.527S320.407 0 206.527 0zm0 404.055C97.61 404.055 9 315.445 9 206.527S97.61 9 206.527 9s197.527 88.61 197.527 197.527-88.61 197.528-197.527 197.528z"/><path d="M374.88 208.81a4.5 4.5 0 0 0 0-6.773c-6.69-5.854-11.83-10.8-17.296-16.705 3.673-6.94 7.307-12.94 12.15-20.17a4.497 4.497 0 0 0-1.753-6.543c-7.97-3.92-14.21-7.37-21.03-11.67 1.76-7.66 3.71-14.397 6.52-22.627a4.503 4.503 0 0 0-3.38-5.868c-8.72-1.72-15.64-3.435-23.33-5.82-.29-7.845-.145-14.86.44-23.544a4.5 4.5 0 0 0-1.31-3.484 4.455 4.455 0 0 0-3.483-1.31c-5.913.4-21.222.53-24.043.42-2.31-7.5-3.984-14.314-5.67-22.854a4.502 4.502 0 0 0-5.867-3.387c-8.415 2.87-15.268 4.85-23.118 6.626-4.173-6.65-7.554-12.797-11.39-20.606a4.498 4.498 0 0 0-6.545-1.755c-7.382 4.945-13.49 8.63-20.614 12.38-2.873-2.668-14.625-14.995-16.34-16.955a4.498 4.498 0 0 0-6.775 0c-1.706 1.954-12.52 13.425-16.704 17.297-1.05-.554-14.035-8.04-20.17-12.15a4.514 4.514 0 0 0-3.67-.606 4.498 4.498 0 0 0-2.87 2.365c-1.704 3.465-9.23 17.18-11.66 21.03-7.66-1.752-14.4-3.71-22.63-6.515-1.226-.42-2.576-.29-3.7.36s-1.912 1.753-2.164 3.026c-1.72 8.72-3.433 15.64-5.82 23.33-2.642.097-17.637-.04-23.542-.437a4.482 4.482 0 0 0-3.483 1.31 4.5 4.5 0 0 0-1.31 3.48c.597 8.866.734 15.997.42 24.044-7.505 2.31-14.32 3.984-22.855 5.67a4.502 4.502 0 0 0-3.387 5.87c2.868 8.41 4.848 15.26 6.626 23.114-6.655 4.178-12.803 7.56-20.607 11.393a4.498 4.498 0 0 0-1.754 6.543c4.945 7.38 8.63 13.49 12.382 20.616-5.343 5.753-10.406 10.61-16.955 16.34a4.498 4.498 0 0 0-1.54 3.386 4.5 4.5 0 0 0 1.536 3.39c6.69 5.85 11.832 10.8 17.296 16.703-3.672 6.94-7.307 12.944-12.15 20.173a4.498 4.498 0 0 0 1.753 6.543c7.98 3.923 14.227 7.37 21.03 11.66-1.752 7.66-3.71 14.397-6.517 22.63a4.502 4.502 0 0 0 3.384 5.866c8.72 1.72 15.645 3.434 23.33 5.818.29 7.85.145 14.863-.44 23.543a4.5 4.5 0 0 0 4.795 4.79c5.912-.395 10.966-.58 15.902-.58 2.64 0 5.316.055 8.14.165 2.31 7.5 3.983 14.317 5.67 22.856a4.503 4.503 0 0 0 5.87 3.387c8.41-2.87 15.26-4.85 23.11-6.627 4.18 6.654 7.56 12.802 11.39 20.607a4.498 4.498 0 0 0 6.548 1.753c7.38-4.946 13.487-8.63 20.614-12.382 5.757 5.347 10.614 10.41 16.34 16.957a4.498 4.498 0 0 0 3.387 1.54 4.506 4.506 0 0 0 3.387-1.54c5.855-6.69 10.8-11.83 16.707-17.295 6.944 3.672 12.947 7.306 20.17 12.15a4.507 4.507 0 0 0 3.67.61 4.497 4.497 0 0 0 2.874-2.364c3.92-7.975 7.367-14.22 11.66-21.03 7.657 1.754 14.395 3.71 22.63 6.52a4.51 4.51 0 0 0 3.703-.36 4.503 4.503 0 0 0 2.166-3.025c1.72-8.723 3.432-15.647 5.82-23.333 2.64-.097 17.63.04 23.54.437.1.005.2.01.3.01h.02a4.5 4.5 0 0 0 4.443-5.23c-.57-8.67-.698-15.7-.39-23.617 7.503-2.31 14.317-3.983 22.856-5.67a4.503 4.503 0 0 0 3.026-2.165 4.503 4.503 0 0 0 .362-3.704c-2.868-8.41-4.848-15.26-6.627-23.11 6.65-4.177 12.8-7.56 20.606-11.396a4.5 4.5 0 0 0 1.754-6.546c-4.947-7.377-8.63-13.483-12.383-20.61 5.343-5.755 10.406-10.613 16.957-16.342zm-9.738-3.386c-4.285 3.873-8.017 7.496-11.78 11.443a4.473 4.473 0 0 0-1.836-1.015 4.506 4.506 0 0 0-3.67.61c-.75.502-1.483.988-2.21 1.466-4.106-4.364-8.117-8.286-12.784-12.505 4.567-4.127 8.506-7.97 12.524-12.23.626.415 1.258.835 1.9 1.266a4.493 4.493 0 0 0 3.67.6 4.474 4.474 0 0 0 2.158-1.345c3.846 4.047 7.648 7.74 12.028 11.7zm-46.582 33.484c4.183 6.247 7.462 11.577 10.64 17.373-6.224 1.81-12.22 3.23-19.45 4.66a4.494 4.494 0 0 0-3.025 2.17 4.507 4.507 0 0 0-.362 3.7c2.424 7.11 4.21 13.106 5.78 19.53-1.387.03-14.087-.14-19.992-.533a4.492 4.492 0 0 0-3.48 1.31 4.5 4.5 0 0 0-1.31 3.48c.5 7.495.68 13.75.53 20.362-6.3-1.55-12.2-3.316-19.17-5.696a4.504 4.504 0 0 0-5.87 3.386c-1.45 7.372-2.9 13.46-4.76 19.81-5.68-3.125-10.92-6.36-17.04-10.464a4.497 4.497 0 0 0-6.543 1.753c-3.313 6.74-6.29 12.242-9.724 17.9-4.68-4.49-8.907-8.975-13.757-14.52a4.503 4.503 0 0 0-6.775 0c-4.946 5.652-9.246 10.2-14.024 14.772-3.356-5.55-6.28-10.97-9.53-17.586a4.498 4.498 0 0 0-6.544-1.752c-6.24 4.182-11.57 7.46-17.372 10.64-1.805-6.225-3.227-12.22-4.654-19.45a4.5 4.5 0 0 0-5.87-3.388c-7.113 2.423-13.11 4.21-19.533 5.78-.135-6.48.045-12.64.537-19.992a4.507 4.507 0 0 0-1.308-3.483 4.48 4.48 0 0 0-3.485-1.31c-5.913.397-10.967.58-15.903.58-1.47 0-2.95-.02-4.46-.052 1.55-6.293 3.318-12.196 5.697-19.174a4.5 4.5 0 0 0-3.387-5.867c-7.364-1.454-13.45-2.903-19.806-4.76 3.126-5.68 6.36-10.92 10.465-17.047a4.497 4.497 0 0 0-1.754-6.542c-6.736-3.31-12.24-6.284-17.9-9.72 4.49-4.678 8.97-8.906 14.52-13.758a4.498 4.498 0 0 0 1.538-3.39 4.5 4.5 0 0 0-1.537-3.385c-5.654-4.946-10.2-9.245-14.774-14.027 5.544-3.354 10.968-6.28 17.583-9.53a4.5 4.5 0 0 0 1.752-6.545c-4.18-6.24-7.46-11.565-10.64-17.37 6.23-1.805 12.225-3.23 19.45-4.654a4.503 4.503 0 0 0 3.026-2.167 4.503 4.503 0 0 0 .36-3.702c-2.425-7.104-4.21-13.1-5.78-19.53 1.38-.025 14.08.14 19.993.538a4.507 4.507 0 0 0 3.48-1.31 4.5 4.5 0 0 0 1.31-3.48c-.502-7.495-.68-13.75-.53-20.36 6.298 1.55 12.2 3.313 19.175 5.69a4.503 4.503 0 0 0 3.7-.362 4.503 4.503 0 0 0 2.166-3.025c1.458-7.37 2.907-13.453 4.76-19.803 5.68 3.125 10.925 6.36 17.046 10.462.75.5 1.62.762 2.505.762a4.498 4.498 0 0 0 4.04-2.515c2.678-5.45 5.135-10.09 7.793-14.66.63-1.08 1.27-2.16 1.93-3.24 3.226 3.096 12.25 12.795 13.756 14.517a4.5 4.5 0 0 0 6.776 0c4.86-5.56 9.097-10.045 13.777-14.54l.247-.235c3.35 5.545 6.28 10.97 9.53 17.583a4.503 4.503 0 0 0 6.542 1.75c6.233-4.18 11.562-7.46 17.37-10.642 1.803 6.23 3.226 12.226 4.653 19.454a4.503 4.503 0 0 0 5.868 3.39c7.11-2.426 13.104-4.214 19.53-5.784.134 6.484-.046 12.644-.54 19.995a4.5 4.5 0 0 0 4.79 4.79c5.924-.395 10.98-.578 15.916-.578 1.465 0 2.944.02 4.45.05-1.55 6.296-3.316 12.198-5.694 19.172a4.5 4.5 0 0 0 3.386 5.863c7.373 1.46 13.46 2.91 19.808 4.76-3.123 5.68-6.36 10.924-10.46 17.048a4.497 4.497 0 0 0 1.752 6.546c6.744 3.32 12.248 6.294 17.9 9.73-4.487 4.674-8.97 8.903-14.516 13.754a4.5 4.5 0 0 0 0 6.774c5.657 4.946 10.2 9.246 14.775 14.025-5.543 3.353-10.966 6.28-17.58 9.53a4.502 4.502 0 0 0-1.758 6.54zM164.41 53.604c4.607 2.98 8.87 5.535 13.39 8.024l.712.393c-.174.35-.32.7-.4 1.08a4.505 4.505 0 0 0 1.434 4.35c.68.595 1.34 1.178 1.988 1.756-1.396 2.256-7.173 12.466-8.77 15.587-4.94-3.195-9.478-5.904-14.365-8.562l-.69-.37c.23-.71.48-1.43.73-2.162a4.505 4.505 0 0 0-.36-3.702 4.482 4.482 0 0 0-1.86-1.738c2.07-3.384 7.41-13.12 8.19-14.645zm41.014-5.69c1.684 1.862 9.212 9.652 11.442 11.777a4.485 4.485 0 0 0-1.013 1.84 4.502 4.502 0 0 0 .608 3.67c.51.75.99 1.488 1.47 2.216l-.48.458c-4.18 3.953-7.96 7.837-12.02 12.327-1.195-1.323-8.955-9.426-11.833-12.155a43.89 43.89 0 0 1-.392-.367c.414-.623.835-1.255 1.266-1.9a4.5 4.5 0 0 0 .61-3.67 4.477 4.477 0 0 0-1.345-2.16c3.438-3.26 11.1-11.36 11.7-12.022zm145.61 130.6a4.48 4.48 0 0 0-2.034-.506 4.5 4.5 0 0 0-3.388 1.538c-.595.68-1.177 1.34-1.755 1.988-5.097-3.154-9.986-5.903-15.586-8.77 3.35-5.173 6.16-9.902 8.94-15.054.71.236 1.43.48 2.168.73a4.503 4.503 0 0 0 3.7-.363 4.485 4.485 0 0 0 1.738-1.856c4.766 2.92 9.39 5.5 14.646 8.19a215.604 215.604 0 0 0-8.42 14.11zm-12.175-36.448a4.485 4.485 0 0 0-2.1.04 4.498 4.498 0 0 0-2.88 2.36c-.4.812-.79 1.598-1.18 2.375-5.737-1.72-11.172-3.11-17.325-4.43 1.892-5.855 3.382-11.152 4.733-16.85.746.045 1.504.093 2.28.145.1.007.2.01.3.01h.02a4.5 4.5 0 0 0 4.394-3.55c5.343 1.58 10.47 2.874 16.23 4.11a214.78 214.78 0 0 0-4.48 15.8zM317.9 93.588c-.292 5.77-.37 10.97-.24 16.424-.7.037-1.39.22-2.012.58a4.502 4.502 0 0 0-2.164 3.025c-.175.887-.35 1.75-.525 2.6-6-.183-11.5-.12-17.89.2.31-6.147.38-11.65.21-17.506.736-.15 1.48-.3 2.24-.45a4.503 4.503 0 0 0 3.026-2.16 4.49 4.49 0 0 0 .576-2.47c5.584.146 10.79.07 16.777-.233zm-29.008-9.057a4.496 4.496 0 0 0-1.792 1.09 4.504 4.504 0 0 0-1.31 3.486c.062.9.115 1.78.166 2.648-5.835 1.375-11.236 2.888-17.22 4.82-1.29-6.017-2.65-11.35-4.33-16.96a440.96 440.96 0 0 1 2.046-1.016 4.497 4.497 0 0 0 2.36-2.874 4.476 4.476 0 0 0-.083-2.54c5.422-1.307 10.52-2.75 16.14-4.565 1.21 5.65 2.482 10.69 4.02 15.92zm-42.38-31.49c2.63 5.145 5.162 9.686 8 14.34a4.476 4.476 0 0 0-1.45 1.51 4.495 4.495 0 0 0-.362 3.702c.292.855.57 1.69.845 2.516-5.285 2.84-10.11 5.7-15.39 9.116-2.805-5.48-5.496-10.28-8.57-15.263.56-.496 1.13-1 1.715-1.51a4.502 4.502 0 0 0 1.537-3.387 4.49 4.49 0 0 0-.74-2.435c4.905-2.665 9.455-5.38 14.412-8.586zm-120.25 16.68c5.493 1.776 10.496 3.197 15.8 4.48a4.48 4.48 0 0 0 .04 2.1 4.5 4.5 0 0 0 2.36 2.873c.813.398 1.6.79 2.378 1.18-1.73 5.74-3.118 11.174-4.438 17.324-5.855-1.89-11.152-3.38-16.852-4.732.045-.746.093-1.503.145-2.275a4.5 4.5 0 0 0-1.31-3.483 4.468 4.468 0 0 0-2.243-1.2c1.583-5.353 2.88-10.49 4.118-16.26zm-16.254 25.67c.04.7.22 1.395.58 2.017a4.503 4.503 0 0 0 3.026 2.166c.887.176 1.75.35 2.6.526-.182 5.995-.12 11.605.2 17.887-6.245-.313-11.646-.382-17.503-.21-.15-.734-.3-1.48-.45-2.237a4.505 4.505 0 0 0-2.16-3.027 4.49 4.49 0 0 0-2.48-.576c.145-5.58.068-10.88-.23-16.776 4.036.205 14.72.28 16.42.238zm-25.476 28.77a4.482 4.482 0 0 0 1.08 1.79 4.48 4.48 0 0 0 3.482 1.31c.904-.06 1.783-.112 2.65-.163 1.374 5.84 2.887 11.24 4.82 17.226-6.016 1.29-11.35 2.648-16.96 4.327-.335-.67-.672-1.35-1.014-2.046a4.498 4.498 0 0 0-2.873-2.36 4.477 4.477 0 0 0-2.544.085c-1.307-5.43-2.752-10.528-4.567-16.146a214.904 214.904 0 0 0 15.923-4.02zm-17.16 34.38a4.478 4.478 0 0 0 1.507 1.454 4.503 4.503 0 0 0 3.7.364c.854-.29 1.69-.57 2.516-.842 2.84 5.284 5.697 10.11 9.114 15.39-5.48 2.806-10.28 5.498-15.262 8.57-.496-.56-.997-1.13-1.507-1.713a4.5 4.5 0 0 0-3.386-1.537 4.47 4.47 0 0 0-2.434.74c-2.667-4.908-5.38-9.46-8.59-14.415 5.143-2.63 9.685-5.16 14.344-8.003zM47.91 207.63c4.285-3.872 8.017-7.494 11.783-11.443.52.47 1.14.827 1.833 1.013a4.507 4.507 0 0 0 3.67-.61c.75-.502 1.483-.988 2.21-1.466 4.108 4.367 8.12 8.29 12.786 12.507-4.568 4.13-8.507 7.97-12.526 12.23-.626-.41-1.258-.83-1.9-1.26a4.496 4.496 0 0 0-3.67-.61 4.485 4.485 0 0 0-2.158 1.348c-3.845-4.047-7.646-7.74-12.028-11.7zm14.11 26.913a4.48 4.48 0 0 0 2.03.504c1.3 0 2.534-.56 3.39-1.537.594-.68 1.177-1.34 1.756-1.99 5.102 3.157 9.99 5.906 15.587 8.77-3.345 5.172-6.154 9.9-8.933 15.052-.71-.237-1.43-.48-2.164-.73a4.504 4.504 0 0 0-3.703.362 4.482 4.482 0 0 0-1.738 1.858c-4.76-2.913-9.386-5.496-14.644-8.186 3.14-4.85 5.81-9.314 8.42-14.103zm12.17 36.453c.308.064.618.11.932.11a4.503 4.503 0 0 0 4.04-2.515c.398-.81.79-1.6 1.182-2.38 5.745 1.73 11.18 3.12 17.324 4.44-1.892 5.86-3.382 11.16-4.732 16.86a327.72 327.72 0 0 1-2.277-.142 4.477 4.477 0 0 0-3.48 1.31 4.475 4.475 0 0 0-1.2 2.24c-5.36-1.58-10.5-2.88-16.27-4.117 1.77-5.493 3.19-10.495 4.48-15.796zm20.957 48.47c.29-5.767.37-10.963.24-16.415a4.43 4.43 0 0 0 2.01-.58 4.502 4.502 0 0 0 2.166-3.023c.175-.887.35-1.75.525-2.602 6.006.186 11.507.123 17.886-.196-.312 6.15-.38 11.65-.21 17.502-.735.15-1.48.3-2.24.45a4.503 4.503 0 0 0-3.025 2.165 4.486 4.486 0 0 0-.58 2.48c-1.82-.047-3.6-.07-5.366-.07-3.66 0-7.37.096-11.414.3zm29.004 9.05a4.488 4.488 0 0 0 1.8-1.078 4.498 4.498 0 0 0 1.31-3.483c-.06-.9-.112-1.78-.163-2.648 5.83-1.373 11.234-2.887 17.224-4.82 1.29 6.022 2.648 11.354 4.326 16.96-.67.336-1.35.673-2.046 1.015a4.498 4.498 0 0 0-2.365 2.874 4.478 4.478 0 0 0 .087 2.542c-5.43 1.307-10.527 2.752-16.144 4.566-1.21-5.65-2.484-10.695-4.023-15.928zm42.39 31.506c-2.63-5.14-5.16-9.683-8-14.342a4.47 4.47 0 0 0 1.45-1.508 4.503 4.503 0 0 0 .36-3.702c-.29-.855-.57-1.69-.842-2.516 5.28-2.837 10.108-5.696 15.39-9.112 2.807 5.48 5.498 10.278 8.57 15.262-.56.497-1.13 1-1.714 1.51a4.502 4.502 0 0 0-1.537 3.388c0 .875.273 1.71.74 2.432-4.906 2.668-9.457 5.382-14.413 8.588zm41.09 5.12c-3.87-4.284-7.49-8.016-11.44-11.78a4.46 4.46 0 0 0 1.017-1.834 4.503 4.503 0 0 0-.61-3.67c-.5-.75-.99-1.484-1.466-2.21 4.365-4.108 8.286-8.12 12.506-12.788 4.124 4.566 7.97 8.506 12.226 12.527a296.66 296.66 0 0 1-1.263 1.9 4.498 4.498 0 0 0-.61 3.67 4.474 4.474 0 0 0 1.344 2.158c-4.05 3.845-7.74 7.646-11.7 12.027zm41.02-5.692c-4.85-3.137-9.312-5.803-14.103-8.417a4.474 4.474 0 0 0 .504-2.03 4.5 4.5 0 0 0-1.537-3.388c-.682-.596-1.34-1.18-1.99-1.757 3.155-5.1 5.904-9.99 8.77-15.588 5.17 3.345 9.9 6.155 15.055 8.934-.235.71-.48 1.432-.73 2.164a4.503 4.503 0 0 0 .365 3.702 4.478 4.478 0 0 0 1.852 1.735c-2.914 4.763-5.496 9.39-8.187 14.645zm38.145-16.11c-5.496-1.775-10.497-3.195-15.8-4.48a4.49 4.49 0 0 0-.04-2.093 4.503 4.503 0 0 0-2.36-2.875c-.812-.398-1.6-.79-2.377-1.18 1.73-5.74 3.118-11.176 4.44-17.33 5.855 1.893 11.152 3.384 16.854 4.736a395.45 395.45 0 0 1-.145 2.277 4.502 4.502 0 0 0 1.31 3.482 4.474 4.474 0 0 0 2.24 1.198c-1.584 5.355-2.88 10.49-4.12 16.265zm16.25-25.676a4.45 4.45 0 0 0-.58-2.01 4.503 4.503 0 0 0-3.023-2.166c-.887-.175-1.75-.35-2.6-.525.183-5.99.12-11.6-.2-17.884 6.245.31 11.647.38 17.506.21.15.73.3 1.47.45 2.23a4.503 4.503 0 0 0 4.415 3.624c.074 0 .148-.015.224-.02-.142 5.582-.065 10.88.23 16.77-5.853-.294-10.97-.37-16.42-.24zm25.48-28.767a4.478 4.478 0 0 0-1.08-1.792 4.492 4.492 0 0 0-3.483-1.31c-.904.062-1.78.115-2.65.166-1.373-5.83-2.89-11.23-4.82-17.22 6.02-1.29 11.355-2.65 16.96-4.33l1.018 2.05a4.497 4.497 0 0 0 4.038 2.52c.47 0 .934-.08 1.38-.22 1.306 5.423 2.75 10.516 4.562 16.127-5.652 1.214-10.694 2.484-15.926 4.02zm17.16-34.377a4.482 4.482 0 0 0-1.51-1.453 4.496 4.496 0 0 0-3.7-.362c-.855.292-1.69.57-2.515.845-2.837-5.276-5.696-10.103-9.114-15.39 5.48-2.806 10.28-5.497 15.265-8.57.5.562 1 1.13 1.51 1.714a4.498 4.498 0 0 0 3.38 1.536 4.48 4.48 0 0 0 2.434-.737c2.668 4.907 5.383 9.457 8.59 14.412-5.144 2.63-9.687 5.164-14.344 8.006z"/></svg>