<svg xmlns="http://www.w3.org/2000/svg" viewBox="0 0 441.002 441.002"><path d="M440.514 120.824a4.5 4.5 0 0 0-4.012-2.46H4.5a4.497 4.497 0 0 0-3.635 7.152l10.91 14.95V286.01c0 1.32.58 2.5 1.49 3.322a14.776 14.776 0 0 0-1.49 6.47c0 6.094 3.763 11.44 9.194 13.656l.77 9.064a4.498 4.498 0 0 0 4.48 4.117H39.6a4.5 4.5 0 0 0 4.483-4.12s.29-3.387.774-9.07c5.43-2.216 9.193-7.563 9.193-13.655 0-1.858-.35-3.64-.98-5.294h334.854a14.815 14.815 0 0 0-.98 5.294c0 6.092 3.762 11.44 9.192 13.655.48 5.683.772 9.066.772 9.066a4.5 4.5 0 0 0 4.483 4.116h13.38a4.5 4.5 0 0 0 4.487-4.118l.772-9.067c5.43-2.215 9.192-7.563 9.192-13.655 0-2.31-.534-4.506-1.49-6.47a4.47 4.47 0 0 0 1.49-3.325V140.46l10.91-14.95c1-1.37 1.145-3.18.378-4.69zm-427.16 6.54H427.65l-5.208 7.137H18.562l-5.207-7.13zM420.23 265.37h-24.282V143.5h24.28v121.872zM386.946 143.5v121.87H225.002V143.5h161.945zM216 143.5v121.87H54.058V143.5h161.945zm-170.944 0v121.87h-24.28V143.5h24.28zM40.06 301.496a4.497 4.497 0 0 0-3.898 4.08l-.688 8.064H30.36l-.688-8.064a4.5 4.5 0 0 0-3.9-4.08 5.756 5.756 0 0 1-4.995-5.69c0-2.356 1.41-4.41 3.55-5.295h17.186a5.706 5.706 0 0 1 3.546 5.3 5.76 5.76 0 0 1-5 5.69zM20.777 281.51v-7.14H420.23v7.14H20.775zm394.457 19.986a4.498 4.498 0 0 0-3.9 4.08l-.688 8.063h-5.114l-.687-8.07a4.5 4.5 0 0 0-3.9-4.08 5.756 5.756 0 0 1-4.995-5.695c0-2.355 1.41-4.41 3.546-5.294h17.186a5.705 5.705 0 0 1 3.55 5.294 5.757 5.757 0 0 1-4.997 5.693z"/><path d="M189.84 217.245c-7.063 0-12.81-5.746-12.81-12.81 0-7.062 5.747-12.81 12.81-12.81s12.81 5.748 12.81 12.81c0 7.064-5.748 12.81-12.81 12.81zm0-16.618c-2.1 0-3.81 1.71-3.81 3.81s1.71 3.81 3.81 3.81 3.81-1.71 3.81-3.81-1.71-3.81-3.81-3.81zm61.324 16.618c-7.063 0-12.81-5.746-12.81-12.81 0-7.062 5.746-12.81 12.81-12.81 7.063 0 12.81 5.748 12.81 12.81 0 7.064-5.747 12.81-12.81 12.81zm0-16.618a3.814 3.814 0 0 0-3.81 3.81c0 2.1 1.708 3.81 3.81 3.81 2.1 0 3.81-1.71 3.81-3.81s-1.71-3.81-3.81-3.81z"/></svg>