<svg xmlns="http://www.w3.org/2000/svg" viewBox="0 0 372.86 372.86"><path d="M372.343 7.638a4.5 4.5 0 0 0-3.983-2.408H4.5a4.5 4.5 0 0 0-3.705 7.055l11.17 16.205 3.06 28.83a4.5 4.5 0 0 0 4.476 4.026h139.74a15.843 15.843 0 0 0-1.613 6.985c0 5.14 2.45 9.71 6.23 12.64-5.42 5.52-8.966 12.43-8.966 18.16 0 7.25 5.48 13.506 13.948 17.155 3.415 6.195 3.877 8.65 1.24 12.17-8.656 8.896-13.82 24.22-13.82 41.14 0 13.89 3.746 24.544 10.52 31.095-5.4 2.57-9.15 8.062-9.15 14.43 0 6.48 3.885 12.062 9.44 14.57-.115.16-.223.33-.33.493-8.13 1.663-31.93 9.86-31.93 48.813 0 44.596-8.454 48.33-16.38 48.33-20.392 0-28.856 23.33-28.856 35.818a4.5 4.5 0 0 0 4.5 4.5h23.726a4.5 4.5 0 0 0 4.445-5.2c-.11-.7-.26-3.88 1.133-5.51.275-.324 1.117-1.31 3.91-1.31 19.152 0 33.596-15.407 33.596-35.84 0-14.826.002-36.075 5.313-42.173 2.693 5.348 10.5 9.017 20.244 9.017 9.742 0 17.55-3.67 20.243-9.016 5.313 6.1 5.315 27.35 5.315 42.175 0 20.434 14.445 35.84 33.598 35.84 2.775 0 3.618.974 3.896 1.293 1.357 1.566 1.28 4.617 1.15 5.53a4.5 4.5 0 0 0 4.443 5.2h23.72a4.5 4.5 0 0 0 4.5-4.5c0-12.487-8.466-35.815-28.858-35.815-7.925 0-16.38-3.734-16.38-48.33 0-38.955-23.806-47.15-31.933-48.813a10.88 10.88 0 0 0-.334-.495c5.56-2.505 9.444-8.086 9.444-14.57 0-6.374-3.76-11.873-9.17-14.437 6.78-6.55 10.54-17.19 10.54-31.085 0-17.04-5.22-32.43-13.977-41.3-2.84-3.61-2.283-6.217 1.27-11.96 8.537-3.642 14.073-9.924 14.073-17.207 0-5.723-3.545-12.636-8.965-18.155 3.78-2.93 6.23-7.495 6.23-12.635a15.89 15.89 0 0 0-1.61-6.984h139.73a4.5 4.5 0 0 0 4.476-4.025l3.06-28.83 11.17-16.207a4.508 4.508 0 0 0 .278-4.65zM151.87 319.768c0 15.552-10.343 26.84-24.595 26.84-5.736 0-9.014 2.427-10.754 4.462-2.01 2.36-2.86 5.17-3.18 7.56H99.01c1.592-8.952 7.524-22.318 19.41-22.318 21.063 0 25.38-22.918 25.38-57.33 0-28.205 13.813-36.66 21.366-39.178v27.767c-13.29 4.42-13.293 29.67-13.293 52.2zm46.825-46.358c0 1.045-4.35 4.2-12.266 4.2s-12.27-3.155-12.27-4.2v-38.12c0-1.044 4.35-4.198 12.26-4.198s12.265 3.154 12.265 4.2v38.118zm30.368 5.574c0 34.41 4.315 57.33 25.38 57.33 11.885 0 17.817 13.365 19.41 22.316h-14.33c-.32-2.388-1.168-5.198-3.186-7.56-1.74-2.035-5.017-4.46-10.753-4.46-14.252 0-24.596-11.29-24.596-26.842 0-22.518-.023-47.73-13.293-52.156V239.81c7.56 2.523 21.368 10.986 21.368 39.174zm-22.82-63.876a6.992 6.992 0 0 1-6.985 6.984H173.6a6.99 6.99 0 0 1-6.983-6.984 6.992 6.992 0 0 1 6.984-6.985h25.66a6.99 6.99 0 0 1 6.99 6.985zm1.368-45.522c0 19.047-7.52 29.537-21.18 29.537s-21.18-10.49-21.18-29.537c0-14.57 4.408-28.02 11.49-35.106l.01-.014a4.52 4.52 0 0 0 .39-.44c4.07-5.327 4.19-10.278 2.87-14.76a50.1 50.1 0 0 0 6.427.408c2.088 0 4.12-.13 6.084-.37-1.285 4.36-1.1 9.362 3.157 14.688.05.06.11.1.16.157.067.07.12.16.194.23 7.148 7.06 11.588 20.55 11.588 35.2zm-21.18-58.912c-13.28 0-22.55-6.09-22.55-11.555 0-3.77 3.69-10.29 9.72-14.77h25.67c6.03 4.48 9.717 11 9.717 14.76 0 5.464-9.26 11.554-22.55 11.554zM166.62 68.33a6.992 6.992 0 0 1 6.984-6.985h25.658a6.99 6.99 0 0 1 6.984 6.985 6.99 6.99 0 0 1-6.982 6.984H173.6a6.992 6.992 0 0 1-6.984-6.984zm182.696-15.985H23.548l-2.226-20.968h330.215l-2.225 20.968zm4.864-29.968H18.684l-5.616-8.147h346.725l-5.617 8.147z"/></svg>