<svg xmlns="http://www.w3.org/2000/svg" viewBox="0 0 405.488 405.488"><path d="M307.3 400.182L250.61 89.155a4.5 4.5 0 0 0-4.427-3.693H217.77V42.138h55.594a4.5 4.5 0 0 0 4.217-2.927l7.85-21.04c.19-.51.287-1.042.286-1.572h.002v-.016c0-.025-.004-.05-.005-.077C285.658 7.395 278.238 0 269.118 0H136.373c-9.113 0-16.528 7.386-16.588 16.485 0 .032-.004.064-.005.097l-.002.013c0 .53.093 1.063.283 1.573l7.855 21.043a4.5 4.5 0 0 0 4.216 2.93h55.594v43.325H159.31a4.5 4.5 0 0 0-4.428 3.693L98.188 400.182a4.5 4.5 0 0 0 4.428 5.306h17.227a4.5 4.5 0 0 0 4.403-3.57l18.196-86.205h120.61l18.195 86.205a4.5 4.5 0 0 0 4.403 3.57h17.227a4.5 4.5 0 0 0 4.426-5.306zm-82.057-263.575h-7.477v-17.642h3.753l3.72 17.642zm-37.52 25.44v5.178a4.5 4.5 0 0 0 4.5 4.5h21.043a4.5 4.5 0 0 0 4.5-4.5v-5.177h12.847l27.066 128.225H147.81l27.066-128.225h12.847zm-10.947-9l1.57-7.44h9.377v7.44h-10.947zm31.99-16.186v7.97h-12.043v-7.966h12.043zm-12.043-9v-8.892h12.043v8.896h-12.043zm12.043 25.97v8.897h-12.043v-8.897h12.043zm9-.78v-7.44h9.376l1.57 7.44h-10.946zM136.372 9h132.746a7.58 7.58 0 0 1 6.103 3.095H130.27A7.58 7.58 0 0 1 136.37 9zm-1.12 24.138l-4.492-12.043h143.97l-4.493 12.043H135.253zm61.47 34.09v-7.965h12.044v7.966h-12.043zm12.044 9v9.233h-12.043v-9.23h12.043zm-12.043-25.964v-8.126h12.043v8.126h-12.043zm-7.58 44.198h27.203l3.273 15.504h-33.75l3.27-15.504zm-5.172 24.504h3.756v17.642h-7.476l3.723-17.642zm-67.78 277.522h-8.18l55.055-302.026h16.882L116.19 396.488zm28.15-89.775l1.57-7.44h113.67l1.57 7.44H144.34zm144.96 89.775L225.545 94.462h16.883l55.053 302.026h-8.183z"/></svg>