<svg xmlns="http://www.w3.org/2000/svg" viewBox="0 0 416.726 416.726"><path d="M415.714 159.007a4.5 4.5 0 0 0-3.488-1.657H397.31c-3.254-.81-23.494-6.79-23.494-29.73v-11.316a4.5 4.5 0 0 0-4.5-4.5h-30.104V100.19h7.125a4.5 4.5 0 0 0 4.5-4.5V68.01a4.5 4.5 0 0 0-4.5-4.5h-1.98V49.188a4.5 4.5 0 0 0-4.5-4.5h-80.8a4.5 4.5 0 0 0-4.5 4.5v18.82a4.5 4.5 0 0 0 4.5 4.5h1.978v18.68h-7.126a4.5 4.5 0 0 0-4.5 4.5v16.115h-202a4.5 4.5 0 0 0-4.5 4.5v11.315c0 22.942-20.24 28.92-23.5 29.73H4.5a4.502 4.502 0 0 0-4.408 5.408l3.262 15.852a4.5 4.5 0 0 0 4.408 3.593h13.766c-2.543 11.85-6.278 40.81 4.844 82.1 13.12 48.72 9.42 61.19 2.758 73.49-6.64 12.26-6.64 18.8-6.64 29.63v.127a4.5 4.5 0 0 0 4.5 4.5h18.29a4.5 4.5 0 0 0 3.8-2.09c.62-.974 15.063-24.304 9.114-62.64-3.41-21.98-11.347-73.15-2.1-106.17 10.452-1.874 33.33-4.357 64.822 1.405 38.992 7.137 86.966 7.22 87.446 7.22s48.455-.083 87.447-7.22c31.53-5.773 54.42-3.262 64.82-1.39 9.24 33.02 1.3 84.18-2.11 106.15-5.95 38.34 8.496 61.67 9.113 62.64a4.502 4.502 0 0 0 3.8 2.09h18.29a4.5 4.5 0 0 0 4.5-4.5v-.12c0-10.832 0-17.372-6.64-29.633-6.66-12.3-10.36-24.77 2.76-73.484 11.12-41.29 7.386-70.246 4.843-82.095h13.765a4.5 4.5 0 0 0 4.408-3.592l3.262-15.852a4.497 4.497 0 0 0-.92-3.747zm-180.078-1.657v-36.547h36.547v36.547h-36.547zm45.547-36.547h36.547v36.547h-36.547v-36.547zm45.547 30.846h45.986a38.924 38.924 0 0 0 5.49 5.7H326.73v-5.7zm40.832-9H326.73V120.8h38.086v6.815c0 5.724 1.032 10.71 2.746 15.03zM263.556 53.68h71.802v9.82h-71.802v-9.82zm6.48 18.82h71.8v18.68h-71.8V72.51zm-11.627 27.68h71.8v11.62h-71.8v-11.61zm-31.78 20.62v36.548h-36.54V120.8h36.544zm-45.546 36.55h-36.55v-36.547h36.546v36.547zm-45.55-36.547v36.547h-36.54v-36.547h36.547zm-83.63 0H89.99v21.846H49.16c1.713-4.33 2.746-9.31 2.746-15.03v-6.82zm-7.9 30.846H89.99v5.7H38.52a38.872 38.872 0 0 0 5.49-5.7zM42.6 363.03H31.51c.11-7.555.825-12.276 5.534-20.973 8.866-16.37 10.83-32.532-1.982-80.107-11.28-41.884-6.42-70.68-4.282-79.755h23.476c-2.36 3.973-6.114 13.854-6.18 14.196-9.37 30.115-4.655 74.405 1.225 112.29 4.44 28.59-3.61 48.168-6.69 54.35zm251.583-169.35c-38.177 6.987-85.358 7.072-85.83 7.072-.47 0-47.627-.08-85.825-7.07-28.5-5.218-50.43-3.935-62.98-2.206 1.57-3.455 3.42-6.578 5.59-9.283h286.44c2.17 2.71 4.02 5.836 5.59 9.296-12.523-1.734-34.453-3.03-62.985 2.19zm87.472 68.27c-12.814 47.573-10.85 63.736-1.983 80.107 4.71 8.696 5.425 13.42 5.534 20.973H374.1c-3.097-6.153-11.143-25.59-6.68-54.35 6.893-44.42 12.177-97.633-4.956-126.485h23.476c2.14 9.08 7 37.874-4.28 79.756zm23.63-88.757H11.43l-1.41-6.85h396.685l-1.41 6.85z"/><path d="M117.272 143.577c1.18 0 2.34-.48 3.18-1.32.84-.84 1.32-2 1.32-3.18 0-1.18-.48-2.34-1.32-3.18-.84-.84-2-1.32-3.18-1.32-1.19 0-2.35.48-3.19 1.32-.83.84-1.31 2-1.31 3.18 0 1.18.48 2.34 1.31 3.18.84.84 2 1.32 3.19 1.32zm45.54 0c1.19 0 2.35-.48 3.19-1.32.83-.84 1.31-2 1.31-3.18 0-1.18-.48-2.34-1.31-3.18-.84-.84-2-1.32-3.19-1.32-1.18 0-2.34.48-3.18 1.32-.84.84-1.32 2-1.32 3.18 0 1.18.48 2.34 1.32 3.18.84.84 2 1.32 3.18 1.32zm42.37-7.68c-.84.83-1.32 2-1.32 3.18 0 1.18.48 2.34 1.32 3.18.84.84 2 1.32 3.18 1.32 1.19 0 2.34-.48 3.18-1.32.84-.84 1.32-2 1.32-3.18 0-1.18-.48-2.34-1.32-3.18a4.512 4.512 0 0 0-3.18-1.32c-1.18 0-2.34.48-3.18 1.32zm48.73-1.32c-1.19 0-2.35.48-3.19 1.32-.83.84-1.31 2-1.31 3.18 0 1.18.48 2.34 1.31 3.18.84.84 2 1.32 3.19 1.32 1.18 0 2.34-.48 3.18-1.32.84-.84 1.32-1.99 1.32-3.18 0-1.18-.48-2.35-1.32-3.18-.84-.84-2-1.32-3.18-1.32zm45.54 0c-1.18 0-2.34.48-3.18 1.32-.84.84-1.32 2-1.32 3.18 0 1.18.48 2.34 1.32 3.18.84.84 2 1.32 3.18 1.32a4.5 4.5 0 0 0 3.18-1.32c.84-.84 1.32-2 1.32-3.18 0-1.18-.48-2.34-1.32-3.18a4.493 4.493 0 0 0-3.18-1.32z"/></svg>