<svg xmlns="http://www.w3.org/2000/svg" viewBox="0 0 421.746 421.746"><path d="M188.324 149.697a4.5 4.5 0 0 0-6.364 0l-2.06 2.06-2.058-2.06a4.5 4.5 0 0 0-6.364 0 4.5 4.5 0 0 0 0 6.363l2.06 2.06-2.06 2.06a4.5 4.5 0 0 0 3.182 7.682c1.152 0 2.304-.44 3.182-1.318l2.06-2.06 2.058 2.06c.88.88 2.03 1.318 3.182 1.318a4.498 4.498 0 0 0 3.182-7.68l-2.06-2.06 2.06-2.062a4.498 4.498 0 0 0 0-6.363zm30.974 0a4.5 4.5 0 0 0-6.364 0l-2.06 2.06-2.06-2.06a4.5 4.5 0 0 0-6.364 6.363l2.06 2.06-2.06 2.06a4.5 4.5 0 0 0 6.364 6.364l2.06-2.06 2.06 2.06c.88.88 2.03 1.318 3.182 1.318a4.5 4.5 0 0 0 3.182-7.68l-2.06-2.06 2.06-2.062a4.498 4.498 0 0 0 0-6.363zm28.912 8.423l2.06-2.06a4.5 4.5 0 0 0-.002-6.363 4.5 4.5 0 0 0-6.364 0l-2.06 2.06-2.058-2.06a4.5 4.5 0 0 0-6.364 0 4.5 4.5 0 0 0 0 6.363l2.06 2.06-2.06 2.06a4.5 4.5 0 0 0 3.182 7.682c1.152 0 2.304-.44 3.182-1.318l2.06-2.06 2.058 2.06c.88.88 2.03 1.318 3.182 1.318a4.5 4.5 0 0 0 3.183-7.68l-2.06-2.06zm-75.373-36.327a4.5 4.5 0 0 0-6.364 0l-2.06 2.06-2.058-2.06a4.5 4.5 0 0 0-6.364 0 4.5 4.5 0 0 0 0 6.363l2.06 2.06-2.06 2.06a4.5 4.5 0 0 0 3.19 7.682 4.48 4.48 0 0 0 3.18-1.318l2.06-2.06 2.06 2.06a4.48 4.48 0 0 0 3.18 1.318 4.498 4.498 0 0 0 3.18-7.68l-2.06-2.06 2.06-2.062a4.498 4.498 0 0 0 0-6.363zm30.973 0a4.5 4.5 0 0 0-6.363 0l-2.06 2.06-2.058-2.06a4.5 4.5 0 1 0-6.37 6.363l2.06 2.06-2.06 2.06a4.5 4.5 0 0 0 6.36 6.364l2.06-2.06 2.06 2.06a4.478 4.478 0 0 0 3.18 1.318 4.5 4.5 0 0 0 3.18-7.68l-2.057-2.06 2.06-2.062a4.5 4.5 0 0 0 0-6.363zm30.972 0a4.5 4.5 0 0 0-6.364 0l-2.058 2.06-2.058-2.06a4.5 4.5 0 0 0-6.365 6.363l2.06 2.06-2.06 2.06a4.5 4.5 0 0 0 6.366 6.364l2.058-2.058 2.06 2.058a4.48 4.48 0 0 0 3.19 1.318 4.5 4.5 0 0 0 3.184-7.68l-2.06-2.06 2.06-2.06a4.502 4.502 0 0 0-.003-6.365zm28.913 8.424l2.06-2.06a4.5 4.5 0 1 0-6.364-6.364l-2.05 2.06-2.06-2.06a4.5 4.5 0 0 0-6.362 0 4.498 4.498 0 0 0 0 6.363l2.06 2.06-2.06 2.06a4.5 4.5 0 1 0 6.364 6.364l2.06-2.06 2.058 2.06c.88.88 2.03 1.318 3.184 1.318a4.498 4.498 0 0 0 3.18-7.68l-2.06-2.06zm-75.37-25.845l-2.06-2.06 2.06-2.06a4.5 4.5 0 1 0-6.365-6.364l-2.06 2.06-2.058-2.06a4.5 4.5 0 0 0-6.364 0 4.5 4.5 0 0 0 0 6.363l2.06 2.07-2.06 2.06a4.5 4.5 0 0 0 3.182 7.68 4.482 4.482 0 0 0 3.182-1.316l2.06-2.06 2.058 2.06a4.48 4.48 0 0 0 3.182 1.318 4.498 4.498 0 0 0 3.182-7.68zm30.973-10.482a4.5 4.5 0 0 0-6.364 0l-2.06 2.06-2.06-2.06a4.5 4.5 0 0 0-6.364 6.362l2.06 2.06-2.06 2.06a4.5 4.5 0 0 0 6.364 6.364l2.06-2.06 2.06 2.06c.88.88 2.03 1.318 3.182 1.318a4.5 4.5 0 0 0 3.182-7.68l-2.06-2.06 2.06-2.062a4.498 4.498 0 0 0 0-6.363zm30.972 0a4.5 4.5 0 0 0-6.365 0l-2.06 2.06-2.058-2.06a4.5 4.5 0 0 0-6.364 0 4.5 4.5 0 0 0 0 6.362l2.06 2.06-2.06 2.06a4.5 4.5 0 0 0 3.182 7.682c1.152 0 2.304-.44 3.182-1.318l2.06-2.06 2.058 2.06c.88.88 2.03 1.318 3.182 1.318a4.5 4.5 0 0 0 3.183-7.68l-2.06-2.06 2.06-2.062a4.5 4.5 0 0 0 0-6.363zm-15.487-17.422l-2.06-2.06 2.06-2.06a4.5 4.5 0 0 0 0-6.364 4.5 4.5 0 0 0-6.365 0l-2.06 2.06-2.058-2.06a4.5 4.5 0 0 0-6.364 0 4.498 4.498 0 0 0 0 6.363l2.06 2.06-2.06 2.06a4.5 4.5 0 1 0 6.364 6.364l2.06-2.06 2.058 2.06c.88.88 2.03 1.32 3.182 1.32 1.15 0 2.303-.44 3.182-1.32a4.5 4.5 0 0 0 0-6.36zm28.912-2.06l2.06-2.06a4.5 4.5 0 1 0-6.364-6.364l-2.05 2.06-2.06-2.06a4.5 4.5 0 0 0-6.362 0 4.498 4.498 0 0 0 0 6.363l2.06 2.06-2.06 2.06a4.5 4.5 0 1 0 6.364 6.364l2.06-2.06 2.058 2.06c.88.88 2.03 1.32 3.184 1.32a4.48 4.48 0 0 0 3.18-1.32 4.498 4.498 0 0 0 0-6.36l-2.06-2.06zm-90.858-8.424a4.5 4.5 0 0 0-6.364 0l-2.06 2.06-2.058-2.06a4.5 4.5 0 0 0-6.364 0 4.5 4.5 0 0 0 0 6.363l2.06 2.06-2.06 2.06a4.5 4.5 0 0 0 3.19 7.682 4.48 4.48 0 0 0 3.18-1.32l2.06-2.06 2.06 2.06c.88.88 2.03 1.32 3.18 1.32a4.48 4.48 0 0 0 3.18-1.32 4.498 4.498 0 0 0 0-6.37l-2.06-2.06 2.06-2.06a4.498 4.498 0 0 0 0-6.365zm30.973 0a4.5 4.5 0 0 0-6.363 0l-2.06 2.06-2.06-2.06a4.5 4.5 0 1 0-6.363 6.363l2.06 2.06-2.06 2.06a4.5 4.5 0 0 0 6.364 6.364l2.06-2.06 2.06 2.06a4.48 4.48 0 0 0 3.18 1.32 4.5 4.5 0 0 0 3.182-7.68l-2.058-2.06 2.06-2.06a4.5 4.5 0 0 0 0-6.36zm-15.486-17.42l-2.06-2.06 2.06-2.06a4.5 4.5 0 1 0-6.364-6.364l-2.06 2.06-2.058-2.06a4.5 4.5 0 0 0-6.364 0 4.5 4.5 0 0 0 0 6.363l2.06 2.06-2.06 2.06a4.5 4.5 0 0 0 3.182 7.68 4.482 4.482 0 0 0 3.182-1.317l2.06-2.06 2.058 2.06c.88.88 2.03 1.318 3.182 1.318a4.498 4.498 0 0 0 3.182-7.68zm30.974-10.484a4.5 4.5 0 0 0-6.364 0l-2.06 2.06-2.06-2.06a4.5 4.5 0 0 0-6.364 6.363l2.06 2.06-2.06 2.06a4.5 4.5 0 0 0 6.364 6.363l2.06-2.06 2.06 2.06c.88.88 2.03 1.318 3.182 1.318a4.5 4.5 0 0 0 3.182-7.68l-2.06-2.06 2.06-2.06a4.498 4.498 0 0 0 0-6.364zm28.912 8.424l2.06-2.06a4.5 4.5 0 0 0-.002-6.363 4.5 4.5 0 0 0-6.364 0l-2.06 2.06-2.058-2.06a4.5 4.5 0 0 0-6.364 0 4.5 4.5 0 0 0 0 6.37l2.06 2.06-2.06 2.06a4.5 4.5 0 0 0 3.182 7.68 4.482 4.482 0 0 0 3.182-1.314l2.06-2.06 2.058 2.06a4.48 4.48 0 0 0 3.182 1.318 4.5 4.5 0 0 0 3.183-7.68l-2.06-2.06z"/><path d="M334.832 390.805v-16.257a4.5 4.5 0 0 0-2.875-4.196c-50.622-19.608-90.925-28.38-103.037-30.772v-43.268a4.5 4.5 0 0 0-4.5-4.5h-2.006V266.78h58.847c10.02 0 18.32-9.367 21.42-22.773.51.053 1.01.087 1.52.087 8.09 0 14.67-6.58 14.67-14.665v-51.59c5.157-3.87 8.514-10.018 8.514-16.947v-3.036c0-5.556-2.165-10.604-5.674-14.388-.04-.055-.07-.11-.116-.16-.61-.715-13.86-16.075-29.073-18.76l-3.78-85.405C288.65 4.65 249.337 0 210.877 0h-.01c-38.46 0-77.774 4.654-77.85 39.156l-3.786 85.405c-15.215 2.69-28.465 18.05-29.073 18.76-.04.05-.06.09-.1.13-3.523 3.79-5.698 8.85-5.698 14.42v3.04c0 6.93 3.355 13.075 8.512 16.946v51.58c0 8.087 6.58 14.666 14.665 14.666.507 0 1.01-.037 1.514-.09 3.1 13.408 11.405 22.776 21.42 22.776h58.846v25.03h-2.004a4.5 4.5 0 0 0-4.5 4.5v43.27c-12.112 2.394-52.414 11.165-103.035 30.77a4.5 4.5 0 0 0-2.872 4.198v16.256c-3.868 3.21-6.336 8.05-6.336 13.455 0 9.64 7.845 17.484 17.487 17.484s17.482-7.846 17.482-17.487a17.38 17.38 0 0 0-2.915-9.645c8.564-3.02 40.443-13.236 81.27-13.787l3.42 12.388a17.4 17.4 0 0 0-3.94 11.04c0 9.642 7.843 17.485 17.485 17.485s17.486-7.844 17.486-17.485a17.4 17.4 0 0 0-3.94-11.042l3.42-12.387c40.75.553 72.693 10.77 81.27 13.79a17.374 17.374 0 0 0-2.913 9.64c0 9.64 7.845 17.484 17.487 17.484 9.64 0 17.485-7.842 17.485-17.483.003-5.404-2.465-10.243-6.33-13.453zm-236.766 21.94c-4.68 0-8.486-3.806-8.486-8.484 0-4.68 3.807-8.48 8.486-8.48 4.68 0 8.485 3.81 8.485 8.49.01 4.68-3.8 8.486-8.48 8.486zm94.76-40.905c-45.358.76-79.198 12.76-84.972 14.935H95.916v-9.137c46.5-17.772 83.636-26.18 96.91-28.88v23.082zm18.047 14.934c-2.004 0-3.922.355-5.717.98l-3.33-12.06v-27.887h18.095v27.882l-3.33 12.06a17.415 17.415 0 0 0-5.71-.98zm9.048-85.963v38h-18.09v-38h18.1zm-11.58-9v-25.03h5.084v25.03h-5.083zm101.53-62.38a5.672 5.672 0 0 1-5.665 5.67c-.096 0-.19-.012-.285-.02.022-.42.08-9.444.08-9.444 0-3.68-1.843-7.04-5.46-10.08v-34.89a20.93 20.93 0 0 0 7.64 1.445c1.26 0 2.488-.13 3.688-.343v47.67zm8.514-71.56v3.04c0 6.73-5.474 12.2-12.202 12.2-5.864 0-10.773-4.16-11.937-9.683l-.256-5.743c.103-6.64 5.53-12.013 12.192-12.013 6.727 0 12.2 5.476 12.2 12.204zm-17.62-20.47a21.078 21.078 0 0 0-7.51 3.734l-.32-7.246c2.654.74 5.31 2 7.83 3.514zm-12.51 61.785c.458-.512.884-1.03 1.283-1.55v12.543c-3.153-1.405-6.815-2.714-10.99-3.923 3.856-1.798 7.1-4.15 9.707-7.07zm-152.5-18.63c.013-.1 6.265-141.09 6.265-141.09l.003-.2c0-20.538 19.31-29.673 64.355-30.23v3.27a4.5 4.5 0 0 0 9 0v-3.28c45.045.56 64.355 9.693 64.355 30.23 0 .067 0 .134.003.2 0 0 6.25 140.99 6.262 141.09.008.07.625 6.943-4.458 12.634-4.898 5.48-13.456 8.28-25.43 8.33-12.347-1.85-26.23-2.92-40.734-3.11v-5.162a4.5 4.5 0 0 0-9 0v5.162c-14.503.182-28.387 1.253-40.732 3.103-11.89-.05-20.42-2.817-25.33-8.23-5.17-5.69-4.578-12.485-4.554-12.736zm-3.533 17.08a26.9 26.9 0 0 0 1.28 1.55c2.61 2.92 5.88 5.264 9.74 7.06-4.187 1.21-7.86 2.523-11.02 3.93V197.63zm-3.396-63.745l-.32 7.22a21.167 21.167 0 0 0-7.514-3.715c2.52-1.51 5.18-2.77 7.833-3.503zm-5.603 81.662c-3.617 3.04-5.46 6.403-5.46 10.08 0 0 .06 9.025.08 9.45-.095.004-.19.02-.285.02a5.672 5.672 0 0 1-5.665-5.666v-47.67c1.2.213 2.43.344 3.69.344 2.693 0 5.27-.515 7.64-1.44v34.88zm-7.642-42.44c-6.73 0-12.202-5.474-12.202-12.202v-3.036c0-6.73 5.48-12.203 12.208-12.203 6.665 0 12.09 5.375 12.192 12.016l-.255 5.74c-1.16 5.524-6.07 9.686-11.936 9.686zm11.182 52.52c0-6.19 29.69-18.242 84.12-18.242 54.424 0 84.115 12.052 84.115 18.244v3.42h-168.24v-3.42zm13.73 32.155c-5.62 0-11.796-7.86-13.356-19.73h167.49c-1.56 11.87-7.732 19.73-13.353 19.73H140.49zm70.386 154.97c-4.68 0-8.486-3.807-8.486-8.485 0-4.68 3.808-8.486 8.487-8.486 4.68 0 8.486 3.806 8.486 8.485 0 4.68-3.81 8.486-8.49 8.486zm18.048-63.99c13.28 2.7 50.418 11.11 96.917 28.88v9.138H313.9c-5.774-2.175-39.613-14.175-84.97-14.935v-23.08zm94.767 63.99c-4.68 0-8.485-3.807-8.485-8.485 0-4.68 3.807-8.486 8.486-8.486 4.68 0 8.485 3.806 8.485 8.485 0 4.68-3.808 8.486-8.486 8.486z"/></svg>