<svg xmlns="http://www.w3.org/2000/svg" viewBox="0 0 424.228 424.228"><path d="M331.295 172.538c-.617-.634-61.842-64.385-68.652-149.58a4.5 4.5 0 0 0-4.485-4.14h-23.166C232.888 8.105 223.432 0 212.114 0s-20.774 8.106-22.877 18.817H166.07a4.498 4.498 0 0 0-4.485 4.142c-6.81 85.19-68.035 148.94-68.652 149.57a4.5 4.5 0 0 0 3.222 7.64h102.832v16.016c-5.896 1.766-10.19 7.08-10.19 13.346 0 2.21.55 4.29 1.498 6.15-.072.064-27.118 23.334-27.118 47.696 0 24.772 12.372 74.696 31.107 95.057-1.353 2.127-2.146 4.616-2.146 7.287 0 3.546 1.387 6.78 3.65 9.245-.004.076-.023.15-.023.225 0 17.93-20.124 24.107-20.98 24.36-.04.013-2.58.657-3.143 3.433l-3.183 15.85a4.496 4.496 0 0 0 4.41 5.384h78.51a4.5 4.5 0 0 0 4.302-5.807l-3.1-15.427c-.355-2.713-3.146-3.426-3.174-3.434-.21-.06-20.963-6.31-20.963-24.36 0-.072-.018-.14-.02-.212 2.27-2.468 3.66-5.705 3.66-9.258 0-2.674-.793-5.16-2.146-7.288 18.735-20.364 31.107-70.286 31.107-95.058 0-25.61-27.05-47.63-27.12-47.696a13.485 13.485 0 0 0 1.5-6.154c0-6.266-4.297-11.58-10.19-13.346v-16.01h37.6v61.403a4.5 4.5 0 0 0 9 0v-61.4h56.23a4.502 4.502 0 0 0 4.147-2.75 4.51 4.51 0 0 0-.93-4.892zm-114.68-1.358V27.817h17.49c1.25 18.674 8.036 92.31 39.265 143.362h-56.756zM212.115 9c6.32 0 11.687 4.123 13.58 9.817H198.53C200.426 13.123 205.793 9 212.115 9zm-61.257 162.18c31.227-51.053 38.014-124.69 39.264-143.362h17.49V171.18H150.86zm-18.545-36.363c14.94-24.393 33.398-62.477 37.868-107h10.9c-1.43 19.483-8.92 95.198-40.89 143.363H106.2c6.23-7.364 15.975-19.81 26.115-36.363zM223.09 365.73c0 2.74-2.453 4.97-5.468 4.97h-11.02c-3.015 0-5.468-2.23-5.468-4.97 0-2.74 2.453-4.97 5.468-4.97h11.02c3.015 0 5.468 2.23 5.468 4.97zm-44.73 49.498l1.376-6.85h64.75l1.377 6.85H178.36zm52.58-15.85h-37.67c5.2-4.445 9.963-10.816 11.188-19.677h15.295c1.225 8.86 5.985 15.24 11.187 19.68zm21.11-135.99c0 23.38-11.753 69.84-28.17 88.373h-23.537c-16.417-18.53-28.17-64.99-28.17-88.37 0-15.4 13.382-29.89 23.034-39.88h33.806c9.652 9.99 23.036 24.48 23.036 39.88zm-31.088-48.878h-17.7c-3.015 0-5.467-2.23-5.467-4.97 0-2.74 2.452-4.97 5.467-4.97h17.7c3.015 0 5.467 2.23 5.467 4.97 0 2.74-2.45 4.97-5.47 4.97zm-4.723-18.94h-8.26v-15.39h8.253v15.39zm67.79-24.39c-31.97-48.165-39.46-123.88-40.89-143.362h10.896c4.47 44.522 22.927 82.607 37.87 107 10.14 16.552 19.885 28.998 26.114 36.362h-33.99z"/></svg>