<svg xmlns="http://www.w3.org/2000/svg" viewBox="0 0 414.61 414.61"><path d="M323.75 318.114c-7.065 0-12.812-5.746-12.812-12.81 0-7.062 5.747-12.81 12.81-12.81 7.064 0 12.81 5.748 12.81 12.81 0 7.064-5.746 12.81-12.81 12.81zm0-16.618a3.814 3.814 0 0 0-3.812 3.81c0 2.1 1.71 3.81 3.81 3.81s3.81-1.71 3.81-3.81-1.71-3.81-3.81-3.81zM90.862 318.114c-7.063 0-12.81-5.746-12.81-12.81 0-7.062 5.747-12.81 12.81-12.81 7.063 0 12.81 5.748 12.81 12.81 0 7.064-5.747 12.81-12.81 12.81zm0-16.618c-2.1 0-3.81 1.71-3.81 3.81s1.71 3.81 3.81 3.81 3.81-1.71 3.81-3.81-1.71-3.81-3.81-3.81zm67.648-99.542a4.5 4.5 0 0 1-3.217-7.646l97.578-99.8a4.5 4.5 0 0 1 6.437 6.292l-97.577 99.8a4.488 4.488 0 0 1-3.22 1.354zm37.38 0a4.5 4.5 0 0 1-3.182-7.682l60.21-60.212a4.5 4.5 0 1 1 6.364 6.364l-60.212 60.212a4.482 4.482 0 0 1-3.18 1.318z"/><path d="M407.18 335.164v-59.718l7.09-17.174a4.5 4.5 0 0 0-4.16-6.217h-59.406l-5.91-13h18.013a4.5 4.5 0 0 0 4.5-4.5v-174a4.5 4.5 0 0 0-4.5-4.5h-311a4.5 4.5 0 0 0-4.5 4.5v174a4.5 4.5 0 0 0 4.5 4.5H69.82l-5.91 13H4.5a4.5 4.5 0 0 0-4.16 6.217l7.09 17.175v59.716L.34 352.338a4.5 4.5 0 0 0 4.16 6.217h405.61a4.5 4.5 0 0 0 4.16-6.217l-7.09-17.174zM56.307 230.054v-165h302v165h-302zm284.51 22h-10.113l-5.91-13h10.115l5.91 13zm-20 0H93.795l5.91-13H314.91l5.91 13zm-231-13l-5.908 13H73.792l5.91-13h10.113zm-78.59 110.5l3.715-9h384.73l3.716 9H11.226zm5.204-18v-52.5h11.71v52.5H16.43zm20.71 0v-52.5h107.446v52.5H37.14zm116.446-21.722h107.442v21.723H153.583v-21.723zm107.442-9H153.584v-21.777h107.442v21.777zm9 30.723v-52.5H377.47v52.5H270.026zm116.444 0v-52.5h11.71v52.5h-11.71zm13.2-61.5H14.94l-3.715-9h392.16l-3.715 9z"/></svg>