<svg xmlns="http://www.w3.org/2000/svg" viewBox="0 0 450.051 450.051"><path d="M42.78 206.894c-10.66 0-19.334-8.673-19.334-19.333 0-10.66 8.673-19.33 19.334-19.33 10.66 0 19.333 8.68 19.333 19.34S53.44 206.9 42.78 206.9zm0-29.667c-5.698 0-10.333 4.635-10.333 10.333s4.636 10.333 10.333 10.333c5.698 0 10.333-4.636 10.333-10.333s-4.635-10.333-10.333-10.333zm364.492 29.667c-10.66 0-19.334-8.673-19.334-19.333 0-10.66 8.673-19.33 19.334-19.33 10.66 0 19.334 8.68 19.334 19.34s-8.673 19.334-19.334 19.334zm0-29.667c-5.698 0-10.334 4.635-10.334 10.333s4.636 10.333 10.334 10.333c5.698 0 10.334-4.636 10.334-10.333s-4.636-10.333-10.334-10.333z"/><path d="M450.05 187.56c0-23.59-19.19-42.78-42.778-42.78-3.68 0-7.25.467-10.66 1.345-2.947-29.74-28.073-53.054-58.574-53.054H112.015c-30.502 0-55.657 23.31-58.605 53.05a42.687 42.687 0 0 0-10.63-1.34C19.19 144.78 0 163.97 0 187.56c0 20.183 14.143 37.477 33.495 41.756v70.354c0 .035-.01.066-.01.102 0 9.858 6.035 18.332 14.603 21.927a14.85 14.85 0 0 0-2.22 7.8c0 5.87 4.56 10.46 7.38 12.74v10.23a4.5 4.5 0 0 0 4.5 4.5H76.96a4.5 4.5 0 0 0 4.5-4.5v-10.23c2.82-2.277 7.38-6.87 7.38-12.743 0-2.12-.448-4.136-1.247-5.965H362.46a14.858 14.858 0 0 0-1.248 5.963c0 5.875 4.56 10.466 7.38 12.744v10.23a4.5 4.5 0 0 0 4.5 4.5h19.214a4.5 4.5 0 0 0 4.5-4.5v-10.23c2.82-2.28 7.38-6.87 7.38-12.747 0-2.86-.82-5.53-2.22-7.803 8.568-3.595 14.602-12.07 14.602-21.927 0-.035-.01-.066-.01-.1V229.31c19.35-4.28 33.493-21.574 33.493-41.757zm-338.035-85.488h226.023c26.67 0 48.518 21.03 49.836 47.38-13.862 7.084-23.38 21.5-23.38 38.11v42.732c-3.9-1.616-9.11-3.008-15.772-4.23-13.855-2.544-32.222-3.944-51.713-3.944-19.5 0-37.86 1.4-51.72 3.944-9.676 1.775-16.32 3.902-20.27 6.565-3.957-2.67-10.6-4.79-20.27-6.57-13.858-2.548-32.22-3.948-51.71-3.948-19.496 0-37.86 1.4-51.716 3.943-6.66 1.223-11.87 2.615-15.77 4.23V187.8c0-.036 0-.074-.003-.11v-.13c0-16.61-9.517-31.026-23.38-38.11 1.317-26.35 23.166-47.38 49.836-47.38zm252.478 138.39v20.346c0 2.6-2.114 4.713-4.713 4.713H229.525v-25.06c3.35-3.3 26.224-9.33 67.483-9.33 41.292 0 64.162 6.038 67.485 9.344zm-143.968 0v25.06H90.272a4.718 4.718 0 0 1-4.713-4.714v-20.345c3.32-3.305 26.19-9.342 67.48-9.342 41.29 0 64.16 6.04 67.48 9.35zM79.84 329.502c0 2.22-3.165 5.296-5.292 6.667a4.502 4.502 0 0 0-2.088 3.8v8.01H62.248v-8.02a4.53 4.53 0 0 0-2.075-3.79c-2.14-1.38-5.306-4.457-5.306-6.675a5.972 5.972 0 0 1 5.965-5.964h13.045a5.972 5.972 0 0 1 5.964 5.965zm310.054 6.667a4.5 4.5 0 0 0-2.09 3.8v8.01h-10.212v-8.02a4.53 4.53 0 0 0-2.075-3.79c-2.14-1.38-5.306-4.457-5.306-6.675a5.972 5.972 0 0 1 5.97-5.964h13.05a5.97 5.97 0 0 1 5.965 5.964c0 2.22-3.166 5.294-5.292 6.666zm23.41-115.39v-.005c-.47.085-4.517.557-6.032.557-5.56 0-10.854-1.307-15.733-3.88a4.5 4.5 0 1 0-4.2 7.96 42.888 42.888 0 0 0 19.93 4.918c.09 0 .19-.007.28-.007v69.44c0 .02.005.042.006.063-.036 8.115-6.644 14.705-14.765 14.705H57.25c-8.12 0-14.726-6.59-14.763-14.7 0-.022.007-.043.007-.066V230.33c.095 0 .19.006.286.006 6.94 0 13.83-1.7 19.93-4.916a4.5 4.5 0 1 0-4.2-7.96 33.833 33.833 0 0 1-15.73 3.876c-1.974 0-3.932-.19-5.858-.528v.01C20.892 218.02 9 204.006 9 187.56c0-18.627 15.153-33.78 33.78-33.78 18.626 0 33.78 15.153 33.78 33.737l-.007.26c0 .088 0 .177.006.265v72.765c0 7.562 6.15 13.713 13.71 13.713h269.51c7.56 0 13.71-6.15 13.71-13.713v-72.772a4.452 4.452 0 0 0 0-.475c0-18.627 15.15-33.78 33.78-33.78s33.78 15.153 33.78 33.78c0 16.386-11.81 30.356-27.75 33.226z"/><path d="M149.354 133.085a4.502 4.502 0 0 0-6.364 0l-3.325 3.325-3.325-3.325a4.5 4.5 0 0 0-6.364 6.364l3.325 3.32-3.32 3.32a4.5 4.5 0 0 0 6.37 6.363l3.325-3.325 3.325 3.325a4.49 4.49 0 0 0 3.182 1.32 4.5 4.5 0 0 0 3.183-7.682l-3.327-3.324 3.324-3.325a4.5 4.5 0 0 0 0-6.366zm0 49.478a4.5 4.5 0 0 0-6.364 0l-3.325 3.325-3.325-3.325a4.5 4.5 0 0 0-6.364 6.364l3.325 3.324-3.32 3.33a4.5 4.5 0 0 0 6.37 6.37l3.325-3.325L143 201.95c.88.88 2.03 1.32 3.182 1.32a4.5 4.5 0 0 0 3.183-7.684l-3.327-3.323 3.324-3.323a4.5 4.5 0 0 0 0-6.366zm167.396-39.79l3.325-3.323a4.5 4.5 0 1 0-6.363-6.364l-3.325 3.325-3.325-3.32a4.5 4.5 0 1 0-6.363 6.37l3.32 3.324-3.33 3.325a4.5 4.5 0 0 0 3.18 7.68 4.482 4.482 0 0 0 3.183-1.318l3.325-3.324 3.325 3.326c.88.878 2.03 1.318 3.184 1.318s2.304-.437 3.182-1.316a4.5 4.5 0 0 0 0-6.363l-3.327-3.326zm3.325 39.79a4.5 4.5 0 0 0-6.363 0l-3.325 3.325-3.325-3.325a4.5 4.5 0 1 0-6.363 6.364l3.32 3.324-3.33 3.33a4.5 4.5 0 0 0 3.18 7.68 4.48 4.48 0 0 0 3.183-1.32l3.325-3.32 3.325 3.328c.88.88 2.03 1.32 3.184 1.32s2.304-.44 3.182-1.32a4.5 4.5 0 0 0 0-6.362l-3.325-3.324 3.322-3.323a4.5 4.5 0 0 0-.002-6.366zm-88.685-39.79l3.324-3.324a4.5 4.5 0 0 0-6.365-6.37l-3.33 3.32-3.327-3.325a4.5 4.5 0 1 0-6.364 6.364l3.325 3.324-3.325 3.324a4.5 4.5 0 1 0 6.366 6.36l3.325-3.325 3.326 3.323a4.48 4.48 0 0 0 3.18 1.317 4.5 4.5 0 0 0 3.183-7.68l-3.326-3.324zm3.323 39.79a4.5 4.5 0 0 0-6.364 0l-3.33 3.325-3.327-3.324a4.5 4.5 0 1 0-6.364 6.363l3.325 3.325-3.325 3.325a4.5 4.5 0 1 0 6.366 6.364l3.325-3.32 3.326 3.33a4.48 4.48 0 0 0 3.18 1.32c1.15 0 2.303-.44 3.182-1.32a4.5 4.5 0 0 0 0-6.363l-3.324-3.325 3.324-3.325a4.5 4.5 0 0 0-.002-6.366z"/></svg>