<svg xmlns="http://www.w3.org/2000/svg" viewBox="0 0 435.999 435.999"><path d="M324.706 32.5C324.706 3.86 270.766 0 218 0S111.292 3.86 111.292 32.5v399a4.5 4.5 0 0 0 4.5 4.5h204.413a4.5 4.5 0 0 0 4.5-4.5v-397c0-.345-.038-.68-.11-1a4.58 4.58 0 0 0 .11-1zM218 9c64.833 0 97.706 7.906 97.706 23.5 0 .343.038.678.11 1-.072.32-.11.655-.11 1v106.205H120.293V32.5C120.293 16.905 153.166 9 218 9zm-97.707 418V149.704h195.413V427H120.293z"/><path d="M175.163 131.75h-31.267a4.5 4.5 0 0 1-4.5-4.5v-18a4.5 4.5 0 0 1 4.5-4.5h31.267c6.72 0 40.233.65 40.233 13.5s-33.514 13.5-40.233 13.5zm-26.766-9h26.766c15.832 0 26.207-2.57 30.037-4.5-3.83-1.932-14.205-4.5-30.036-4.5h-26.767v9zm26.766 63h-31.267a4.5 4.5 0 0 1-4.5-4.5v-18a4.5 4.5 0 0 1 4.5-4.5h31.267c6.72 0 40.233.65 40.233 13.5s-33.514 13.5-40.233 13.5zm-26.766-9h26.766c15.832 0 26.207-2.57 30.037-4.5-3.83-1.932-14.205-4.5-30.036-4.5h-26.767v9zM180.187 62H163a4.5 4.5 0 0 1-4.5-4.5v-19A4.5 4.5 0 0 1 163 34h17.187a4.5 4.5 0 0 1 4.5 4.5v19a4.5 4.5 0 0 1-4.5 4.5zM167.5 53h8.187V43H167.5v10zm43.624 9h-17.188a4.5 4.5 0 0 1-4.5-4.5v-19a4.5 4.5 0 0 1 4.5-4.5h17.188a4.5 4.5 0 0 1 4.5 4.5v19a4.5 4.5 0 0 1-4.5 4.5zm-12.687-9h8.188V43h-8.188v10zm43.625 9h-17.188a4.5 4.5 0 0 1-4.5-4.5v-19a4.5 4.5 0 0 1 4.5-4.5h17.188a4.5 4.5 0 0 1 4.5 4.5v19a4.5 4.5 0 0 1-4.5 4.5zm-12.688-9h8.188V43h-8.188v10zM273 62h-17.19a4.5 4.5 0 0 1-4.5-4.5v-19a4.5 4.5 0 0 1 4.5-4.5H273a4.5 4.5 0 0 1 4.5 4.5v19A4.5 4.5 0 0 1 273 62zm-12.688-9h8.188V43h-8.188v10z"/></svg>