<svg xmlns="http://www.w3.org/2000/svg" viewBox="0 0 431.445 431.445"><path d="M215.722 378.517c-81.506 0-147.816-66.31-147.816-147.816 0-81.5 66.31-147.81 147.816-147.81s147.816 66.31 147.816 147.82-66.31 147.818-147.816 147.818zm0-286.63c-76.544 0-138.816 62.272-138.816 138.814 0 76.55 62.272 138.82 138.816 138.82s138.816-62.27 138.816-138.82c0-76.54-62.272-138.81-138.816-138.81z"/><path d="M215.722 353.676c-67.81 0-122.975-55.166-122.975-122.975 0-67.8 55.166-122.97 122.975-122.97S338.697 162.9 338.697 230.7c0 67.81-55.166 122.98-122.975 122.98zm0-236.948c-62.846 0-113.975 51.128-113.975 113.974 0 62.846 51.13 113.975 113.975 113.975s113.975-51.13 113.975-113.975c0-62.846-51.13-113.974-113.975-113.974z"/><path d="M386.988 230.7c0-57.642-28.627-108.722-72.408-139.777h.024c5.176 0 9.927-1.732 13.86-5.078 6.008-5.11 7.45-10.68 7.6-14.453.223-5.51-2.147-11.3-6.34-15.49-5.69-5.688-15.718-6.474-21.898-1.718-5.162 3.97-6.725 10.98-3.635 16.306 2.15 3.695 7.18 6.955 14.28 3.985A4.5 4.5 0 0 0 315 66.17c-2.343.98-2.856.095-3.024-.197-.587-1.01-.566-3.19 1.34-4.655 2.545-1.96 7.617-1.48 10.048.95 1.888 1.887 3.853 5.18 3.71 8.763-.115 2.88-1.61 5.56-4.44 7.96-2.717 2.31-5.86 3.25-9.603 2.85-7.11-.74-19.43-6.62-37.73-30.36v-.01a.016.016 0 0 0-.003-.004c-11.013-14.167-23.377-22.5-34.2-23.11 2.684-1.844 5.774-3.167 9.283-3.467a4.5 4.5 0 0 0 2.955-7.5C252.688 16.67 237.37 0 215.725 0S178.76 16.67 178.12 17.38a4.5 4.5 0 0 0 2.955 7.5c3.494.3 6.576 1.625 9.257 3.473-10.864.64-23.166 8.947-34.173 23.106a.016.016 0 0 0-.01 0l-.01.01c-18.3 23.74-30.62 29.62-37.73 30.362-3.746.39-6.888-.54-9.605-2.85-2.828-2.408-4.32-5.086-4.437-7.96-.144-3.583 1.822-6.876 3.71-8.764 2.43-2.43 7.502-2.91 10.05-.95 1.904 1.466 1.925 3.645 1.34 4.655-.17.29-.684 1.177-3.02.2a4.5 4.5 0 0 0-3.47 8.303c7.1 2.97 12.13-.29 14.275-3.985 3.09-5.324 1.526-12.334-3.636-16.306-6.18-4.756-16.21-3.97-21.898 1.72-4.193 4.19-6.564 9.98-6.34 15.49.15 3.772 1.59 9.343 7.6 14.452 3.933 3.346 8.684 5.078 13.86 5.078h.023c-43.773 31.066-72.4 82.146-72.4 139.786 0 43.785 16.52 83.776 43.65 114.088-6.07 5.678-8.39 12.448-6.52 19.442 2.696 10.082 10.63 11.87 17.63 13.445 5.346 1.204 10.87 2.448 15.58 7.143 7.684 7.66 8.78 17.147 3.257 28.2-.086.17-.16.35-.225.532-.057.166-.61 1.705-1.816 3.456a40.56 40.56 0 0 0-1.62 1.946c-.02.02-.02.04-.04.06-2.27 2.3-5.77 4.21-10.87 3.07-.37-.122-2.99-1.052-4.046-3.075-.667-1.285-.623-2.926.134-5.02 1.663-4.59 7.22-3.53 8.286-3.278a4.5 4.5 0 0 0 2.2-8.73c-4.98-1.26-15.35-1-18.95 8.94-2.04 5.634-.94 9.76.344 12.23 2.936 5.64 9.03 7.44 9.72 7.62a23.17 23.17 0 0 0 5.404.665c7.65 0 13.063-4.223 16.382-8.697 3.656-4.104 14.018-14.38 26.103-14.38h.073c1.004 0 5.078.44 7.088 2.623 1.065 1.154 1.49 2.77 1.306 4.947-.018.206-.027.133-.016.34-.01.38-.17 2.325-2.112 3.243-.033.018-3.643 1.59-6.28-1.88a4.5 4.5 0 1 0-7.166 5.443c3.296 4.336 7.68 5.79 11.497 5.79 2.24 0 4.284-.5 5.8-1.217 5.65-2.673 7.214-8.147 7.263-11.148a18.58 18.58 0 0 0-.03-3.278c9.665 3.333 23.393.15 29.91-3.42 4.11-2.25 11.384-5.438 13.876-1.46 1.23 1.96.962 3.067.875 3.43-.38 1.59-2.042 2.887-2.66 3.26a4.5 4.5 0 0 0 4.484 7.802c.255-.145 1.43-.847 2.76-2.092 1.33 1.246 2.503 1.948 2.76 2.093a4.51 4.51 0 0 0 2.233.593 4.5 4.5 0 0 0 3.92-2.27 4.478 4.478 0 0 0-1.666-6.12c-.61-.367-2.282-1.667-2.665-3.26-.087-.366-.354-1.473.876-3.434 2.495-3.98 9.765-.795 13.878 1.46 6.53 3.57 20.25 6.752 29.91 3.415a18.463 18.463 0 0 0-.034 3.278c.05 3 1.615 8.476 7.266 11.148 1.51.713 3.557 1.215 5.8 1.215 3.814 0 8.2-1.456 11.494-5.79a4.5 4.5 0 1 0-7.166-5.445c-2.637 3.47-6.247 1.9-6.28 1.88-1.94-.917-2.103-2.86-2.115-3.15.01-.21 0-.226-.016-.434-.185-2.16.235-3.77 1.282-4.92 1.94-2.136 5.812-2.635 7.142-2.647h.066c12.056 0 22.41 10.265 26.07 14.373 3.317 4.478 8.733 8.704 16.388 8.704a23.157 23.157 0 0 0 5.403-.665c.687-.186 6.784-1.98 9.717-7.624 1.282-2.466 2.383-6.59.343-12.23-3.597-9.942-13.965-10.196-18.946-8.942a4.485 4.485 0 0 0-3.254 5.427c.583 2.4 3.02 3.876 5.42 3.306 1.1-.26 6.655-1.32 8.317 3.27.74 2.045.79 3.72.15 4.98-.92 1.81-3.215 2.847-4.056 3.11-5.1 1.14-8.6-.754-10.872-3.06-.017-.02-.026-.045-.043-.07a38.38 38.38 0 0 0-1.603-1.93c-1.12-1.625-1.69-3.083-1.83-3.47a4.7 4.7 0 0 0-.223-.532c-5.524-11.05-4.43-20.54 3.255-28.2 4.706-4.695 10.232-5.94 15.577-7.14 7-1.58 14.935-3.366 17.63-13.448 1.977-7.395-.254-14.605-5.98-20.05 26.804-30.237 43.11-69.987 43.11-113.48zM268.172 56.97c4.655 6.04 9.19 11.278 13.592 15.718a169.737 169.737 0 0 0-32.89-10.02c2.235-3.64 1.785-7.96-1.28-11.284a4.5 4.5 0 0 0-6.616 6.103c.168.182.25.31.29.383-.13.265-.705 1.018-2.178 1.662-1.868.82-4.77 1.206-7.306-.162-2.427-1.31-3.963-3.266-4.566-5.818-.778-3.295.107-7.293 2.313-10.435 2.68-3.812 5.92-5.712 9.92-5.81 8.26-.213 19 7.15 28.73 19.663zM215.722 9c10.516 0 19.47 5.106 24.996 9.24-13.805 6.246-20.395 22.528-21.236 24.74-1.59 4.115-1.984 8.573-1.023 12.64a17.99 17.99 0 0 0 1.39 3.87 166.93 166.93 0 0 0-4.13-.053c-1.388 0-2.76.02-4.14.052a17.94 17.94 0 0 0 1.4-3.87c.96-4.07.564-8.53-1.024-12.64-.843-2.22-7.43-18.5-21.234-24.74C196.252 14.1 205.206 9 215.72 9zm-52.45 47.97c9.602-12.347 20.183-19.667 28.396-19.667.11 0 .222 0 .33.004 3.997.097 7.24 1.997 9.917 5.81 2.205 3.14 3.09 7.138 2.313 10.434-.604 2.56-2.14 4.51-4.566 5.82-2.537 1.37-5.438.98-7.306.16-1.473-.64-2.047-1.39-2.177-1.66.03-.07.12-.2.28-.38a4.5 4.5 0 1 0-6.616-6.1c-3.066 3.326-3.517 7.646-1.28 11.287a169.828 169.828 0 0 0-32.89 10.02c4.402-4.44 8.935-9.68 13.59-15.72zm52.45 11.467c89.474 0 162.266 72.79 162.266 162.265 0 89.474-72.792 162.266-162.266 162.266S53.457 320.175 53.457 230.7c0-89.472 72.792-162.263 162.265-162.263zM156.156 400.64c-3.395-1.2-6.427-1.272-7.003-1.272h-.117c-7.142 0-13.614 2.527-18.985 5.763 1.61-9.97-1.38-19.19-8.89-26.68-6.55-6.53-13.98-8.2-19.954-9.55-6.846-1.54-9.673-2.35-10.913-6.99-.393-1.47-1.485-5.56 3.97-10.59 17.587 17.71 39.004 31.61 62.89 40.33-.99 3.528-1.24 6.5-.99 8.998zm10.624 2.653c-2.155-1.914-1.995-5.398-1.095-8.79a169.95 169.95 0 0 0 28.85 6.153c-.8.382-1.62.802-2.47 1.267-6.402 3.505-20.573 5.554-25.285 1.37zm97.905-.018c-4.692 4.21-18.882 2.165-25.306-1.35a49.54 49.54 0 0 0-2.48-1.268 170.068 170.068 0 0 0 28.85-6.153c.91 3.408 1.055 6.86-1.074 8.77zm76.476-41.368c-1.24 4.638-4.06 5.45-10.91 6.99-5.97 1.345-13.4 3.02-19.95 9.55-7.514 7.492-10.504 16.703-8.896 26.68-5.366-3.234-11.83-5.758-18.96-5.758h-.116c-.593 0-3.633.07-7.03 1.27.25-2.5-.01-5.47-1-8.99 24.144-8.82 45.76-22.92 63.45-40.9 2.523 2.42 4.767 6.12 3.42 11.15z"/><path d="M187.522 253.138a4.5 4.5 0 0 1-3.82-6.872l52.116-84.022a4.5 4.5 0 0 1 7.648 4.744L191.35 251.01a4.5 4.5 0 0 1-3.828 2.128zm4.278 48.15a4.5 4.5 0 0 1-3.82-6.872l52.116-84.022a4.5 4.5 0 1 1 7.648 4.744l-52.117 84.022a4.5 4.5 0 0 1-3.828 2.128z"/></svg>