<svg xmlns="http://www.w3.org/2000/svg" viewBox="0 0 445.527 445.527"><path d="M119.027 372.353h207.477a4.5 4.5 0 0 0 4.5-4.5v-39.5a4.5 4.5 0 0 0-4.5-4.5H119.027a4.5 4.5 0 0 0-4.5 4.5v39.5a4.5 4.5 0 0 0 4.5 4.5zm4.5-39.5h198.477v30.5H123.527v-30.5z"/><path d="M166.663 336.535c-6.378 0-11.567 5.19-11.567 11.568 0 6.377 5.19 11.566 11.567 11.566 6.38 0 11.568-5.19 11.568-11.57s-5.19-11.57-11.56-11.57zm0 14.134a2.57 2.57 0 0 1-2.567-2.57 2.57 2.57 0 0 1 2.567-2.57 2.57 2.57 0 0 1 2.568 2.57 2.57 2.57 0 0 1-2.56 2.56zm112.207-14.14c-6.38 0-11.57 5.19-11.57 11.564 0 6.378 5.19 11.567 11.57 11.567 6.377 0 11.565-5.19 11.565-11.567 0-6.38-5.188-11.57-11.566-11.57zm0 14.13a2.57 2.57 0 0 1-2.57-2.568 2.572 2.572 0 0 1 2.57-2.57 2.57 2.57 0 0 1 2.565 2.57 2.57 2.57 0 0 1-2.566 2.565z"/><path d="M353.682 412.623c.25-.213.48-.453.682-.72a4.502 4.502 0 0 0 .718-3.963l-7.637-26.103V31.867l7.637-26.103A4.502 4.502 0 0 0 350.762 0H94.765a4.5 4.5 0 0 0-4.32 5.764l7.638 26.103v349.97l-7.638 26.102a4.502 4.502 0 0 0 .718 3.96c.2.27.432.51.682.72a14.342 14.342 0 0 0-1.58 6.54c0 5.62 4.305 10.01 7.024 12.23v9.63a4.5 4.5 0 0 0 4.5 4.5h18.28a4.5 4.5 0 0 0 4.5-4.5v-9.637c2.72-2.214 7.02-6.608 7.02-12.23 0-1.93-.39-3.77-1.08-5.457H315a14.376 14.376 0 0 0-1.077 5.46c0 5.622 4.304 10.016 7.023 12.23v9.636a4.5 4.5 0 0 0 4.5 4.5h18.285a4.5 4.5 0 0 0 4.5-4.5v-9.638c2.72-2.216 7.02-6.61 7.02-12.23a14.316 14.316 0 0 0-1.573-6.54zm-252.912-7.92l1.277-4.364H343.48l1.277 4.36H100.77zm240.077-382.34l-1.276 4.364H105.96l-1.277-4.364H340.85zM104.68 391.34l1.277-4.365H339.57l1.276 4.364H104.68zM218.264 35.726v272.76h-111.18V35.726h111.18zm120.18 0v272.76h-111.18V35.726h111.18zm0 281.76v60.49h-231.36v-60.49h231.36zM344.758 9l-1.276 4.363H102.048L100.77 9h243.987zm-222.16 410.16c0 2.03-2.952 4.88-4.934 6.16a4.502 4.502 0 0 0-2.088 3.8v7.407h-9.286v-7.407a4.5 4.5 0 0 0-2.09-3.8c-1.667-1.057-4.936-4.046-4.936-6.16 0-3.01 2.45-5.457 5.46-5.457h12.416a5.464 5.464 0 0 1 5.458 5.458zm218.732 6.16a4.5 4.5 0 0 0-2.09 3.8v7.407h-9.285v-7.407a4.5 4.5 0 0 0-2.088-3.8c-1.668-1.057-4.936-4.046-4.936-6.16 0-3.01 2.45-5.457 5.46-5.457h12.42a5.464 5.464 0 0 1 5.46 5.458c0 2.03-2.95 4.88-4.932 6.16z"/><path d="M137.488 302.48h50.372c13.195 0 23.93-10.734 23.93-23.93V66.283c0-13.195-10.734-23.93-23.93-23.93h-50.372c-13.195 0-23.93 10.735-23.93 23.93V278.55c0 13.196 10.734 23.93 23.93 23.93zm-14.93-236.198c0-8.232 6.697-14.93 14.93-14.93h50.372c8.232 0 14.93 6.698 14.93 14.93V278.55c0 8.232-6.697 14.93-14.93 14.93h-50.372c-8.232 0-14.93-6.698-14.93-14.93V66.282zm135.11 236.198h50.37c13.196 0 23.932-10.734 23.932-23.93V66.283c0-13.195-10.735-23.93-23.93-23.93h-50.372c-13.195 0-23.93 10.735-23.93 23.93V278.55c0 13.196 10.735 23.93 23.93 23.93zm-14.93-236.198c0-8.232 6.698-14.93 14.93-14.93h50.372c8.232 0 14.93 6.698 14.93 14.93V278.55c0 8.232-6.697 14.93-14.93 14.93h-50.37c-8.233 0-14.93-6.698-14.93-14.93V66.282z"/><path d="M180.798 215.894c6.38 0 11.568-5.188 11.568-11.566 0-6.378-5.19-11.567-11.568-11.567-6.378 0-11.567 5.19-11.567 11.57s5.19 11.57 11.57 11.57zm0-14.133a2.57 2.57 0 0 1 2.568 2.57 2.568 2.568 0 0 1-5.135 0 2.57 2.57 0 0 1 2.57-2.56zm83.934 14.14c6.378 0 11.566-5.19 11.566-11.564 0-6.38-5.19-11.567-11.566-11.567-6.38 0-11.568 5.19-11.568 11.57 0 6.376 5.19 11.564 11.568 11.564zm0-14.13a2.57 2.57 0 0 1 2.566 2.57 2.57 2.57 0 0 1-2.566 2.564 2.57 2.57 0 0 1-2.568-2.566 2.57 2.57 0 0 1 2.568-2.567z"/></svg>